<?xml version="1.0" encoding="us-ascii" standalone="no"?><svg xmlns="http://www.w3.org/2000/svg" xmlns:xlink="http://www.w3.org/1999/xlink" contentStyleType="text/css" height="1273px" preserveAspectRatio="none" style="width:1765px;height:1273px;background:#F3F1EB;" version="1.1" viewBox="0 0 1765 1273" width="1765px" zoomAndPan="magnify"><defs/><g><rect fill="#F3F1EB" height="1273" style="stroke:none;stroke-width:1.0;" width="1765" x="0" y="0"/><text fill="#000000" font-family="sans-serif" font-size="14" font-weight="bold" lengthAdjust="spacing" textLength="250" x="756" y="32.9951">ACT-14 UC14 Riot API &#53412; &#44081;&#49888;&#183;&#44160;&#51613;</text><rect fill="none" height="20.9531" style="stroke:none;stroke-width:1.0;" width="1732" x="15" y="50.042"/><ellipse cx="222.5" cy="85.9951" fill="#222222" rx="10" ry="10" style="stroke:#222222;stroke-width:1.0;"/><rect fill="#FFFFFF" height="47.9375" rx="12.5" ry="12.5" style="stroke:#181818;stroke-width:0.5;" width="361" x="42" y="115.9951"/><text fill="#000000" font-family="sans-serif" font-size="12" lengthAdjust="spacing" textLength="341" x="52" y="137.1338">developer.riotgames.com &#47196;&#44536;&#51064; &#183; &#44060;&#48156;&#50857; &#53412; REGENERATE</text><text fill="#000000" font-family="sans-serif" font-size="12" lengthAdjust="spacing" textLength="226" x="52" y="151.1025">(A1: Personal API Key &#49888;&#52397;&#51008; &#48324;&#46020; &#51652;&#54665;)</text><rect fill="#FFFFFF" height="33.9688" rx="12.5" ry="12.5" style="stroke:#181818;stroke-width:0.5;" width="403" x="21" y="183.9326"/><text fill="#000000" font-family="sans-serif" font-size="12" lengthAdjust="spacing" textLength="383" x="31" y="205.0713">.env &#50640; RIOT_API_KEY &#44592;&#47197; (E5: &#45796;&#47480; &#54028;&#51068;&#183;&#52964;&#48139; &#44552;&#51648;, git status &#54869;&#51064;)</text><rect fill="#FFFFFF" height="33.9688" rx="12.5" ry="12.5" style="stroke:#181818;stroke-width:0.5;" width="181" x="132" y="237.9014"/><text fill="#000000" font-family="sans-serif" font-size="12" lengthAdjust="spacing" textLength="161" x="142" y="259.04">./check_project.sh restart</text><rect fill="#FFFFFF" height="33.9688" rx="12.5" ry="12.5" style="stroke:#181818;stroke-width:0.5;" width="302" x="71.5" y="851.2412"/><text fill="#000000" font-family="sans-serif" font-size="12" lengthAdjust="spacing" textLength="282" x="81.5" y="872.3799">curl -s localhost:9524/api/health &#8594; riot_ready</text><rect fill="#FFFFFF" height="33.9688" rx="12.5" ry="12.5" style="stroke:#181818;stroke-width:0.5;" width="257" x="94" y="953.6123"/><text fill="#000000" font-family="sans-serif" font-size="12" lengthAdjust="spacing" textLength="237" x="104" y="974.751">.env &#48320;&#49688;&#47749; &#54869;&#51064; &#183; &#53412; &#51116;&#48156;&#44553; &#8594; &#52376;&#51020;&#48512;&#53552; &#48152;&#48373;</text><ellipse cx="222.5" cy="1025.0967" fill="none" rx="10" ry="10" style="stroke:#222222;stroke-width:1.5;"/><line style="stroke:#222222;stroke-width:2.5;" x1="216.3128" x2="228.6872" y1="1018.9095" y2="1031.2839"/><line style="stroke:#222222;stroke-width:2.5;" x1="228.6872" x2="216.3128" y1="1018.9095" y2="1031.2839"/><polygon fill="#FFFFFF" points="208,905.21,237,905.21,249,917.21,237,929.21,208,929.21,196,917.21,208,905.21" style="stroke:#181818;stroke-width:0.5;"/><text fill="#000000" font-family="sans-serif" font-size="11" lengthAdjust="spacing" textLength="48" x="226.5" y="939.4204">&#50500;&#45768;&#50724; E3</text><text fill="#000000" font-family="sans-serif" font-size="11" lengthAdjust="spacing" textLength="29" x="208" y="921.0181">true?</text><text fill="#000000" font-family="sans-serif" font-size="11" lengthAdjust="spacing" textLength="10" x="249" y="914.6157">&#50696;</text><rect fill="#FFFFFF" height="33.9688" rx="12.5" ry="12.5" style="stroke:#181818;stroke-width:0.5;" width="135" x="155" y="1077.0967"/><text fill="#000000" font-family="sans-serif" font-size="12" lengthAdjust="spacing" textLength="115" x="165" y="1098.2354">&#44277;&#44060; &#51452;&#49548; &#52395; &#54868;&#47732; &#54869;&#51064;</text><rect fill="#FFFFFF" height="33.9688" rx="12.5" ry="12.5" style="stroke:#181818;stroke-width:0.5;" width="282" x="81.5" y="1185.0342"/><text fill="#000000" font-family="sans-serif" font-size="12" lengthAdjust="spacing" textLength="262" x="91.5" y="1206.1729">UC3&#183;UC4&#183;UC10 &#49884;&#51089; &#44032;&#45733; (24&#49884;&#44036; &#46244; &#45796;&#49884; &#44081;&#49888;)</text><ellipse cx="222.5" cy="1250.0029" fill="none" rx="11" ry="11" style="stroke:#222222;stroke-width:1.0;"/><ellipse cx="222.5" cy="1250.0029" fill="#222222" rx="6" ry="6" style="stroke:#222222;stroke-width:1.0;"/><line style="stroke:#000000;stroke-width:1.5;" x1="15" x2="15" y1="50.042" y2="1261.0029"/><rect fill="#FFFFFF" height="33.9688" rx="12.5" ry="12.5" style="stroke:#181818;stroke-width:0.5;" width="296" x="687.75" y="291.8701"/><text fill="#000000" font-family="sans-serif" font-size="12" lengthAdjust="spacing" textLength="276" x="697.75" y="313.0088">.env &#8594; &#54872;&#44221;&#48320;&#49688; (&#44050; &#52636;&#47141; &#50630;&#51020;) &#183; &#48177;&#50644;&#46300; &#51473;&#51648; &#8594; &#44592;&#46041;</text><rect fill="#FFFFFF" height="33.9688" rx="12.5" ry="12.5" style="stroke:#181818;stroke-width:0.5;" width="161" x="755.25" y="394.2412"/><text fill="#000000" font-family="sans-serif" font-size="12" lengthAdjust="spacing" textLength="141" x="765.25" y="415.3799">logs &#54869;&#51064; &#183; stop &#46244; start</text><ellipse cx="835.75" cy="465.7256" fill="none" rx="10" ry="10" style="stroke:#222222;stroke-width:1.5;"/><line style="stroke:#222222;stroke-width:2.5;" x1="829.5628" x2="841.9372" y1="459.5384" y2="471.9128"/><line style="stroke:#222222;stroke-width:2.5;" x1="841.9372" x2="829.5628" y1="459.5384" y2="471.9128"/><polygon fill="#FFFFFF" points="810.75,345.8389,860.75,345.8389,872.75,357.8389,860.75,369.8389,810.75,369.8389,798.75,357.8389,810.75,345.8389" style="stroke:#181818;stroke-width:0.5;"/><text fill="#000000" font-family="sans-serif" font-size="11" lengthAdjust="spacing" textLength="48" x="839.75" y="380.0493">&#50500;&#45768;&#50724; E4</text><text fill="#000000" font-family="sans-serif" font-size="11" lengthAdjust="spacing" textLength="50" x="810.75" y="361.647">&#44592;&#46041; &#49457;&#44277;?</text><text fill="#000000" font-family="sans-serif" font-size="11" lengthAdjust="spacing" textLength="10" x="872.75" y="355.2446">&#50696;</text><rect fill="#FFFFFF" height="33.9688" rx="12.5" ry="12.5" style="stroke:#181818;stroke-width:0.5;" width="163" x="754.25" y="517.7256"/><text fill="#000000" font-family="sans-serif" font-size="12" lengthAdjust="spacing" textLength="143" x="764.25" y="538.8643">import &#49884;&#51216; key_works()</text><polygon fill="#FFFFFF" points="815.75,571.6943,855.75,571.6943,867.75,583.6943,855.75,595.6943,815.75,595.6943,803.75,583.6943,815.75,571.6943" style="stroke:#181818;stroke-width:0.5;"/><text fill="#000000" font-family="sans-serif" font-size="11" lengthAdjust="spacing" textLength="40" x="815.75" y="587.5024">&#53412; &#51080;&#51020;?</text><text fill="#000000" font-family="sans-serif" font-size="11" lengthAdjust="spacing" textLength="48" x="755.75" y="581.1001">&#50500;&#45768;&#50724; A2</text><text fill="#000000" font-family="sans-serif" font-size="11" lengthAdjust="spacing" textLength="10" x="867.75" y="581.1001">&#50696;</text><rect fill="#FFFFFF" height="33.9688" rx="12.5" ry="12.5" style="stroke:#181818;stroke-width:0.5;" width="284" x="434" y="615.6943"/><text fill="#000000" font-family="sans-serif" font-size="12" lengthAdjust="spacing" textLength="264" x="444" y="636.833">RIOT_READY = False (&#44160;&#49353;&#47564; &#45803;&#55192;, &#45208;&#47672;&#51648; &#46041;&#51089;)</text><polygon fill="#FFFFFF" points="1073.5,669.6631,1097.5,669.6631,1109.5,681.6631,1097.5,693.6631,1073.5,693.6631,1061.5,681.6631,1073.5,669.6631" style="stroke:#181818;stroke-width:0.5;"/><text fill="#000000" font-family="sans-serif" font-size="11" lengthAdjust="spacing" textLength="20" x="1075.5" y="685.4712">&#51025;&#45813;</text><rect fill="#FFFFFF" height="33.9688" rx="12.5" ry="12.5" style="stroke:#181818;stroke-width:0.5;" width="139" x="738" y="729.2725"/><text fill="#000000" font-family="sans-serif" font-size="12" lengthAdjust="spacing" textLength="119" x="748" y="750.4111">RIOT_READY = True</text><rect fill="#FFFFFF" height="33.9688" rx="12.5" ry="12.5" style="stroke:#181818;stroke-width:0.5;" width="141" x="897" y="729.2725"/><text fill="#000000" font-family="sans-serif" font-size="12" lengthAdjust="spacing" textLength="121" x="907" y="750.4111">False (&#47564;&#47308;&#183;&#51096;&#47803;&#46108; &#53412;)</text><rect fill="#FFFFFF" height="33.9688" rx="12.5" ry="12.5" style="stroke:#181818;stroke-width:0.5;" width="181" x="1048" y="729.2725"/><text fill="#000000" font-family="sans-serif" font-size="12" lengthAdjust="spacing" textLength="161" x="1058" y="750.4111">True (&#48528;&#48724;&#51068; &#49104;, &#51453;&#51008; &#53412; &#50500;&#45784;)</text><rect fill="#FFFFFF" height="33.9688" rx="12.5" ry="12.5" style="stroke:#181818;stroke-width:0.5;" width="194" x="1239" y="729.2725"/><text fill="#000000" font-family="sans-serif" font-size="12" lengthAdjust="spacing" textLength="174" x="1249" y="750.4111">False (&#50696;&#50808; &#49340;&#53428; &#8212; &#44592;&#46041;&#51008; &#44228;&#49549;)</text><polygon fill="#FFFFFF" points="1085.5,773.2412,1085.5,773.2412,1097.5,785.2412,1085.5,797.2412,1085.5,797.2412,1073.5,785.2412,1085.5,773.2412" style="stroke:#181818;stroke-width:0.5;"/><polygon fill="#FFFFFF" points="835.75,807.2412,847.75,819.2412,835.75,831.2412,823.75,819.2412,835.75,807.2412" style="stroke:#181818;stroke-width:0.5;"/><rect fill="#FFFFFF" height="33.9688" rx="12.5" ry="12.5" style="stroke:#181818;stroke-width:0.5;" width="332" x="669.75" y="1131.0654"/><text fill="#000000" font-family="sans-serif" font-size="12" lengthAdjust="spacing" textLength="312" x="679.75" y="1152.2041">render(riot_ready) &#8212; &#44160;&#49353; &#51077;&#47141; &#54876;&#49457; &#183; &#50696;&#49884; Riot ID &#52292;&#50880;</text><line style="stroke:#000000;stroke-width:1.5;" x1="428" x2="428" y1="50.042" y2="1261.0029"/><rect fill="#FFFFFF" height="33.9688" rx="12.5" ry="12.5" style="stroke:#181818;stroke-width:0.5;" width="298" x="1443" y="615.6943"/><text fill="#000000" font-family="sans-serif" font-size="12" lengthAdjust="spacing" textLength="278" x="1453" y="636.833">GET /lol/status/v4/platform-data (6&#52488; &#53440;&#51076;&#50500;&#50883;)</text><line style="stroke:#000000;stroke-width:1.5;" x1="1437" x2="1437" y1="50.042" y2="1261.0029"/><line style="stroke:#000000;stroke-width:1.5;" x1="1745" x2="1745" y1="50.042" y2="1261.0029"/><line style="stroke:#181818;stroke-width:1.0;" x1="222.5" x2="222.5" y1="95.9951" y2="115.9951"/><polygon fill="#181818" points="218.5,105.9951,222.5,115.9951,226.5,105.9951,222.5,109.9951" style="stroke:#181818;stroke-width:1.0;"/><line style="stroke:#181818;stroke-width:1.0;" x1="222.5" x2="222.5" y1="163.9326" y2="183.9326"/><polygon fill="#181818" points="218.5,173.9326,222.5,183.9326,226.5,173.9326,222.5,177.9326" style="stroke:#181818;stroke-width:1.0;"/><line style="stroke:#181818;stroke-width:1.0;" x1="222.5" x2="222.5" y1="217.9014" y2="237.9014"/><polygon fill="#181818" points="218.5,227.9014,222.5,237.9014,226.5,227.9014,222.5,231.9014" style="stroke:#181818;stroke-width:1.0;"/><line style="stroke:#181818;stroke-width:1.0;" x1="222.5" x2="222.5" y1="987.5811" y2="1015.0967"/><polygon fill="#181818" points="218.5,1005.0967,222.5,1015.0967,226.5,1005.0967,222.5,1009.0967" style="stroke:#181818;stroke-width:1.0;"/><line style="stroke:#181818;stroke-width:1.0;" x1="222.5" x2="222.5" y1="929.21" y2="953.6123"/><polygon fill="#181818" points="218.5,943.6123,222.5,953.6123,226.5,943.6123,222.5,947.6123" style="stroke:#181818;stroke-width:1.0;"/><line style="stroke:#181818;stroke-width:1.0;" x1="249" x2="361" y1="917.21" y2="917.21"/><polygon fill="#181818" points="357,985.0967,361,995.0967,365,985.0967,361,989.0967" style="stroke:#181818;stroke-width:1.0;"/><line style="stroke:#181818;stroke-width:1.0;" x1="361" x2="361" y1="917.21" y2="1057.0967"/><line style="stroke:#181818;stroke-width:1.0;" x1="361" x2="222.5" y1="1057.0967" y2="1057.0967"/><line style="stroke:#181818;stroke-width:1.0;" x1="222.5" x2="222.5" y1="1057.0967" y2="1077.0967"/><polygon fill="#181818" points="218.5,1067.0967,222.5,1077.0967,226.5,1067.0967,222.5,1071.0967" style="stroke:#181818;stroke-width:1.0;"/><line style="stroke:#181818;stroke-width:1.0;" x1="222.5" x2="222.5" y1="885.21" y2="905.21"/><polygon fill="#181818" points="218.5,895.21,222.5,905.21,226.5,895.21,222.5,899.21" style="stroke:#181818;stroke-width:1.0;"/><line style="stroke:#181818;stroke-width:1.0;" x1="222.5" x2="222.5" y1="1219.0029" y2="1239.0029"/><polygon fill="#181818" points="218.5,1229.0029,222.5,1239.0029,226.5,1229.0029,222.5,1233.0029" style="stroke:#181818;stroke-width:1.0;"/><line style="stroke:#181818;stroke-width:1.0;" x1="835.75" x2="835.75" y1="428.21" y2="455.7256"/><polygon fill="#181818" points="831.75,445.7256,835.75,455.7256,839.75,445.7256,835.75,449.7256" style="stroke:#181818;stroke-width:1.0;"/><line style="stroke:#181818;stroke-width:1.0;" x1="835.75" x2="835.75" y1="369.8389" y2="394.2412"/><polygon fill="#181818" points="831.75,384.2412,835.75,394.2412,839.75,384.2412,835.75,388.2412" style="stroke:#181818;stroke-width:1.0;"/><line style="stroke:#181818;stroke-width:1.0;" x1="872.75" x2="926.25" y1="357.8389" y2="357.8389"/><polygon fill="#181818" points="922.25,425.7256,926.25,435.7256,930.25,425.7256,926.25,429.7256" style="stroke:#181818;stroke-width:1.0;"/><line style="stroke:#181818;stroke-width:1.0;" x1="926.25" x2="926.25" y1="357.8389" y2="497.7256"/><line style="stroke:#181818;stroke-width:1.0;" x1="926.25" x2="835.75" y1="497.7256" y2="497.7256"/><line style="stroke:#181818;stroke-width:1.0;" x1="835.75" x2="835.75" y1="497.7256" y2="517.7256"/><polygon fill="#181818" points="831.75,507.7256,835.75,517.7256,839.75,507.7256,835.75,511.7256" style="stroke:#181818;stroke-width:1.0;"/><line style="stroke:#181818;stroke-width:1.0;" x1="835.75" x2="835.75" y1="325.8389" y2="345.8389"/><polygon fill="#181818" points="831.75,335.8389,835.75,345.8389,839.75,335.8389,835.75,339.8389" style="stroke:#181818;stroke-width:1.0;"/><line style="stroke:#181818;stroke-width:1.0;" x1="1061.5" x2="807.5" y1="681.6631" y2="681.6631"/><line style="stroke:#181818;stroke-width:1.0;" x1="807.5" x2="807.5" y1="681.6631" y2="729.2725"/><polygon fill="#181818" points="803.5,719.2725,807.5,729.2725,811.5,719.2725,807.5,723.2725" style="stroke:#181818;stroke-width:1.0;"/><text fill="#000000" font-family="sans-serif" font-size="11" lengthAdjust="spacing" textLength="21" x="807.5" y="709.2759">200</text><line style="stroke:#181818;stroke-width:1.0;" x1="1109.5" x2="1336" y1="681.6631" y2="681.6631"/><line style="stroke:#181818;stroke-width:1.0;" x1="1336" x2="1336" y1="681.6631" y2="729.2725"/><polygon fill="#181818" points="1332,719.2725,1336,729.2725,1340,719.2725,1336,723.2725" style="stroke:#181818;stroke-width:1.0;"/><text fill="#000000" font-family="sans-serif" font-size="11" lengthAdjust="spacing" textLength="82" x="1336" y="709.2759">&#53440;&#51076;&#50500;&#50883;&#183;&#50696;&#50808; E2</text><line style="stroke:#181818;stroke-width:1.0;" x1="967.5" x2="967.5" y1="681.6631" y2="729.2725"/><polygon fill="#181818" points="963.5,719.2725,967.5,729.2725,971.5,719.2725,967.5,723.2725" style="stroke:#181818;stroke-width:1.0;"/><text fill="#000000" font-family="sans-serif" font-size="11" lengthAdjust="spacing" textLength="64" x="967.5" y="704.2759">401/403 E1</text><line style="stroke:#181818;stroke-width:1.0;" x1="1138.5" x2="1138.5" y1="681.6631" y2="729.2725"/><polygon fill="#181818" points="1134.5,719.2725,1138.5,729.2725,1142.5,719.2725,1138.5,723.2725" style="stroke:#181818;stroke-width:1.0;"/><text fill="#000000" font-family="sans-serif" font-size="11" lengthAdjust="spacing" textLength="39" x="1138.5" y="704.2759">429 A4</text><line style="stroke:#181818;stroke-width:1.0;" x1="807.5" x2="807.5" y1="763.2412" y2="785.2412"/><line style="stroke:#181818;stroke-width:1.0;" x1="807.5" x2="1073.5" y1="785.2412" y2="785.2412"/><polygon fill="#181818" points="1063.5,781.2412,1073.5,785.2412,1063.5,789.2412,1067.5,785.2412" style="stroke:#181818;stroke-width:1.0;"/><line style="stroke:#181818;stroke-width:1.0;" x1="1336" x2="1336" y1="763.2412" y2="785.2412"/><line style="stroke:#181818;stroke-width:1.0;" x1="1336" x2="1097.5" y1="785.2412" y2="785.2412"/><polygon fill="#181818" points="1107.5,781.2412,1097.5,785.2412,1107.5,789.2412,1103.5,785.2412" style="stroke:#181818;stroke-width:1.0;"/><line style="stroke:#181818;stroke-width:1.0;" x1="967.5" x2="967.5" y1="763.2412" y2="785.2412"/><polygon fill="#181818" points="963.5,775.2412,967.5,785.2412,971.5,775.2412,967.5,779.2412" style="stroke:#181818;stroke-width:1.0;"/><line style="stroke:#181818;stroke-width:1.0;" x1="1138.5" x2="1138.5" y1="763.2412" y2="785.2412"/><polygon fill="#181818" points="1134.5,775.2412,1138.5,785.2412,1142.5,775.2412,1138.5,779.2412" style="stroke:#181818;stroke-width:1.0;"/><line style="stroke:#181818;stroke-width:1.0;" x1="803.75" x2="576" y1="583.6943" y2="583.6943"/><line style="stroke:#181818;stroke-width:1.0;" x1="576" x2="576" y1="583.6943" y2="615.6943"/><polygon fill="#181818" points="572,605.6943,576,615.6943,580,605.6943,576,609.6943" style="stroke:#181818;stroke-width:1.0;"/><line style="stroke:#181818;stroke-width:1.0;" x1="576" x2="576" y1="649.6631" y2="819.2412"/><line style="stroke:#181818;stroke-width:1.0;" x1="576" x2="823.75" y1="819.2412" y2="819.2412"/><polygon fill="#181818" points="813.75,815.2412,823.75,819.2412,813.75,823.2412,817.75,819.2412" style="stroke:#181818;stroke-width:1.0;"/><line style="stroke:#181818;stroke-width:1.0;" x1="1085.5" x2="1085.5" y1="797.2412" y2="819.2412"/><line style="stroke:#181818;stroke-width:1.0;" x1="1085.5" x2="847.75" y1="819.2412" y2="819.2412"/><polygon fill="#181818" points="857.75,815.2412,847.75,819.2412,857.75,823.2412,853.75,819.2412" style="stroke:#181818;stroke-width:1.0;"/><line style="stroke:#181818;stroke-width:1.0;" x1="835.75" x2="835.75" y1="551.6943" y2="571.6943"/><polygon fill="#181818" points="831.75,561.6943,835.75,571.6943,839.75,561.6943,835.75,565.6943" style="stroke:#181818;stroke-width:1.0;"/><line style="stroke:#181818;stroke-width:1.0;" x1="222.5" x2="222.5" y1="271.8701" y2="276.8701"/><line style="stroke:#181818;stroke-width:1.0;" x1="222.5" x2="835.75" y1="276.8701" y2="276.8701"/><line style="stroke:#181818;stroke-width:1.0;" x1="835.75" x2="835.75" y1="276.8701" y2="291.8701"/><polygon fill="#181818" points="831.75,281.8701,835.75,291.8701,839.75,281.8701,835.75,285.8701" style="stroke:#181818;stroke-width:1.0;"/><line style="stroke:#181818;stroke-width:1.0;" x1="1592" x2="1592" y1="649.6631" y2="654.6631"/><line style="stroke:#181818;stroke-width:1.0;" x1="1592" x2="1085.5" y1="654.6631" y2="654.6631"/><line style="stroke:#181818;stroke-width:1.0;" x1="1085.5" x2="1085.5" y1="654.6631" y2="669.6631"/><polygon fill="#181818" points="1081.5,659.6631,1085.5,669.6631,1089.5,659.6631,1085.5,663.6631" style="stroke:#181818;stroke-width:1.0;"/><line style="stroke:#181818;stroke-width:1.0;" x1="867.75" x2="1592" y1="583.6943" y2="583.6943"/><line style="stroke:#181818;stroke-width:1.0;" x1="1592" x2="1592" y1="583.6943" y2="615.6943"/><polygon fill="#181818" points="1588,605.6943,1592,615.6943,1596,605.6943,1592,609.6943" style="stroke:#181818;stroke-width:1.0;"/><line style="stroke:#181818;stroke-width:1.0;" x1="835.75" x2="835.75" y1="831.2412" y2="836.2412"/><line style="stroke:#181818;stroke-width:1.0;" x1="835.75" x2="222.5" y1="836.2412" y2="836.2412"/><line style="stroke:#181818;stroke-width:1.0;" x1="222.5" x2="222.5" y1="836.2412" y2="851.2412"/><polygon fill="#181818" points="218.5,841.2412,222.5,851.2412,226.5,841.2412,222.5,845.2412" style="stroke:#181818;stroke-width:1.0;"/><line style="stroke:#181818;stroke-width:1.0;" x1="222.5" x2="222.5" y1="1111.0654" y2="1116.0654"/><line style="stroke:#181818;stroke-width:1.0;" x1="222.5" x2="835.75" y1="1116.0654" y2="1116.0654"/><line style="stroke:#181818;stroke-width:1.0;" x1="835.75" x2="835.75" y1="1116.0654" y2="1131.0654"/><polygon fill="#181818" points="831.75,1121.0654,835.75,1131.0654,839.75,1121.0654,835.75,1125.0654" style="stroke:#181818;stroke-width:1.0;"/><line style="stroke:#181818;stroke-width:1.0;" x1="835.75" x2="835.75" y1="1165.0342" y2="1170.0342"/><line style="stroke:#181818;stroke-width:1.0;" x1="835.75" x2="222.5" y1="1170.0342" y2="1170.0342"/><line style="stroke:#181818;stroke-width:1.0;" x1="222.5" x2="222.5" y1="1170.0342" y2="1185.0342"/><polygon fill="#181818" points="218.5,1175.0342,222.5,1185.0342,226.5,1175.0342,222.5,1179.0342" style="stroke:#181818;stroke-width:1.0;"/><text fill="#000000" font-family="sans-serif" font-size="18" lengthAdjust="spacing" textLength="179" x="132" y="66.75">&#49436;&#48708;&#49828; &#45812;&#45817;(&#48176;&#54252;&#183;&#50868;&#50689;)</text><text fill="#000000" font-family="sans-serif" font-size="18" lengthAdjust="spacing" textLength="265" x="800" y="66.75">check_project.sh &#183; &#48177;&#50644;&#46300; 9524</text><text fill="#000000" font-family="sans-serif" font-size="18" lengthAdjust="spacing" textLength="265" x="1458.5" y="66.75">Riot Games API (lol-status-v4)</text><!--SRC=[ZLJVRzfM57xtNt6alM0f2Jz29nKqJPGuKLHfgn1vw1DoZGCU1YFR8Oh40qtSY1Ica3HTdGvGgf9b_J6911A8ccfI_fG- -bx-XvrxOHrTKoayMFZwVkTyvplVELPEAnHbKyx38rd9PKnZhP2E6xfXmdUByuj1wPvWVRvXPUMqiQuLCh0gwvOwzKLMRAsasHiBcfmt2kbxNuNYlni0txffQxQkGYoUd0s6OIMEZuHcs11xi0oZpGvutLDQExeUU6SL-aTB4ChKQP9BXpxj0AdrIUtIHxhTqUxxwm5zsQVkOx4iMBPisa8ahPPKtIYgvfo90JDoNhNc52CFv5NJ6mnfQmZN0mpV9DqcVVc69qj8Iz9FKYAMb0HVB1Y11wff6GLPvspkgnk0LEZPNxHL0T9poAu3zCGP_ROZHeN8d5ee0NtHWCJopyaK0bBtfOVW3RlaLGjyqfq8yksGuo6CwdNQkaA-7pgaMyCRLNfIcO6CPWCojzSi61q-Hteyg5_9gaekLJIDNrJ5dhEoOAgylgXG_keJraDGhXS7v5aJxju9XSiJMf-szp6ewvrz9BqAhRhWyxhxG2-QvEWOEM_JLbty4aqxUyYA0ra9kuTHGLj56FyFr3drUkS_Yc1drGBuw7E7rAhKxO0K5WM0Y6va_gs2XRLiemXalmCJvW1g8IseQ2p4kbLHm5TjLOXe-Q9XsYXoanur8ATkfDODCsVvn75orY7QhYBP6pB7GZmp5pyXnHOUmW-mAFCKp3fRE-IaZXruDsgxCq0sNVBda1M8rT3s7YQOOWDGvXPSOfRXhVVfXZuxRiviAOmMmqnBKXByUEuVd_jBONzHb-rLmypFfcLR1j_tj5-5qLQ5jXtaIN_V4bdfjseRWBMksKeM6RNsIEsSaL9anZ0K2B2N_vUQDDVKwETBuK3G7mxCWnISt9qeWHgGrtMqNjibRp-GHfEvNfp2XUv2B3p1i908kMYGomCqB92_6pD0NtzaxkUjODgxK-ZfKZ67MwM7Gv12NrAO7DFDgz5c7pvL3YR-Ob6zdaEtVnKd1XahCF76BSO-egoPEinQe1kAh6SDouumCVroKVDdLLctizpER1caJ5LERunTPMEPDpbvdlk9ZyzuQCZR9rEU7flnFIuFRxZ30zCp5wr9BYeZfuiDTKdl_DjMn_71rODoNj7jEaBVOUW3ygO_oN3RwJOnd6hw_gj974lA7O_ydh017nqsSM0PdebVQuuNxF82q5DiLILwAt5NulFNWvLuc3s20JwZxJrSdnNoz1XT6SO3h-lmASSznxACDpTsaut_Fm00]--></g></svg>