<?xml version="1.0" encoding="us-ascii" standalone="no"?><svg xmlns="http://www.w3.org/2000/svg" xmlns:xlink="http://www.w3.org/1999/xlink" contentStyleType="text/css" height="2448px" preserveAspectRatio="none" style="width:2940px;height:2448px;background:#F3F1EB;" version="1.1" viewBox="0 0 2940 2448" width="2940px" zoomAndPan="magnify"><defs/><g><rect fill="#F3F1EB" height="2448" style="stroke:none;stroke-width:1.0;" width="2940" x="0" y="0"/><text fill="#000000" font-family="sans-serif" font-size="14" font-weight="bold" lengthAdjust="spacing" textLength="360" x="1288.875" y="32.9951">AD-03 UC3 &#49548;&#54872;&#49324; &#52572;&#44540; &#44221;&#44592; &#48373;&#44592;&#183;&#54032;&#51221; &#8212; &#49345;&#49464; &#50529;&#54000;&#48708;&#54000;</text><rect fill="none" height="20.9531" style="stroke:none;stroke-width:1.0;" width="2907.75" x="15" y="50.042"/><ellipse cx="174.5" cy="85.9951" fill="#222222" rx="10" ry="10" style="stroke:#222222;stroke-width:1.0;"/><rect fill="#FFFFFF" height="33.9688" rx="12.5" ry="12.5" style="stroke:#181818;stroke-width:0.5;" width="307" x="21" y="115.9951"/><text fill="#000000" font-family="sans-serif" font-size="12" lengthAdjust="spacing" textLength="287" x="31" y="137.1338">1. "&#50976;&#51200; &#51204;&#51201; &#48516;&#49437;" &#44160;&#49353;&#52285;&#50640; &#44172;&#51076;&#47749;#&#53468;&#44536; &#51077;&#47141; &#183; "&#48516;&#49437;"</text><rect fill="#FFFFFF" height="33.9688" rx="12.5" ry="12.5" style="stroke:#181818;stroke-width:0.5;" width="213" x="68" y="2200.6743"/><text fill="#000000" font-family="sans-serif" font-size="12" lengthAdjust="spacing" textLength="193" x="78" y="2221.813">10. &#44288;&#49900; &#44221;&#44592; &#54665;(&#53945;&#55176; &#50669;&#51204;&#54056;) &#54204;&#52824;&#44592;</text><rect fill="#FFFFFF" height="33.9688" rx="12.5" ry="12.5" style="stroke:#181818;stroke-width:0.5;" width="158" x="95.5" y="2360.6118"/><text fill="#000000" font-family="sans-serif" font-size="12" lengthAdjust="spacing" textLength="138" x="105.5" y="2381.7505">&#54032;&#51221; &#183; &#53076;&#52845; &#183; &#54000;&#50612;&#47484; &#51069;&#45716;&#45796;</text><ellipse cx="174.5" cy="2425.5806" fill="none" rx="11" ry="11" style="stroke:#222222;stroke-width:1.0;"/><ellipse cx="174.5" cy="2425.5806" fill="#222222" rx="6" ry="6" style="stroke:#222222;stroke-width:1.0;"/><line style="stroke:#000000;stroke-width:1.5;" x1="15" x2="15" y1="50.042" y2="2436.5806"/><rect fill="#FFFFFF" height="33.9688" rx="12.5" ry="12.5" style="stroke:#181818;stroke-width:0.5;" width="242" x="673.5" y="218.3662"/><text fill="#000000" font-family="sans-serif" font-size="12" lengthAdjust="spacing" textLength="222" x="683.5" y="239.5049">&#44160;&#49353;&#52285; &#48708;&#54876;&#49457; &#8212; &#49884;&#51089; &#48520;&#44032; (&#48373;&#44396;&#45716; UC14)</text><ellipse cx="794.5" cy="291.8506" fill="none" rx="11" ry="11" style="stroke:#222222;stroke-width:1.0;"/><ellipse cx="794.5" cy="291.8506" fill="#222222" rx="6" ry="6" style="stroke:#222222;stroke-width:1.0;"/><polygon fill="#FFF8E1" points="751,169.9639,838,169.9639,850,181.9639,838,193.9639,751,193.9639,739,181.9639,751,169.9639" style="stroke:#181818;stroke-width:0.5;"/><text fill="#000000" font-family="sans-serif" font-size="11" lengthAdjust="spacing" textLength="30" x="798.5" y="204.1743">&#50500;&#45768;&#50724;</text><text fill="#000000" font-family="sans-serif" font-size="11" lengthAdjust="spacing" textLength="87" x="751" y="185.772">riot_ready &#51064;&#44032;?</text><text fill="#000000" font-family="sans-serif" font-size="11" lengthAdjust="spacing" textLength="10" x="850" y="179.3696">&#50696;</text><rect fill="#FFFFFF" height="33.9688" rx="12.5" ry="12.5" style="stroke:#181818;stroke-width:0.5;" width="94" x="747.5" y="393.2529"/><text fill="#000000" font-family="sans-serif" font-size="12" lengthAdjust="spacing" textLength="74" x="757.5" y="414.3916">&#54805;&#49885; &#50504;&#45236; &#54364;&#49884;</text><ellipse cx="794.5" cy="466.7373" fill="none" rx="11" ry="11" style="stroke:#222222;stroke-width:1.0;"/><ellipse cx="794.5" cy="466.7373" fill="#222222" rx="6" ry="6" style="stroke:#222222;stroke-width:1.0;"/><polygon fill="#FFF8E1" points="741,344.8506,848,344.8506,860,356.8506,848,368.8506,741,368.8506,729,356.8506,741,344.8506" style="stroke:#181818;stroke-width:0.5;"/><text fill="#000000" font-family="sans-serif" font-size="11" lengthAdjust="spacing" textLength="63" x="798.5" y="379.061">&#50500;&#45768;&#50724; &#8212; E2</text><text fill="#000000" font-family="sans-serif" font-size="11" lengthAdjust="spacing" textLength="107" x="741" y="360.6587">"#" &#51060; &#54252;&#54632;&#46076; &#51080;&#45716;&#44032;?</text><text fill="#000000" font-family="sans-serif" font-size="11" lengthAdjust="spacing" textLength="10" x="860" y="354.2563">&#50696;</text><rect fill="#FFFFFF" height="47.9375" rx="12.5" ry="12.5" style="stroke:#181818;stroke-width:0.5;" width="335" x="627" y="519.7373"/><text fill="#000000" font-family="sans-serif" font-size="12" lengthAdjust="spacing" textLength="301" x="637" y="540.876">"&#52572;&#44540; &#44221;&#44592;&#47484; 10&#48516; &#49884;&#51216;&#51004;&#47196; &#46104;&#44048;&#45716; &#51473;&#8230; &#49688;&#49901; &#52488; &#44152;&#47549;&#45768;&#45796;"</text><text fill="#000000" font-family="sans-serif" font-size="12" lengthAdjust="spacing" textLength="315" x="637" y="554.8447">&#183; POST /api/summoner (riot_id &#183; count=5 &#183; start=0)</text><rect fill="#FFFFFF" height="33.9688" rx="12.5" ry="12.5" style="stroke:#181818;stroke-width:0.5;" width="94" x="747.5" y="744.0146"/><text fill="#000000" font-family="sans-serif" font-size="12" lengthAdjust="spacing" textLength="74" x="757.5" y="765.1533">&#50724;&#47448; &#47928;&#44396; &#54364;&#49884;</text><ellipse cx="794.5" cy="808.9834" fill="none" rx="11" ry="11" style="stroke:#222222;stroke-width:1.0;"/><ellipse cx="794.5" cy="808.9834" fill="#222222" rx="6" ry="6" style="stroke:#222222;stroke-width:1.0;"/><rect fill="#FFFFFF" height="33.9688" rx="12.5" ry="12.5" style="stroke:#181818;stroke-width:0.5;" width="276" x="656.5" y="861.9834"/><text fill="#000000" font-family="sans-serif" font-size="12" lengthAdjust="spacing" textLength="256" x="666.5" y="883.1221">3. count 1~10 &#183; start 0 &#51060;&#49345; &#48372;&#51221; &#183; &#52880;&#49884; &#51312;&#54924;</text><polygon fill="#FFF8E1" points="747,915.9521,842,915.9521,854,927.9521,842,939.9521,747,939.9521,735,927.9521,747,915.9521" style="stroke:#181818;stroke-width:0.5;"/><text fill="#000000" font-family="sans-serif" font-size="11" lengthAdjust="spacing" textLength="95" x="747" y="931.7603">5&#48516; &#50504;&#51032; &#44057;&#51008; &#50836;&#52397;?</text><text fill="#000000" font-family="sans-serif" font-size="11" lengthAdjust="spacing" textLength="43" x="692" y="925.3579">&#50696; &#8212; A1</text><text fill="#000000" font-family="sans-serif" font-size="11" lengthAdjust="spacing" textLength="30" x="854" y="925.3579">&#50500;&#45768;&#50724;</text><rect fill="#FFFFFF" height="33.9688" rx="12.5" ry="12.5" style="stroke:#181818;stroke-width:0.5;" width="183" x="568.25" y="959.9521"/><text fill="#000000" font-family="sans-serif" font-size="12" lengthAdjust="spacing" textLength="163" x="578.25" y="981.0908">&#52880;&#49884;&#44050; &#49324;&#50857; (cached = true)</text><polygon fill="#FFF8E1" points="794.5,2006.8306,806.5,2018.8306,794.5,2030.8306,782.5,2018.8306,794.5,2006.8306" style="stroke:#181818;stroke-width:0.5;"/><rect fill="#FFFFFF" height="61.9063" rx="12.5" ry="12.5" style="stroke:#181818;stroke-width:0.5;" width="337" x="626" y="2118.7681"/><text fill="#000000" font-family="sans-serif" font-size="12" lengthAdjust="spacing" textLength="317" x="636" y="2139.9067">9. &#54532;&#47196;&#54596;(&#54000;&#50612; &#183; &#47112;&#51060;&#45908; &#183; &#46972;&#51064; &#44592;&#51456;&#49440;) &#183; &#54032;&#51221; &#53440;&#51068; &#183; &#49457;&#54693; &#48660;&#47197;</text><text fill="#000000" font-family="sans-serif" font-size="12" lengthAdjust="spacing" textLength="270" x="636" y="2153.8755">&#183; &#44221;&#44592; &#54665;(&#52308;&#54588;&#50616; &#183; &#54032;&#51221; &#183; &#44396;&#44036; &#183; 10&#48516; &#49849;&#47456; &#183; &#44040;&#47536; &#48516;)</text><text fill="#000000" font-family="sans-serif" font-size="12" lengthAdjust="spacing" textLength="197" x="636" y="2167.8442">&#183; 5&#54032;&#51060; &#44032;&#46301; &#52264;&#47732; "&#51204;&#51201; &#45908; &#48372;&#44592;" (A2)</text><rect fill="#555555" height="6" rx="2.5" ry="2.5" style="stroke:#555555;stroke-width:1.0;" width="895" x="338" y="2254.6431"/><rect fill="#FFFFFF" height="33.9688" rx="12.5" ry="12.5" style="stroke:#181818;stroke-width:0.5;" width="330" x="350" y="2280.6431"/><text fill="#000000" font-family="sans-serif" font-size="12" lengthAdjust="spacing" textLength="310" x="360" y="2301.7817">&#49849;&#47532;&#50836;&#51064; &#47561;&#45824; &#183; &#44264;&#46300;&#52264; &#44452;&#51201; &#183; &#54016; &#44396;&#49457; (Data Dragon &#52488;&#49345;)</text><rect fill="#FFFFFF" height="33.9688" rx="12.5" ry="12.5" style="stroke:#181818;stroke-width:0.5;" width="295" x="708" y="2280.6431"/><text fill="#000000" font-family="sans-serif" font-size="12" lengthAdjust="spacing" textLength="275" x="718" y="2301.7817">UC2 POST /api/coach (verdict &#54252;&#54632;) &#171;include&#187;</text><rect fill="#FFFFFF" height="33.9688" rx="12.5" ry="12.5" style="stroke:#181818;stroke-width:0.5;" width="208" x="1013" y="2280.6431"/><text fill="#000000" font-family="sans-serif" font-size="12" lengthAdjust="spacing" textLength="188" x="1023" y="2301.7817">UC4 POST /api/ranks &#171;extend&#187;</text><rect fill="#555555" height="6" rx="2.5" ry="2.5" style="stroke:#555555;stroke-width:1.0;" width="895" x="338" y="2334.6118"/><line style="stroke:#000000;stroke-width:1.5;" x1="332" x2="332" y1="50.042" y2="2436.5806"/><rect fill="#FFFFFF" height="33.9688" rx="12.5" ry="12.5" style="stroke:#181818;stroke-width:0.5;" width="135" x="1352.5" y="587.6748"/><text fill="#000000" font-family="sans-serif" font-size="12" lengthAdjust="spacing" textLength="115" x="1362.5" y="608.8135">2. RIOT_READY &#54869;&#51064;</text><rect fill="#FFFFFF" height="33.9688" rx="12.5" ry="12.5" style="stroke:#181818;stroke-width:0.5;" width="70" x="1385" y="690.0459"/><text fill="#000000" font-family="sans-serif" font-size="12" lengthAdjust="spacing" textLength="50" x="1395" y="711.1846">503 &#51025;&#45813;</text><polygon fill="#FFF8E1" points="1384,641.6436,1456,641.6436,1468,653.6436,1456,665.6436,1384,665.6436,1372,653.6436,1384,641.6436" style="stroke:#181818;stroke-width:0.5;"/><text fill="#000000" font-family="sans-serif" font-size="11" lengthAdjust="spacing" textLength="43" x="1424" y="675.854">&#50696; &#8212; E1</text><text fill="#000000" font-family="sans-serif" font-size="11" lengthAdjust="spacing" textLength="72" x="1384" y="657.4517">&#53412; &#50630;&#51020; &#183; &#47564;&#47308;?</text><text fill="#000000" font-family="sans-serif" font-size="11" lengthAdjust="spacing" textLength="30" x="1468" y="651.0493">&#50500;&#45768;&#50724;</text><rect fill="#FFFFFF" height="33.9688" rx="12.5" ry="12.5" style="stroke:#181818;stroke-width:0.5;" width="124" x="1492.75" y="1116.292"/><text fill="#000000" font-family="sans-serif" font-size="12" lengthAdjust="spacing" textLength="104" x="1502.75" y="1137.4307">400 &#46608;&#45716; 503 &#51025;&#45813;</text><ellipse cx="1554.75" cy="1196.2607" fill="none" rx="11" ry="11" style="stroke:#222222;stroke-width:1.0;"/><ellipse cx="1554.75" cy="1196.2607" fill="#222222" rx="6" ry="6" style="stroke:#222222;stroke-width:1.0;"/><rect fill="#FFFFFF" height="33.9688" rx="12.5" ry="12.5" style="stroke:#181818;stroke-width:0.5;" width="296" x="1406.75" y="1249.2607"/><text fill="#000000" font-family="sans-serif" font-size="12" lengthAdjust="spacing" textLength="276" x="1416.75" y="1270.3994">match-v5 &#49556;&#47196;&#47021;&#53356;(&#53328; 420) &#52572;&#44540; &#44221;&#44592; id count &#44060;</text><rect fill="#FFFFFF" height="33.9688" rx="12.5" ry="12.5" style="stroke:#181818;stroke-width:0.5;" width="112" x="1498.75" y="1962.8618"/><text fill="#000000" font-family="sans-serif" font-size="12" lengthAdjust="spacing" textLength="92" x="1508.75" y="1984.0005">&#52880;&#49884;&#50640; &#51200;&#51109; (5&#48516;)</text><rect fill="#FFFFFF" height="47.9375" rx="12.5" ry="12.5" style="stroke:#181818;stroke-width:0.5;" width="354" x="1243" y="2050.8306"/><text fill="#000000" font-family="sans-serif" font-size="12" lengthAdjust="spacing" textLength="334" x="1253" y="2071.9692">8. 200 JSON (riot_id &#183; queue &#183; rank &#183; games &#183; summary</text><text fill="#000000" font-family="sans-serif" font-size="12" lengthAdjust="spacing" textLength="176" x="1253" y="2085.938">&#183; start &#183; next_start &#183; cached)</text><line style="stroke:#000000;stroke-width:1.5;" x1="1237" x2="1237" y1="50.042" y2="2436.5806"/><rect fill="#FFFFFF" height="33.9688" rx="12.5" ry="12.5" style="stroke:#181818;stroke-width:0.5;" width="187" x="1778.25" y="959.9521"/><text fill="#000000" font-family="sans-serif" font-size="12" lengthAdjust="spacing" textLength="167" x="1788.25" y="981.0908">4. Riot ID &#8594; &#44172;&#51076;&#47749; &#183; &#53468;&#44536; &#48516;&#47532;</text><path d="M1922.75,1402.9087 L1922.75,1443.1743 L2147.75,1443.1743 L2147.75,1412.9087 L2137.75,1402.9087 L1922.75,1402.9087 " fill="#FFFDF5" style="stroke:#181818;stroke-width:0.5;"/><path d="M2137.75,1402.9087 L2137.75,1412.9087 L2147.75,1412.9087 L2137.75,1402.9087 " fill="#FFFDF5" style="stroke:#181818;stroke-width:0.5;"/><text fill="#000000" font-family="sans-serif" font-size="13" lengthAdjust="spacing" textLength="204" x="1928.75" y="1419.9756">&#50612;&#45712; Riot &#54840;&#52636;&#51060;&#46304; 429 &#47732; &#51593;&#49884; &#51473;&#45800;</text><text fill="#000000" font-family="sans-serif" font-size="13" lengthAdjust="spacing" textLength="155" x="1928.75" y="1435.1084">&#8594; 429 + retry_after (E6)</text><polygon fill="#FFF8E1" points="1832.75,1443.1743,1910.75,1443.1743,1922.75,1455.1743,1910.75,1467.1743,1832.75,1467.1743,1820.75,1455.1743,1832.75,1443.1743" style="stroke:#181818;stroke-width:0.5;"/><text fill="#000000" font-family="sans-serif" font-size="11" lengthAdjust="spacing" textLength="78" x="1832.75" y="1458.9824">11&#48516; &#48120;&#47564; &#44221;&#44592;?</text><text fill="#000000" font-family="sans-serif" font-size="11" lengthAdjust="spacing" textLength="43" x="1777.75" y="1452.5801">&#50696; &#8212; E5</text><text fill="#000000" font-family="sans-serif" font-size="11" lengthAdjust="spacing" textLength="30" x="1922.75" y="1452.5801">&#50500;&#45768;&#50724;</text><rect fill="#FFFFFF" height="33.9688" rx="12.5" ry="12.5" style="stroke:#181818;stroke-width:0.5;" width="53" x="1747.75" y="1487.1743"/><text fill="#000000" font-family="sans-serif" font-size="12" lengthAdjust="spacing" textLength="33" x="1757.75" y="1508.313">&#44148;&#45320;&#46848;</text><rect fill="#FFFFFF" height="33.9688" rx="12.5" ry="12.5" style="stroke:#181818;stroke-width:0.5;" width="214" x="1862.25" y="1487.1743"/><text fill="#000000" font-family="sans-serif" font-size="12" lengthAdjust="spacing" textLength="194" x="1872.25" y="1508.313">&#48660;&#47336; &#183; &#47112;&#46300; &#52280;&#44032;&#51088; &#51665;&#54633; &#183; &#48376;&#51064; &#54016; &#54869;&#51064;</text><rect fill="#FFFFFF" height="47.9375" rx="12.5" ry="12.5" style="stroke:#181818;stroke-width:0.5;" width="297" x="1820.75" y="1595.1118"/><text fill="#000000" font-family="sans-serif" font-size="12" lengthAdjust="spacing" textLength="277" x="1830.75" y="1616.2505">6. 10&#48516; &#54532;&#47112;&#51076; + 0~10&#48516; &#51060;&#48292;&#53944; &#8594; 13&#44060; &#52264;&#51060; &#54588;&#52376;</text><text fill="#000000" font-family="sans-serif" font-size="12" lengthAdjust="spacing" textLength="273" x="1830.75" y="1630.2192">&#183; &#44264;&#46300;&#52264; &#44452;&#51201; &#183; swing_minute &#183; lane &#183; &#52395; &#50724;&#48652;&#51229;&#53944;</text><rect fill="#FFFFFF" height="47.9375" rx="12.5" ry="12.5" style="stroke:#181818;stroke-width:0.5;" width="205" x="1866.75" y="1717.0181"/><text fill="#000000" font-family="sans-serif" font-size="12" lengthAdjust="spacing" textLength="167" x="1876.75" y="1738.1567">&#48376;&#51064;&#51060; &#47112;&#46300;&#47732; &#54869;&#47456; &#183; &#49849;&#54056; &#46244;&#51665;&#44592;</text><text fill="#000000" font-family="sans-serif" font-size="12" lengthAdjust="spacing" textLength="185" x="1876.75" y="1752.1255">&#8594; verdict_of &#54032;&#51221; &#183; band &#183; style</text><polygon fill="#FFF8E1" points="1871.75,1774.9556,1883.75,1786.9556,1871.75,1798.9556,1859.75,1786.9556,1871.75,1774.9556" style="stroke:#181818;stroke-width:0.5;"/><polygon fill="#FFF8E1" points="1815.75,1303.2295,1927.75,1303.2295,1939.75,1315.2295,1927.75,1327.2295,1815.75,1327.2295,1803.75,1315.2295,1815.75,1303.2295" style="stroke:#181818;stroke-width:0.5;"/><text fill="#000000" font-family="sans-serif" font-size="11" lengthAdjust="spacing" textLength="10" x="1875.75" y="1337.4399">&#50696;</text><text fill="#000000" font-family="sans-serif" font-size="11" lengthAdjust="spacing" textLength="112" x="1815.75" y="1319.0376">&#45224;&#51008; &#44221;&#44592; id &#44032; &#51080;&#45716;&#44032;?</text><text fill="#000000" font-family="sans-serif" font-size="11" lengthAdjust="spacing" textLength="30" x="1773.75" y="1312.6353">&#50500;&#45768;&#50724;</text><rect fill="#FFFFFF" height="47.9375" rx="12.5" ry="12.5" style="stroke:#181818;stroke-width:0.5;" width="310" x="1716.75" y="1840.9556"/><text fill="#000000" font-family="sans-serif" font-size="12" lengthAdjust="spacing" textLength="290" x="1726.75" y="1862.0942">7. summary &#8212; &#54032;&#51221;&#48324; &#44148;&#49688; &#183; avg_win_prob_10min</text><text fill="#000000" font-family="sans-serif" font-size="12" lengthAdjust="spacing" textLength="275" x="1726.75" y="1876.063">&#183; model_correct &#183; period &#183; style &#183; radar &#183; lane</text><line style="stroke:#000000;stroke-width:1.5;" x1="1706.75" x2="1706.75" y1="50.042" y2="2436.5806"/><rect fill="#FFFFFF" height="33.9688" rx="12.5" ry="12.5" style="stroke:#181818;stroke-width:0.5;" width="142" x="2242.25" y="1013.9209"/><text fill="#000000" font-family="sans-serif" font-size="12" lengthAdjust="spacing" textLength="122" x="2252.25" y="1035.0596">account-v1 &#8594; puuid</text><polygon fill="#FFF8E1" points="2231.75,1067.8896,2394.75,1067.8896,2406.75,1079.8896,2394.75,1091.8896,2231.75,1091.8896,2219.75,1079.8896,2231.75,1067.8896" style="stroke:#181818;stroke-width:0.5;"/><text fill="#000000" font-family="sans-serif" font-size="11" lengthAdjust="spacing" textLength="69" x="2317.25" y="1102.1001">&#50696; &#8212; E3 &#183; E4</text><text fill="#000000" font-family="sans-serif" font-size="11" lengthAdjust="spacing" textLength="163" x="2231.75" y="1083.6978">&#44228;&#51221; &#50630;&#51020; 404 &#46608;&#45716; &#53412; 401&#183;403?</text><text fill="#000000" font-family="sans-serif" font-size="11" lengthAdjust="spacing" textLength="30" x="2406.75" y="1077.2954">&#50500;&#45768;&#50724;</text><rect fill="#FFFFFF" height="33.9688" rx="12.5" ry="12.5" style="stroke:#181818;stroke-width:0.5;" width="145" x="2240.75" y="1358.9399"/><text fill="#000000" font-family="sans-serif" font-size="12" lengthAdjust="spacing" textLength="125" x="2250.75" y="1380.0786">5. match-v5 &#44221;&#44592; &#49345;&#49464;</text><path d="M2364.25,1402.9087 L2364.25,1443.1743 L2589.25,1443.1743 L2589.25,1412.9087 L2579.25,1402.9087 L2364.25,1402.9087 " fill="#FFFDF5" style="stroke:#181818;stroke-width:0.5;"/><path d="M2579.25,1402.9087 L2579.25,1412.9087 L2589.25,1412.9087 L2579.25,1402.9087 " fill="#FFFDF5" style="stroke:#181818;stroke-width:0.5;"/><text fill="#000000" font-family="sans-serif" font-size="13" lengthAdjust="spacing" textLength="204" x="2370.25" y="1419.9756">&#50612;&#45712; Riot &#54840;&#52636;&#51060;&#46304; 429 &#47732; &#51593;&#49884; &#51473;&#45800;</text><text fill="#000000" font-family="sans-serif" font-size="13" lengthAdjust="spacing" textLength="155" x="2370.25" y="1435.1084">&#8594; 429 + retry_after (E6)</text><rect fill="#FFFFFF" height="33.9688" rx="12.5" ry="12.5" style="stroke:#181818;stroke-width:0.5;" width="125" x="2348.25" y="1541.1431"/><text fill="#000000" font-family="sans-serif" font-size="12" lengthAdjust="spacing" textLength="105" x="2358.25" y="1562.2817">match-v5 &#53440;&#51076;&#46972;&#51064;</text><rect fill="#FFFFFF" height="33.9688" rx="12.5" ry="12.5" style="stroke:#181818;stroke-width:0.5;" width="257" x="2184.75" y="1908.8931"/><text fill="#000000" font-family="sans-serif" font-size="12" lengthAdjust="spacing" textLength="237" x="2194.75" y="1930.0317">league-v4 &#51312;&#54924;&#51088; &#54000;&#50612; (&#49892;&#54056; &#49884; null &#8212; E8)</text><line style="stroke:#000000;stroke-width:1.5;" x1="2178.75" x2="2178.75" y1="50.042" y2="2436.5806"/><path d="M2690.75,1402.9087 L2690.75,1443.1743 L2915.75,1443.1743 L2915.75,1412.9087 L2905.75,1402.9087 L2690.75,1402.9087 " fill="#FFFDF5" style="stroke:#181818;stroke-width:0.5;"/><path d="M2905.75,1402.9087 L2905.75,1412.9087 L2915.75,1412.9087 L2905.75,1402.9087 " fill="#FFFDF5" style="stroke:#181818;stroke-width:0.5;"/><text fill="#000000" font-family="sans-serif" font-size="13" lengthAdjust="spacing" textLength="204" x="2696.75" y="1419.9756">&#50612;&#45712; Riot &#54840;&#52636;&#51060;&#46304; 429 &#47732; &#51593;&#49884; &#51473;&#45800;</text><text fill="#000000" font-family="sans-serif" font-size="13" lengthAdjust="spacing" textLength="155" x="2696.75" y="1435.1084">&#8594; 429 + retry_after (E6)</text><rect fill="#FFFFFF" height="33.9688" rx="12.5" ry="12.5" style="stroke:#181818;stroke-width:0.5;" width="274" x="2600.25" y="1663.0493"/><text fill="#000000" font-family="sans-serif" font-size="12" lengthAdjust="spacing" textLength="254" x="2610.25" y="1684.188">predict(feats) &#8594; &#48660;&#47336; &#49849;&#47456; &#183; &#49849;&#47532;&#50836;&#51064; 5 &#183; &#44221;&#44256;</text><line style="stroke:#000000;stroke-width:1.5;" x1="2594.25" x2="2594.25" y1="50.042" y2="2436.5806"/><line style="stroke:#000000;stroke-width:1.5;" x1="2920.75" x2="2920.75" y1="50.042" y2="2436.5806"/><line style="stroke:#181818;stroke-width:1.0;" x1="174.5" x2="174.5" y1="95.9951" y2="115.9951"/><polygon fill="#181818" points="170.5,105.9951,174.5,115.9951,178.5,105.9951,174.5,109.9951" style="stroke:#181818;stroke-width:1.0;"/><line style="stroke:#181818;stroke-width:1.0;" x1="174.5" x2="174.5" y1="2394.5806" y2="2414.5806"/><polygon fill="#181818" points="170.5,2404.5806,174.5,2414.5806,178.5,2404.5806,174.5,2408.5806" style="stroke:#181818;stroke-width:1.0;"/><line style="stroke:#181818;stroke-width:1.0;" x1="794.5" x2="794.5" y1="252.335" y2="280.8506"/><polygon fill="#181818" points="790.5,270.8506,794.5,280.8506,798.5,270.8506,794.5,274.8506" style="stroke:#181818;stroke-width:1.0;"/><line style="stroke:#181818;stroke-width:1.0;" x1="794.5" x2="794.5" y1="193.9639" y2="218.3662"/><polygon fill="#181818" points="790.5,208.3662,794.5,218.3662,798.5,208.3662,794.5,212.3662" style="stroke:#181818;stroke-width:1.0;"/><line style="stroke:#181818;stroke-width:1.0;" x1="850" x2="925.5" y1="181.9639" y2="181.9639"/><polygon fill="#181818" points="921.5,250.8506,925.5,260.8506,929.5,250.8506,925.5,254.8506" style="stroke:#181818;stroke-width:1.0;"/><line style="stroke:#181818;stroke-width:1.0;" x1="925.5" x2="925.5" y1="181.9639" y2="324.8506"/><line style="stroke:#181818;stroke-width:1.0;" x1="925.5" x2="794.5" y1="324.8506" y2="324.8506"/><line style="stroke:#181818;stroke-width:1.0;" x1="794.5" x2="794.5" y1="324.8506" y2="344.8506"/><polygon fill="#181818" points="790.5,334.8506,794.5,344.8506,798.5,334.8506,794.5,338.8506" style="stroke:#181818;stroke-width:1.0;"/><line style="stroke:#181818;stroke-width:1.0;" x1="794.5" x2="794.5" y1="427.2217" y2="455.7373"/><polygon fill="#181818" points="790.5,445.7373,794.5,455.7373,798.5,445.7373,794.5,449.7373" style="stroke:#181818;stroke-width:1.0;"/><line style="stroke:#181818;stroke-width:1.0;" x1="794.5" x2="794.5" y1="368.8506" y2="393.2529"/><polygon fill="#181818" points="790.5,383.2529,794.5,393.2529,798.5,383.2529,794.5,387.2529" style="stroke:#181818;stroke-width:1.0;"/><line style="stroke:#181818;stroke-width:1.0;" x1="860" x2="872" y1="356.8506" y2="356.8506"/><polygon fill="#181818" points="868,425.7373,872,435.7373,876,425.7373,872,429.7373" style="stroke:#181818;stroke-width:1.0;"/><line style="stroke:#181818;stroke-width:1.0;" x1="872" x2="872" y1="356.8506" y2="499.7373"/><line style="stroke:#181818;stroke-width:1.0;" x1="872" x2="794.5" y1="499.7373" y2="499.7373"/><line style="stroke:#181818;stroke-width:1.0;" x1="794.5" x2="794.5" y1="499.7373" y2="519.7373"/><polygon fill="#181818" points="790.5,509.7373,794.5,519.7373,798.5,509.7373,794.5,513.7373" style="stroke:#181818;stroke-width:1.0;"/><line style="stroke:#181818;stroke-width:1.0;" x1="794.5" x2="794.5" y1="777.9834" y2="797.9834"/><polygon fill="#181818" points="790.5,787.9834,794.5,797.9834,798.5,787.9834,794.5,791.9834" style="stroke:#181818;stroke-width:1.0;"/><line style="stroke:#181818;stroke-width:1.0;" x1="735" x2="659.75" y1="927.9521" y2="927.9521"/><line style="stroke:#181818;stroke-width:1.0;" x1="659.75" x2="659.75" y1="927.9521" y2="959.9521"/><polygon fill="#181818" points="655.75,949.9521,659.75,959.9521,663.75,949.9521,659.75,953.9521" style="stroke:#181818;stroke-width:1.0;"/><line style="stroke:#181818;stroke-width:1.0;" x1="659.75" x2="659.75" y1="993.9209" y2="2018.8306"/><line style="stroke:#181818;stroke-width:1.0;" x1="659.75" x2="782.5" y1="2018.8306" y2="2018.8306"/><polygon fill="#181818" points="772.5,2014.8306,782.5,2018.8306,772.5,2022.8306,776.5,2018.8306" style="stroke:#181818;stroke-width:1.0;"/><line style="stroke:#181818;stroke-width:1.0;" x1="794.5" x2="794.5" y1="895.9521" y2="915.9521"/><polygon fill="#181818" points="790.5,905.9521,794.5,915.9521,798.5,905.9521,794.5,909.9521" style="stroke:#181818;stroke-width:1.0;"/><line style="stroke:#181818;stroke-width:1.0;" x1="515" x2="515" y1="2260.6431" y2="2280.6431"/><polygon fill="#181818" points="511,2270.6431,515,2280.6431,519,2270.6431,515,2274.6431" style="stroke:#181818;stroke-width:1.0;"/><line style="stroke:#181818;stroke-width:1.0;" x1="855.5" x2="855.5" y1="2260.6431" y2="2280.6431"/><polygon fill="#181818" points="851.5,2270.6431,855.5,2280.6431,859.5,2270.6431,855.5,2274.6431" style="stroke:#181818;stroke-width:1.0;"/><line style="stroke:#181818;stroke-width:1.0;" x1="1117" x2="1117" y1="2260.6431" y2="2280.6431"/><polygon fill="#181818" points="1113,2270.6431,1117,2280.6431,1121,2270.6431,1117,2274.6431" style="stroke:#181818;stroke-width:1.0;"/><line style="stroke:#181818;stroke-width:1.0;" x1="515" x2="515" y1="2314.6118" y2="2334.6118"/><polygon fill="#181818" points="511,2324.6118,515,2334.6118,519,2324.6118,515,2328.6118" style="stroke:#181818;stroke-width:1.0;"/><line style="stroke:#181818;stroke-width:1.0;" x1="855.5" x2="855.5" y1="2314.6118" y2="2334.6118"/><polygon fill="#181818" points="851.5,2324.6118,855.5,2334.6118,859.5,2324.6118,855.5,2328.6118" style="stroke:#181818;stroke-width:1.0;"/><line style="stroke:#181818;stroke-width:1.0;" x1="1117" x2="1117" y1="2314.6118" y2="2334.6118"/><polygon fill="#181818" points="1113,2324.6118,1117,2334.6118,1121,2324.6118,1117,2328.6118" style="stroke:#181818;stroke-width:1.0;"/><line style="stroke:#181818;stroke-width:1.0;" x1="1420" x2="1420" y1="665.6436" y2="690.0459"/><polygon fill="#181818" points="1416,680.0459,1420,690.0459,1424,680.0459,1420,684.0459" style="stroke:#181818;stroke-width:1.0;"/><line style="stroke:#181818;stroke-width:1.0;" x1="1468" x2="1480" y1="653.6436" y2="653.6436"/><polygon fill="#181818" points="1476,750.7646,1480,760.7646,1484,750.7646,1480,754.7646" style="stroke:#181818;stroke-width:1.0;"/><line style="stroke:#181818;stroke-width:1.0;" x1="1480" x2="1480" y1="653.6436" y2="846.9834"/><line style="stroke:#181818;stroke-width:1.0;" x1="1480" x2="794.5" y1="846.9834" y2="846.9834"/><line style="stroke:#181818;stroke-width:1.0;" x1="794.5" x2="794.5" y1="846.9834" y2="861.9834"/><polygon fill="#181818" points="790.5,851.9834,794.5,861.9834,798.5,851.9834,794.5,855.9834" style="stroke:#181818;stroke-width:1.0;"/><line style="stroke:#181818;stroke-width:1.0;" x1="1420" x2="1420" y1="621.6436" y2="641.6436"/><polygon fill="#181818" points="1416,631.6436,1420,641.6436,1424,631.6436,1420,635.6436" style="stroke:#181818;stroke-width:1.0;"/><line style="stroke:#181818;stroke-width:1.0;" x1="1554.75" x2="1554.75" y1="1150.2607" y2="1185.2607"/><polygon fill="#181818" points="1550.75,1175.2607,1554.75,1185.2607,1558.75,1175.2607,1554.75,1179.2607" style="stroke:#181818;stroke-width:1.0;"/><line style="stroke:#181818;stroke-width:1.0;" x1="1820.75" x2="1774.25" y1="1455.1743" y2="1455.1743"/><line style="stroke:#181818;stroke-width:1.0;" x1="1774.25" x2="1774.25" y1="1455.1743" y2="1487.1743"/><polygon fill="#181818" points="1770.25,1477.1743,1774.25,1487.1743,1778.25,1477.1743,1774.25,1481.1743" style="stroke:#181818;stroke-width:1.0;"/><line style="stroke:#181818;stroke-width:1.0;" x1="1922.75" x2="1969.25" y1="1455.1743" y2="1455.1743"/><line style="stroke:#181818;stroke-width:1.0;" x1="1969.25" x2="1969.25" y1="1455.1743" y2="1487.1743"/><polygon fill="#181818" points="1965.25,1477.1743,1969.25,1487.1743,1973.25,1477.1743,1969.25,1481.1743" style="stroke:#181818;stroke-width:1.0;"/><line style="stroke:#181818;stroke-width:1.0;" x1="1774.25" x2="1774.25" y1="1521.1431" y2="1786.9556"/><line style="stroke:#181818;stroke-width:1.0;" x1="1774.25" x2="1859.75" y1="1786.9556" y2="1786.9556"/><polygon fill="#181818" points="1849.75,1782.9556,1859.75,1786.9556,1849.75,1790.9556,1853.75,1786.9556" style="stroke:#181818;stroke-width:1.0;"/><line style="stroke:#181818;stroke-width:1.0;" x1="1969.25" x2="1969.25" y1="1764.9556" y2="1786.9556"/><line style="stroke:#181818;stroke-width:1.0;" x1="1969.25" x2="1883.75" y1="1786.9556" y2="1786.9556"/><polygon fill="#181818" points="1893.75,1782.9556,1883.75,1786.9556,1893.75,1790.9556,1889.75,1786.9556" style="stroke:#181818;stroke-width:1.0;"/><line style="stroke:#181818;stroke-width:1.0;" x1="1871.75" x2="1871.75" y1="1798.9556" y2="1808.9556"/><line style="stroke:#181818;stroke-width:1.0;" x1="1871.75" x2="2159.75" y1="1808.9556" y2="1808.9556"/><polygon fill="#181818" points="2155.75,1573.0454,2159.75,1563.0454,2163.75,1573.0454,2159.75,1569.0454" style="stroke:#181818;stroke-width:1.0;"/><line style="stroke:#181818;stroke-width:1.0;" x1="2159.75" x2="2159.75" y1="1315.2295" y2="1808.9556"/><line style="stroke:#181818;stroke-width:1.0;" x1="2159.75" x2="1939.75" y1="1315.2295" y2="1315.2295"/><polygon fill="#181818" points="1949.75,1311.2295,1939.75,1315.2295,1949.75,1319.2295,1945.75,1315.2295" style="stroke:#181818;stroke-width:1.0;"/><line style="stroke:#181818;stroke-width:1.0;" x1="1803.75" x2="1725.75" y1="1315.2295" y2="1315.2295"/><polygon fill="#181818" points="1721.75,1559.0454,1725.75,1569.0454,1729.75,1559.0454,1725.75,1563.0454" style="stroke:#181818;stroke-width:1.0;"/><line style="stroke:#181818;stroke-width:1.0;" x1="1725.75" x2="1725.75" y1="1315.2295" y2="1820.9556"/><line style="stroke:#181818;stroke-width:1.0;" x1="1725.75" x2="1871.75" y1="1820.9556" y2="1820.9556"/><line style="stroke:#181818;stroke-width:1.0;" x1="1871.75" x2="1871.75" y1="1820.9556" y2="1840.9556"/><polygon fill="#181818" points="1867.75,1830.9556,1871.75,1840.9556,1875.75,1830.9556,1871.75,1834.9556" style="stroke:#181818;stroke-width:1.0;"/><line style="stroke:#181818;stroke-width:1.0;" x1="2406.75" x2="2418.75" y1="1079.8896" y2="1079.8896"/><polygon fill="#181818" points="2414.75,1157.5264,2418.75,1167.5264,2422.75,1157.5264,2418.75,1161.5264" style="stroke:#181818;stroke-width:1.0;"/><line style="stroke:#181818;stroke-width:1.0;" x1="2418.75" x2="2418.75" y1="1079.8896" y2="1234.2607"/><line style="stroke:#181818;stroke-width:1.0;" x1="2418.75" x2="1554.75" y1="1234.2607" y2="1234.2607"/><line style="stroke:#181818;stroke-width:1.0;" x1="1554.75" x2="1554.75" y1="1234.2607" y2="1249.2607"/><polygon fill="#181818" points="1550.75,1239.2607,1554.75,1249.2607,1558.75,1239.2607,1554.75,1243.2607" style="stroke:#181818;stroke-width:1.0;"/><line style="stroke:#181818;stroke-width:1.0;" x1="2313.25" x2="2313.25" y1="1047.8896" y2="1067.8896"/><polygon fill="#181818" points="2309.25,1057.8896,2313.25,1067.8896,2317.25,1057.8896,2313.25,1061.8896" style="stroke:#181818;stroke-width:1.0;"/><line style="stroke:#181818;stroke-width:1.0;" x1="174.5" x2="174.5" y1="149.9639" y2="154.9639"/><line style="stroke:#181818;stroke-width:1.0;" x1="174.5" x2="794.5" y1="154.9639" y2="154.9639"/><line style="stroke:#181818;stroke-width:1.0;" x1="794.5" x2="794.5" y1="154.9639" y2="169.9639"/><polygon fill="#181818" points="790.5,159.9639,794.5,169.9639,798.5,159.9639,794.5,163.9639" style="stroke:#181818;stroke-width:1.0;"/><line style="stroke:#181818;stroke-width:1.0;" x1="794.5" x2="794.5" y1="567.6748" y2="572.6748"/><line style="stroke:#181818;stroke-width:1.0;" x1="794.5" x2="1420" y1="572.6748" y2="572.6748"/><line style="stroke:#181818;stroke-width:1.0;" x1="1420" x2="1420" y1="572.6748" y2="587.6748"/><polygon fill="#181818" points="1416,577.6748,1420,587.6748,1424,577.6748,1420,581.6748" style="stroke:#181818;stroke-width:1.0;"/><line style="stroke:#181818;stroke-width:1.0;" x1="1420" x2="1420" y1="724.0146" y2="729.0146"/><line style="stroke:#181818;stroke-width:1.0;" x1="1420" x2="794.5" y1="729.0146" y2="729.0146"/><line style="stroke:#181818;stroke-width:1.0;" x1="794.5" x2="794.5" y1="729.0146" y2="744.0146"/><polygon fill="#181818" points="790.5,734.0146,794.5,744.0146,798.5,734.0146,794.5,738.0146" style="stroke:#181818;stroke-width:1.0;"/><line style="stroke:#181818;stroke-width:1.0;" x1="1871.75" x2="1871.75" y1="993.9209" y2="998.9209"/><line style="stroke:#181818;stroke-width:1.0;" x1="1871.75" x2="2313.25" y1="998.9209" y2="998.9209"/><line style="stroke:#181818;stroke-width:1.0;" x1="2313.25" x2="2313.25" y1="998.9209" y2="1013.9209"/><polygon fill="#181818" points="2309.25,1003.9209,2313.25,1013.9209,2317.25,1003.9209,2313.25,1007.9209" style="stroke:#181818;stroke-width:1.0;"/><line style="stroke:#181818;stroke-width:1.0;" x1="2313.25" x2="2313.25" y1="1091.8896" y2="1104.0908"/><line style="stroke:#181818;stroke-width:1.0;" x1="2313.25" x2="1554.75" y1="1104.0908" y2="1104.0908"/><line style="stroke:#181818;stroke-width:1.0;" x1="1554.75" x2="1554.75" y1="1104.0908" y2="1116.292"/><polygon fill="#181818" points="1550.75,1106.292,1554.75,1116.292,1558.75,1106.292,1554.75,1110.292" style="stroke:#181818;stroke-width:1.0;"/><line style="stroke:#181818;stroke-width:1.0;" x1="1969.25" x2="1969.25" y1="1521.1431" y2="1526.1431"/><line style="stroke:#181818;stroke-width:1.0;" x1="1969.25" x2="2410.75" y1="1526.1431" y2="1526.1431"/><line style="stroke:#181818;stroke-width:1.0;" x1="2410.75" x2="2410.75" y1="1526.1431" y2="1541.1431"/><polygon fill="#181818" points="2406.75,1531.1431,2410.75,1541.1431,2414.75,1531.1431,2410.75,1535.1431" style="stroke:#181818;stroke-width:1.0;"/><line style="stroke:#181818;stroke-width:1.0;" x1="2410.75" x2="2410.75" y1="1575.1118" y2="1580.1118"/><line style="stroke:#181818;stroke-width:1.0;" x1="2410.75" x2="1969.25" y1="1580.1118" y2="1580.1118"/><line style="stroke:#181818;stroke-width:1.0;" x1="1969.25" x2="1969.25" y1="1580.1118" y2="1595.1118"/><polygon fill="#181818" points="1965.25,1585.1118,1969.25,1595.1118,1973.25,1585.1118,1969.25,1589.1118" style="stroke:#181818;stroke-width:1.0;"/><line style="stroke:#181818;stroke-width:1.0;" x1="1969.25" x2="1969.25" y1="1643.0493" y2="1648.0493"/><line style="stroke:#181818;stroke-width:1.0;" x1="1969.25" x2="2737.25" y1="1648.0493" y2="1648.0493"/><line style="stroke:#181818;stroke-width:1.0;" x1="2737.25" x2="2737.25" y1="1648.0493" y2="1663.0493"/><polygon fill="#181818" points="2733.25,1653.0493,2737.25,1663.0493,2741.25,1653.0493,2737.25,1657.0493" style="stroke:#181818;stroke-width:1.0;"/><line style="stroke:#181818;stroke-width:1.0;" x1="2737.25" x2="2737.25" y1="1697.0181" y2="1702.0181"/><line style="stroke:#181818;stroke-width:1.0;" x1="2737.25" x2="1969.25" y1="1702.0181" y2="1702.0181"/><line style="stroke:#181818;stroke-width:1.0;" x1="1969.25" x2="1969.25" y1="1702.0181" y2="1717.0181"/><polygon fill="#181818" points="1965.25,1707.0181,1969.25,1717.0181,1973.25,1707.0181,1969.25,1711.0181" style="stroke:#181818;stroke-width:1.0;"/><line style="stroke:#181818;stroke-width:1.0;" x1="2313.25" x2="2313.25" y1="1392.9087" y2="1405.5415"/><line style="stroke:#181818;stroke-width:1.0;" x1="2313.25" x2="1871.75" y1="1405.5415" y2="1405.5415"/><line style="stroke:#181818;stroke-width:1.0;" x1="1871.75" x2="1871.75" y1="1405.5415" y2="1443.1743"/><polygon fill="#181818" points="1867.75,1433.1743,1871.75,1443.1743,1875.75,1433.1743,1871.75,1437.1743" style="stroke:#181818;stroke-width:1.0;"/><line style="stroke:#181818;stroke-width:1.0;" x1="1871.75" x2="1871.75" y1="1327.2295" y2="1343.9399"/><line style="stroke:#181818;stroke-width:1.0;" x1="1871.75" x2="2313.25" y1="1343.9399" y2="1343.9399"/><line style="stroke:#181818;stroke-width:1.0;" x1="2313.25" x2="2313.25" y1="1343.9399" y2="1358.9399"/><polygon fill="#181818" points="2309.25,1348.9399,2313.25,1358.9399,2317.25,1348.9399,2313.25,1352.9399" style="stroke:#181818;stroke-width:1.0;"/><line style="stroke:#181818;stroke-width:1.0;" x1="1554.75" x2="1554.75" y1="1283.2295" y2="1288.2295"/><line style="stroke:#181818;stroke-width:1.0;" x1="1554.75" x2="1871.75" y1="1288.2295" y2="1288.2295"/><line style="stroke:#181818;stroke-width:1.0;" x1="1871.75" x2="1871.75" y1="1288.2295" y2="1303.2295"/><polygon fill="#181818" points="1867.75,1293.2295,1871.75,1303.2295,1875.75,1293.2295,1871.75,1297.2295" style="stroke:#181818;stroke-width:1.0;"/><line style="stroke:#181818;stroke-width:1.0;" x1="1871.75" x2="1871.75" y1="1888.8931" y2="1893.8931"/><line style="stroke:#181818;stroke-width:1.0;" x1="1871.75" x2="2313.25" y1="1893.8931" y2="1893.8931"/><line style="stroke:#181818;stroke-width:1.0;" x1="2313.25" x2="2313.25" y1="1893.8931" y2="1908.8931"/><polygon fill="#181818" points="2309.25,1898.8931,2313.25,1908.8931,2317.25,1898.8931,2313.25,1902.8931" style="stroke:#181818;stroke-width:1.0;"/><line style="stroke:#181818;stroke-width:1.0;" x1="2313.25" x2="2313.25" y1="1942.8618" y2="1947.8618"/><line style="stroke:#181818;stroke-width:1.0;" x1="2313.25" x2="1554.75" y1="1947.8618" y2="1947.8618"/><line style="stroke:#181818;stroke-width:1.0;" x1="1554.75" x2="1554.75" y1="1947.8618" y2="1962.8618"/><polygon fill="#181818" points="1550.75,1952.8618,1554.75,1962.8618,1558.75,1952.8618,1554.75,1956.8618" style="stroke:#181818;stroke-width:1.0;"/><line style="stroke:#181818;stroke-width:1.0;" x1="854" x2="1871.75" y1="927.9521" y2="927.9521"/><line style="stroke:#181818;stroke-width:1.0;" x1="1871.75" x2="1871.75" y1="927.9521" y2="959.9521"/><polygon fill="#181818" points="1867.75,949.9521,1871.75,959.9521,1875.75,949.9521,1871.75,953.9521" style="stroke:#181818;stroke-width:1.0;"/><line style="stroke:#181818;stroke-width:1.0;" x1="1554.75" x2="1554.75" y1="1996.8306" y2="2018.8306"/><line style="stroke:#181818;stroke-width:1.0;" x1="1554.75" x2="806.5" y1="2018.8306" y2="2018.8306"/><polygon fill="#181818" points="816.5,2014.8306,806.5,2018.8306,816.5,2022.8306,812.5,2018.8306" style="stroke:#181818;stroke-width:1.0;"/><line style="stroke:#181818;stroke-width:1.0;" x1="794.5" x2="794.5" y1="2030.8306" y2="2035.8306"/><line style="stroke:#181818;stroke-width:1.0;" x1="794.5" x2="1420" y1="2035.8306" y2="2035.8306"/><line style="stroke:#181818;stroke-width:1.0;" x1="1420" x2="1420" y1="2035.8306" y2="2050.8306"/><polygon fill="#181818" points="1416,2040.8306,1420,2050.8306,1424,2040.8306,1420,2044.8306" style="stroke:#181818;stroke-width:1.0;"/><line style="stroke:#181818;stroke-width:1.0;" x1="1420" x2="1420" y1="2098.7681" y2="2103.7681"/><line style="stroke:#181818;stroke-width:1.0;" x1="1420" x2="794.5" y1="2103.7681" y2="2103.7681"/><line style="stroke:#181818;stroke-width:1.0;" x1="794.5" x2="794.5" y1="2103.7681" y2="2118.7681"/><polygon fill="#181818" points="790.5,2108.7681,794.5,2118.7681,798.5,2108.7681,794.5,2112.7681" style="stroke:#181818;stroke-width:1.0;"/><line style="stroke:#181818;stroke-width:1.0;" x1="794.5" x2="794.5" y1="2180.6743" y2="2185.6743"/><line style="stroke:#181818;stroke-width:1.0;" x1="794.5" x2="174.5" y1="2185.6743" y2="2185.6743"/><line style="stroke:#181818;stroke-width:1.0;" x1="174.5" x2="174.5" y1="2185.6743" y2="2200.6743"/><polygon fill="#181818" points="170.5,2190.6743,174.5,2200.6743,178.5,2190.6743,174.5,2194.6743" style="stroke:#181818;stroke-width:1.0;"/><line style="stroke:#181818;stroke-width:1.0;" x1="174.5" x2="174.5" y1="2234.6431" y2="2239.6431"/><line style="stroke:#181818;stroke-width:1.0;" x1="174.5" x2="794.5" y1="2239.6431" y2="2239.6431"/><line style="stroke:#181818;stroke-width:1.0;" x1="794.5" x2="794.5" y1="2239.6431" y2="2254.6431"/><polygon fill="#181818" points="790.5,2244.6431,794.5,2254.6431,798.5,2244.6431,794.5,2248.6431" style="stroke:#181818;stroke-width:1.0;"/><line style="stroke:#181818;stroke-width:1.0;" x1="794.5" x2="794.5" y1="2340.6118" y2="2345.6118"/><line style="stroke:#181818;stroke-width:1.0;" x1="794.5" x2="174.5" y1="2345.6118" y2="2345.6118"/><line style="stroke:#181818;stroke-width:1.0;" x1="174.5" x2="174.5" y1="2345.6118" y2="2360.6118"/><polygon fill="#181818" points="170.5,2350.6118,174.5,2360.6118,178.5,2350.6118,174.5,2354.6118" style="stroke:#181818;stroke-width:1.0;"/><text fill="#000000" font-family="sans-serif" font-size="18" lengthAdjust="spacing" textLength="74" x="136.5" y="66.75">&#47021;&#53356; &#50976;&#51200;</text><text fill="#000000" font-family="sans-serif" font-size="18" lengthAdjust="spacing" textLength="108" x="730.5" y="66.75">&#48652;&#46972;&#50864;&#51200; &#54868;&#47732;</text><text fill="#000000" font-family="sans-serif" font-size="18" lengthAdjust="spacing" textLength="186" x="1378.875" y="66.75">&#48177;&#50644;&#46300; api_summoner</text><text fill="#000000" font-family="sans-serif" font-size="18" lengthAdjust="spacing" textLength="133" x="1876.25" y="66.75">analyze_recent</text><text fill="#000000" font-family="sans-serif" font-size="18" lengthAdjust="spacing" textLength="137" x="2318" y="66.75">Riot Games API</text><text fill="#000000" font-family="sans-serif" font-size="18" lengthAdjust="spacing" textLength="121" x="2697" y="66.75">lolwin.predict</text><!--SRC=[XLRVJnfP57wVl-A4la0sKb3ijfXcOwlTT1_QfZyUzebCOSI9EECEWrqtfa6b3GgxnHOi6Z2OehLRpA9YnLrzwP_IH-wT_s7FkJC2Bf3rmPdXtdFkET_tdNDkV4RLvcH3deNdSdWcQkW9BN9NZ-a6NBitSiy_UKUAjtV4f-M8_aBLeZ0bn-9Aryfus5JdLNFXJeyFyTTdvuGgp-fQf9_1pKb_by43tLJwxPguDogPgXbJO7nYo3S2p-wE07-TjJQBVBa6_AJKEZs7rj55gra7Tdo2Zw-dLZR7AmNubim3NrdYgIRmmewLgREp5FwNf4MsVM0jeNMfmYl9HIbkoeOf1VrUSDa_0Q-aU6K9s9SKJvLTw3_9LrPv_OA_p-57bc-ds9-lhbahU3ewttx5AhlmzHHSZi4O7j7Cil8vtwgJEsipppur5YLr2jo6gfiXGv4Z2y3BpLOz-OC7p6b50pSlf5WcpOjLZmGGR9y95FPcYQSExOmo9RwzZg6bqHRSbFD9ZQtb4Hb_m3E6fd5JdvCKP0vT5jCUIT4YwfGustNDXOSsm7fJimhxxCqvnfv6sxvHYDCcXqKmLh70CsM4CSsMqNozX54CFYheki8Bspq7lm-X4R5NShnqpdPAm7B5LZr7aVFg-hVa7l1qaMSEW3VIq3fiihqBZ8DbgYu9aNtqyCbJk2xFgTVZYLbKb68uIAeH0ZwCeZ5lZzAh8FEspqCSr0_v-pnxLm8q35qQBah1OIyyll_mQUZnvFZ4pyXE0PaO4mXPorNWxr_pSfPyiOzPzY7RWQQOja7n2r16KOwylCuo9mH5VyPn6qB9Tel0QaqaQW1s7UOT14UyTaxWV-dtjTC27z67caQfDqZYkC3_pg53u3jrQojh9p4gi2waURa8hVecBwEWj_BywA0dat4x4zj7g_uMiAZurYTmX-Nmj1A1ss0Q2GMnx8aJ4vOrERRmcu9Y3YkQAN8D8B382joVW6-lttPAXG9rgWLZOtirWPZO-gCygyHX_D5zuK0EYxI7vlt2mLmYeKPeBwNLEavHpWuz0Ly0M57eXqWB-FnVJmE-aLwoHkZmoG25J2mDq0Gj1WC-twNFg-GwR07qmS5c3ArdPJCyFJG_YlqfZmAtcupRMif1ODZd-K-lGjtQ1BVgGWrzq7mnhMBRSxFbVMAmOqTrtrstQjofFf5WBwWaLI-qetCSsPtHJgxFuJRaVZz9YVtLn4fm37i17hLFffvrs62fD2ibRRTzm1BRM3FFFkoB0gkaYGfUfqR8jtF0FwvRXKzYwRY9LGbMDjakKDkyRuRTy5ihIL8TrcANKRyCqUY6rsbDLZw5mQ0TV0U-bqwxAZVOKTLQQmej-aUGAWnrNtJG_3a_AZfUCDhMyJucWelG-bAbqK4bIpCqDAjg2LEXxvYiYIS_-WpK59fPNYcZztQCCJs69juvGuceuKwCphTxIf7Dk4V4uY38ryxORaNunBUz6bKvOYRw8B5rNFc__6sKAIER2cnQ17V7gvNT1_QsYhmWzuuLHJ2l61HKI9y2PzpY_kUo5h6RrK9CSJJWL0S-7JrVqOE6OnyCDJfjYjryey7MSdOFiOfD_gL47BohO0NT0egDxwsARbV5ojoNBeEXrU_0K4nZ8IHFcJGS9cyujIcEeFBytWjKxhAn86HhHysEKpXi6ZXwA6vvFXf21a9pXluyvFSXTP9WTrQFAB5GM3SGFPD-c5Dm-7HIfHT3ZiZ69Ss3sbjCaQC9PMW-uFHhaZnUIJ1jn2LJ9R0fFIqHYzcrTTDZpvQ1NSlftNGnmRd3jtVjzayjsvuaDxqmZ6tjfoSF7rmPcRyab8GJk3P3pwY8b5AoKPBQKmTVDELNCzJ-igU3Pz0r9tZBA-fffsGLKcudFxlQYSxVy-93r2UWgdWroLCLZvWHjfIeWildGe6fGsjZL-XzfomviiRkPMsiklbXdifmezbbIJjEQgrwYjwSAcuNIQkUPdjrca0USZLADgXyR3tiNPagcnJckhpxOPWuPV4m5xZ7XqMoLw-DGR_F2wr6acTgtM5PM3JRQHnJ1-W96VM0zSSvFolY-Y30fdHZHd3PNSNiuoh3vZUWkL1Vn4pfLkYUa4qP9WmvgcjqUyBEZj6IJv2Zij1myDdTuQuxL5X70i7jrB1p7KG2FgjQE9Q8A5__wRKFTDcJP50gdr4Kg3BQJOKcikW1gKCClyZpimCHl904tGjv-GBd6DxonYIQiFy2]--></g></svg>