<?xml version="1.0" encoding="us-ascii" standalone="no"?><svg xmlns="http://www.w3.org/2000/svg" xmlns:xlink="http://www.w3.org/1999/xlink" contentStyleType="text/css" height="1401px" preserveAspectRatio="none" style="width:2224px;height:1401px;background:#F3F1EB;" version="1.1" viewBox="0 0 2224 1401" width="2224px" zoomAndPan="magnify"><defs/><g><rect fill="#F3F1EB" height="1401" style="stroke:none;stroke-width:1.0;" width="2224" x="0" y="0"/><text fill="#000000" font-family="sans-serif" font-size="14" font-weight="bold" lengthAdjust="spacing" textLength="240" x="990.75" y="32.9951">AD-14 UC14 Riot API &#53412; &#44081;&#49888;&#183;&#44160;&#51613;</text><rect fill="none" height="20.9531" style="stroke:none;stroke-width:1.0;" width="2191.5" x="15" y="50.042"/><ellipse cx="204.5" cy="85.9951" fill="#222222" rx="10" ry="10" style="stroke:#222222;stroke-width:1.0;"/><rect fill="#F1F1F1" height="33.9688" rx="12.5" ry="12.5" style="stroke:#181818;stroke-width:0.5;" width="367" x="21" y="115.9951"/><text fill="#000000" font-family="sans-serif" font-size="12" lengthAdjust="spacing" textLength="347" x="31" y="137.1338">developer.riotgames.com &#47196;&#44536;&#51064; &#8594; &#44060;&#48156;&#50857; &#53412; REGENERATE</text><rect fill="#F1F1F1" height="33.9688" rx="12.5" ry="12.5" style="stroke:#181818;stroke-width:0.5;" width="212" x="98.5" y="223.9326"/><text fill="#000000" font-family="sans-serif" font-size="12" lengthAdjust="spacing" textLength="192" x="108.5" y="245.0713">&#54016; &#49436;&#48260; .env &#50640; RIOT_API_KEY &#44592;&#47197;</text><rect fill="#F1F1F1" height="33.9688" rx="12.5" ry="12.5" style="stroke:#181818;stroke-width:0.5;" width="260" x="74.5" y="326.3037"/><text fill="#000000" font-family="sans-serif" font-size="12" lengthAdjust="spacing" textLength="240" x="84.5" y="347.4424">&#51228;&#44144; &#54980; &#53412; &#47924;&#54952;&#54868; [&#52628;&#47200;] REGENERATE (E5)</text><polygon fill="#F1F1F1" points="140.5,277.9014,268.5,277.9014,280.5,289.9014,268.5,301.9014,140.5,301.9014,128.5,289.9014,140.5,277.9014" style="stroke:#181818;stroke-width:0.5;"/><text fill="#000000" font-family="sans-serif" font-size="11" lengthAdjust="spacing" textLength="10" x="208.5" y="312.1118">&#50696;</text><text fill="#000000" font-family="sans-serif" font-size="12" lengthAdjust="spacing" textLength="128" x="140.5" y="294.0557">&#45796;&#47480; &#54028;&#51068;&#183;&#52964;&#48139;&#50640; &#45347;&#50632;&#45208;?</text><text fill="#000000" font-family="sans-serif" font-size="11" lengthAdjust="spacing" textLength="30" x="280.5" y="287.3071">&#50500;&#45768;&#50724;</text><polygon fill="#F1F1F1" points="204.5,380.2725,216.5,392.2725,204.5,404.2725,192.5,392.2725,204.5,380.2725" style="stroke:#181818;stroke-width:0.5;"/><rect fill="#F1F1F1" height="33.9688" rx="12.5" ry="12.5" style="stroke:#181818;stroke-width:0.5;" width="181" x="114" y="424.2725"/><text fill="#000000" font-family="sans-serif" font-size="12" lengthAdjust="spacing" textLength="161" x="124" y="445.4111">./check_project.sh restart</text><rect fill="#F1F1F1" height="33.9688" rx="12.5" ry="12.5" style="stroke:#181818;stroke-width:0.5;" width="287" x="61" y="1000.2451"/><text fill="#000000" font-family="sans-serif" font-size="12" lengthAdjust="spacing" textLength="267" x="71" y="1021.3838">curl localhost:9524/api/health &#8594; riot_ready</text><rect fill="#F1F1F1" height="33.9688" rx="12.5" ry="12.5" style="stroke:#181818;stroke-width:0.5;" width="146" x="131.5" y="1102.6162"/><text fill="#000000" font-family="sans-serif" font-size="12" lengthAdjust="spacing" textLength="126" x="141.5" y="1123.7549">&#53412; &#51116;&#48156;&#44553;&#48512;&#53552; &#48152;&#48373; (E3)</text><ellipse cx="204.5" cy="1176.5693" fill="none" rx="11" ry="11" style="stroke:#222222;stroke-width:1.0;"/><ellipse cx="204.5" cy="1176.5693" fill="#222222" rx="6" ry="6" style="stroke:#222222;stroke-width:1.0;"/><polygon fill="#F1F1F1" points="188.5,1054.2139,220.5,1054.2139,232.5,1066.2139,220.5,1078.2139,188.5,1078.2139,176.5,1066.2139,188.5,1054.2139" style="stroke:#181818;stroke-width:0.5;"/><text fill="#000000" font-family="sans-serif" font-size="11" lengthAdjust="spacing" textLength="30" x="208.5" y="1088.4243">&#50500;&#45768;&#50724;</text><text fill="#000000" font-family="sans-serif" font-size="12" lengthAdjust="spacing" textLength="32" x="188.5" y="1070.3682">true?</text><text fill="#000000" font-family="sans-serif" font-size="11" lengthAdjust="spacing" textLength="10" x="232.5" y="1063.6196">&#50696;</text><rect fill="#F1F1F1" height="33.9688" rx="12.5" ry="12.5" style="stroke:#181818;stroke-width:0.5;" width="205" x="102" y="1297.5068"/><text fill="#000000" font-family="sans-serif" font-size="12" lengthAdjust="spacing" textLength="185" x="112" y="1318.6455">&#44277;&#44060; &#51452;&#49548;&#50640;&#49436; &#49548;&#54872;&#49324; &#44160;&#49353; &#50676;&#47548; &#54869;&#51064;</text><path d="M235.5,1341.4756 L235.5,1361.6826 L215.5,1365.6826 L235.5,1369.6826 L235.5,1389.8896 A0,0 0 0 0 235.5,1389.8896 L520.5,1389.8896 A0,0 0 0 0 520.5,1389.8896 L520.5,1351.4756 L510.5,1341.4756 L235.5,1341.4756 A0,0 0 0 0 235.5,1341.4756 " fill="#FEFFDD" style="stroke:#181818;stroke-width:0.5;"/><path d="M510.5,1341.4756 L510.5,1351.4756 L520.5,1351.4756 L510.5,1341.4756 " fill="#FEFFDD" style="stroke:#181818;stroke-width:0.5;"/><text fill="#000000" font-family="sans-serif" font-size="11" lengthAdjust="spacing" textLength="264" x="241.5" y="1356.686">A2 &#53412; &#50630;&#51060; &#50868;&#50689;: &#49548;&#54872;&#49324; &#44160;&#49353;&#47564; &#44732;&#51648;&#44256; &#45208;&#47672;&#51648; &#51204;&#48512; &#46041;&#51089;</text><text fill="#000000" font-family="sans-serif" font-size="11" lengthAdjust="spacing" textLength="216" x="241.5" y="1369.4907">A3 &#49352; &#49436;&#48260; &#52376;&#51020; &#54620; &#48264; (.env.example &#48373;&#49324;)</text><text fill="#000000" font-family="sans-serif" font-size="11" lengthAdjust="spacing" textLength="260" x="241.5" y="1382.2954">E6 &#50715; &#48260;&#51204; &#49436;&#48260;&#45716; &#51453;&#51008; &#53412;&#47484; &#47803; &#44152;&#47084;&#45252; &#8594; deploy &#54596;&#50836;</text><ellipse cx="204.5" cy="1365.6826" fill="none" rx="11" ry="11" style="stroke:#222222;stroke-width:1.0;"/><ellipse cx="204.5" cy="1365.6826" fill="#222222" rx="6" ry="6" style="stroke:#222222;stroke-width:1.0;"/><line style="stroke:#000000;stroke-width:1.5;" x1="15" x2="15" y1="50.042" y2="1389.8896"/><rect fill="#F1F1F1" height="33.9688" rx="12.5" ry="12.5" style="stroke:#181818;stroke-width:0.5;" width="328" x="531.5" y="169.9639"/><text fill="#000000" font-family="sans-serif" font-size="12" lengthAdjust="spacing" textLength="308" x="541.5" y="191.1025">24&#49884;&#44036; &#50976;&#54952;&#54620; &#49352; &#53412; &#48156;&#44553; (A1 Personal Key &#49888;&#52397;&#51008; &#48324;&#46020;)</text><line style="stroke:#000000;stroke-width:1.5;" x1="525.5" x2="525.5" y1="50.042" y2="1389.8896"/><rect fill="#F1F1F1" height="33.9688" rx="12.5" ry="12.5" style="stroke:#181818;stroke-width:0.5;" width="170" x="869.5" y="478.2412"/><text fill="#000000" font-family="sans-serif" font-size="12" lengthAdjust="spacing" textLength="150" x="879.5" y="499.3799">.env &#8594; &#54872;&#44221;&#48320;&#49688; (&#44050; &#48120;&#52636;&#47141;)</text><rect fill="#F1F1F1" height="33.9688" rx="12.5" ry="12.5" style="stroke:#181818;stroke-width:0.5;" width="165" x="872" y="532.21"/><text fill="#000000" font-family="sans-serif" font-size="12" lengthAdjust="spacing" textLength="145" x="882" y="553.3486">&#48177;&#50644;&#46300; &#183; &#54532;&#47088;&#53944; &#51473;&#51648; &#54980; &#44592;&#46041;</text><rect fill="#F1F1F1" height="33.9688" rx="12.5" ry="12.5" style="stroke:#181818;stroke-width:0.5;" width="102" x="903.5" y="634.5811"/><text fill="#000000" font-family="sans-serif" font-size="12" lengthAdjust="spacing" textLength="82" x="913.5" y="655.7197">logs &#54869;&#51064; (E4)</text><ellipse cx="954.5" cy="708.5342" fill="none" rx="11" ry="11" style="stroke:#222222;stroke-width:1.0;"/><ellipse cx="954.5" cy="708.5342" fill="#222222" rx="6" ry="6" style="stroke:#222222;stroke-width:1.0;"/><polygon fill="#F1F1F1" points="927.5,586.1787,981.5,586.1787,993.5,598.1787,981.5,610.1787,927.5,610.1787,915.5,598.1787,927.5,586.1787" style="stroke:#181818;stroke-width:0.5;"/><text fill="#000000" font-family="sans-serif" font-size="11" lengthAdjust="spacing" textLength="10" x="958.5" y="620.3892">&#50696;</text><text fill="#000000" font-family="sans-serif" font-size="12" lengthAdjust="spacing" textLength="54" x="927.5" y="602.333">&#44592;&#46041; &#49892;&#54056;?</text><text fill="#000000" font-family="sans-serif" font-size="11" lengthAdjust="spacing" textLength="30" x="993.5" y="595.5845">&#50500;&#45768;&#50724;</text><line style="stroke:#000000;stroke-width:1.5;" x1="863.5" x2="863.5" y1="50.042" y2="1389.8896"/><rect fill="#F1F1F1" height="33.9688" rx="12.5" ry="12.5" style="stroke:#181818;stroke-width:0.5;" width="202" x="1291.5" y="761.5342"/><text fill="#000000" font-family="sans-serif" font-size="12" lengthAdjust="spacing" textLength="182" x="1301.5" y="782.6729">import &#49884; riot_api.key_works()</text><polygon fill="#F1F1F1" points="1104,869.4717,1132,869.4717,1144,881.4717,1132,893.4717,1104,893.4717,1092,881.4717,1104,869.4717" style="stroke:#181818;stroke-width:0.5;"/><text fill="#000000" font-family="sans-serif" font-size="11" lengthAdjust="spacing" textLength="21" x="1122" y="903.6821">200</text><text fill="#000000" font-family="sans-serif" font-size="12" lengthAdjust="spacing" textLength="28" x="1104" y="885.626">&#51025;&#45813;?</text><rect fill="#F1F1F1" height="33.9688" rx="12.5" ry="12.5" style="stroke:#181818;stroke-width:0.5;" width="137" x="1049.5" y="926.2764"/><text fill="#000000" font-family="sans-serif" font-size="12" lengthAdjust="spacing" textLength="117" x="1059.5" y="947.415">RIOT_READY = true</text><polygon fill="#F1F1F1" points="1268,869.4717,1292,869.4717,1304,881.4717,1292,893.4717,1268,893.4717,1256,881.4717,1268,869.4717" style="stroke:#181818;stroke-width:0.5;"/><text fill="#000000" font-family="sans-serif" font-size="12" lengthAdjust="spacing" textLength="24" x="1268" y="885.626">429</text><rect fill="#F1F1F1" height="33.9688" rx="12.5" ry="12.5" style="stroke:#181818;stroke-width:0.5;" width="167" x="1196.5" y="913.4717"/><text fill="#000000" font-family="sans-serif" font-size="12" lengthAdjust="spacing" textLength="147" x="1206.5" y="934.6104">RIOT_READY = true (A4)</text><polygon fill="#F1F1F1" points="1443,869.4717,1495,869.4717,1507,881.4717,1495,893.4717,1443,893.4717,1431,881.4717,1443,869.4717" style="stroke:#181818;stroke-width:0.5;"/><text fill="#000000" font-family="sans-serif" font-size="12" lengthAdjust="spacing" textLength="52" x="1443" y="885.626">401/403</text><text fill="#000000" font-family="sans-serif" font-size="11" lengthAdjust="spacing" textLength="72" x="1507" y="878.8774">&#53440;&#51076;&#50500;&#50883; &#183; &#50696;&#50808;</text><rect fill="#F1F1F1" height="33.9688" rx="12.5" ry="12.5" style="stroke:#181818;stroke-width:0.5;" width="171" x="1383.5" y="913.4717"/><text fill="#000000" font-family="sans-serif" font-size="12" lengthAdjust="spacing" textLength="151" x="1393.5" y="934.6104">RIOT_READY = false (E1)</text><rect fill="#F1F1F1" height="33.9688" rx="12.5" ry="12.5" style="stroke:#181818;stroke-width:0.5;" width="171" x="1574.5" y="922.874"/><text fill="#000000" font-family="sans-serif" font-size="12" lengthAdjust="spacing" textLength="151" x="1584.5" y="944.0127">RIOT_READY = false (E2)</text><line style="stroke:#000000;stroke-width:1.5;" x1="1043.5" x2="1043.5" y1="50.042" y2="1389.8896"/><rect fill="#F1F1F1" height="33.9688" rx="12.5" ry="12.5" style="stroke:#181818;stroke-width:0.5;" width="214" x="1755.5" y="815.5029"/><text fill="#000000" font-family="sans-serif" font-size="12" lengthAdjust="spacing" textLength="194" x="1765.5" y="836.6416">GET platform-data (&#53440;&#51076;&#50500;&#50883; 6&#52488;)</text><line style="stroke:#000000;stroke-width:1.5;" x1="1749.5" x2="1749.5" y1="50.042" y2="1389.8896"/><rect fill="#F1F1F1" height="47.9375" rx="12.5" ry="12.5" style="stroke:#181818;stroke-width:0.5;" width="221" x="1979.5" y="1229.5693"/><text fill="#000000" font-family="sans-serif" font-size="12" lengthAdjust="spacing" textLength="199" x="1989.5" y="1250.708">&#44160;&#49353; &#51077;&#47141;&#50640; &#50696;&#49884; Riot ID &#183; "&#48516;&#49437;" &#54876;&#49457;</text><text fill="#000000" font-family="sans-serif" font-size="12" lengthAdjust="spacing" textLength="201" x="1989.5" y="1264.6768">(false &#47732; &#48708;&#54876;&#49457; + "&#51068;&#49884;&#51201;&#51004;&#47196; &#51473;&#45800;")</text><line style="stroke:#000000;stroke-width:1.5;" x1="1973.5" x2="1973.5" y1="50.042" y2="1389.8896"/><line style="stroke:#000000;stroke-width:1.5;" x1="2204.5" x2="2204.5" y1="50.042" y2="1389.8896"/><line style="stroke:#181818;stroke-width:1.0;" x1="204.5" x2="204.5" y1="95.9951" y2="115.9951"/><polygon fill="#181818" points="200.5,105.9951,204.5,115.9951,208.5,105.9951,204.5,109.9951" style="stroke:#181818;stroke-width:1.0;"/><line style="stroke:#181818;stroke-width:1.0;" x1="204.5" x2="204.5" y1="301.9014" y2="326.3037"/><polygon fill="#181818" points="200.5,316.3037,204.5,326.3037,208.5,316.3037,204.5,320.3037" style="stroke:#181818;stroke-width:1.0;"/><line style="stroke:#181818;stroke-width:1.0;" x1="280.5" x2="344.5" y1="289.9014" y2="289.9014"/><polygon fill="#181818" points="340.5,333.2881,344.5,343.2881,348.5,333.2881,344.5,337.2881" style="stroke:#181818;stroke-width:1.0;"/><line style="stroke:#181818;stroke-width:1.0;" x1="344.5" x2="344.5" y1="289.9014" y2="392.2725"/><line style="stroke:#181818;stroke-width:1.0;" x1="344.5" x2="216.5" y1="392.2725" y2="392.2725"/><polygon fill="#181818" points="226.5,388.2725,216.5,392.2725,226.5,396.2725,222.5,392.2725" style="stroke:#181818;stroke-width:1.0;"/><line style="stroke:#181818;stroke-width:1.0;" x1="204.5" x2="204.5" y1="360.2725" y2="380.2725"/><polygon fill="#181818" points="200.5,370.2725,204.5,380.2725,208.5,370.2725,204.5,374.2725" style="stroke:#181818;stroke-width:1.0;"/><line style="stroke:#181818;stroke-width:1.0;" x1="204.5" x2="204.5" y1="257.9014" y2="277.9014"/><polygon fill="#181818" points="200.5,267.9014,204.5,277.9014,208.5,267.9014,204.5,271.9014" style="stroke:#181818;stroke-width:1.0;"/><line style="stroke:#181818;stroke-width:1.0;" x1="204.5" x2="204.5" y1="404.2725" y2="424.2725"/><polygon fill="#181818" points="200.5,414.2725,204.5,424.2725,208.5,414.2725,204.5,418.2725" style="stroke:#181818;stroke-width:1.0;"/><line style="stroke:#181818;stroke-width:1.0;" x1="204.5" x2="204.5" y1="1136.585" y2="1165.5693"/><polygon fill="#181818" points="200.5,1155.5693,204.5,1165.5693,208.5,1155.5693,204.5,1159.5693" style="stroke:#181818;stroke-width:1.0;"/><line style="stroke:#181818;stroke-width:1.0;" x1="204.5" x2="204.5" y1="1078.2139" y2="1102.6162"/><polygon fill="#181818" points="200.5,1092.6162,204.5,1102.6162,208.5,1092.6162,204.5,1096.6162" style="stroke:#181818;stroke-width:1.0;"/><line style="stroke:#181818;stroke-width:1.0;" x1="232.5" x2="2090" y1="1066.2139" y2="1066.2139"/><polygon fill="#181818" points="2086,1146.585,2090,1156.585,2094,1146.585,2090,1150.585" style="stroke:#181818;stroke-width:1.0;"/><line style="stroke:#181818;stroke-width:1.0;" x1="2090" x2="2090" y1="1066.2139" y2="1229.5693"/><polygon fill="#181818" points="2086,1219.5693,2090,1229.5693,2094,1219.5693,2090,1223.5693" style="stroke:#181818;stroke-width:1.0;"/><line style="stroke:#181818;stroke-width:1.0;" x1="204.5" x2="204.5" y1="1034.2139" y2="1054.2139"/><polygon fill="#181818" points="200.5,1044.2139,204.5,1054.2139,208.5,1044.2139,204.5,1048.2139" style="stroke:#181818;stroke-width:1.0;"/><line style="stroke:#181818;stroke-width:1.0;" x1="204.5" x2="204.5" y1="1331.4756" y2="1354.6826"/><polygon fill="#181818" points="200.5,1344.6826,204.5,1354.6826,208.5,1344.6826,204.5,1348.6826" style="stroke:#181818;stroke-width:1.0;"/><line style="stroke:#181818;stroke-width:1.0;" x1="954.5" x2="954.5" y1="512.21" y2="532.21"/><polygon fill="#181818" points="950.5,522.21,954.5,532.21,958.5,522.21,954.5,526.21" style="stroke:#181818;stroke-width:1.0;"/><line style="stroke:#181818;stroke-width:1.0;" x1="954.5" x2="954.5" y1="668.5498" y2="697.5342"/><polygon fill="#181818" points="950.5,687.5342,954.5,697.5342,958.5,687.5342,954.5,691.5342" style="stroke:#181818;stroke-width:1.0;"/><line style="stroke:#181818;stroke-width:1.0;" x1="954.5" x2="954.5" y1="610.1787" y2="634.5811"/><polygon fill="#181818" points="950.5,624.5811,954.5,634.5811,958.5,624.5811,954.5,628.5811" style="stroke:#181818;stroke-width:1.0;"/><line style="stroke:#181818;stroke-width:1.0;" x1="993.5" x2="1392.5" y1="598.1787" y2="598.1787"/><polygon fill="#181818" points="1388.5,678.5498,1392.5,688.5498,1396.5,678.5498,1392.5,682.5498" style="stroke:#181818;stroke-width:1.0;"/><line style="stroke:#181818;stroke-width:1.0;" x1="1392.5" x2="1392.5" y1="598.1787" y2="761.5342"/><polygon fill="#181818" points="1388.5,751.5342,1392.5,761.5342,1396.5,751.5342,1392.5,755.5342" style="stroke:#181818;stroke-width:1.0;"/><line style="stroke:#181818;stroke-width:1.0;" x1="954.5" x2="954.5" y1="566.1787" y2="586.1787"/><polygon fill="#181818" points="950.5,576.1787,954.5,586.1787,958.5,576.1787,954.5,580.1787" style="stroke:#181818;stroke-width:1.0;"/><line style="stroke:#181818;stroke-width:1.0;" x1="1118" x2="1118" y1="893.4717" y2="926.2764"/><polygon fill="#181818" points="1114,916.2764,1118,926.2764,1122,916.2764,1118,920.2764" style="stroke:#181818;stroke-width:1.0;"/><line style="stroke:#181818;stroke-width:1.0;" x1="1118" x2="1118" y1="960.2451" y2="980.2451"/><polygon fill="#181818" points="1114,970.2451,1118,980.2451,1122,970.2451,1118,974.2451" style="stroke:#181818;stroke-width:1.0;"/><line style="stroke:#181818;stroke-width:1.0;" x1="1280" x2="1280" y1="893.4717" y2="913.4717"/><polygon fill="#181818" points="1276,903.4717,1280,913.4717,1284,903.4717,1280,907.4717" style="stroke:#181818;stroke-width:1.0;"/><line style="stroke:#181818;stroke-width:1.0;" x1="1280" x2="1280" y1="947.4404" y2="980.2451"/><polygon fill="#181818" points="1276,970.2451,1280,980.2451,1284,970.2451,1280,974.2451" style="stroke:#181818;stroke-width:1.0;"/><line style="stroke:#181818;stroke-width:1.0;" x1="1469" x2="1469" y1="893.4717" y2="913.4717"/><polygon fill="#181818" points="1465,903.4717,1469,913.4717,1473,903.4717,1469,907.4717" style="stroke:#181818;stroke-width:1.0;"/><line style="stroke:#181818;stroke-width:1.0;" x1="1469" x2="1469" y1="947.4404" y2="980.2451"/><polygon fill="#181818" points="1465,970.2451,1469,980.2451,1473,970.2451,1469,974.2451" style="stroke:#181818;stroke-width:1.0;"/><line style="stroke:#181818;stroke-width:1.0;" x1="1144" x2="1256" y1="881.4717" y2="881.4717"/><polygon fill="#181818" points="1246,877.4717,1256,881.4717,1246,885.4717,1250,881.4717" style="stroke:#181818;stroke-width:1.0;"/><line style="stroke:#181818;stroke-width:1.0;" x1="1304" x2="1431" y1="881.4717" y2="881.4717"/><polygon fill="#181818" points="1421,877.4717,1431,881.4717,1421,885.4717,1425,881.4717" style="stroke:#181818;stroke-width:1.0;"/><line style="stroke:#181818;stroke-width:1.0;" x1="1862.5" x2="1862.5" y1="849.4717" y2="854.4717"/><line style="stroke:#181818;stroke-width:1.0;" x1="1862.5" x2="1118" y1="854.4717" y2="854.4717"/><line style="stroke:#181818;stroke-width:1.0;" x1="1118" x2="1118" y1="854.4717" y2="869.4717"/><polygon fill="#181818" points="1114,859.4717,1118,869.4717,1122,859.4717,1118,863.4717" style="stroke:#181818;stroke-width:1.0;"/><line style="stroke:#181818;stroke-width:1.0;" x1="1507" x2="1660" y1="881.4717" y2="881.4717"/><line style="stroke:#181818;stroke-width:1.0;" x1="1660" x2="1660" y1="881.4717" y2="922.874"/><polygon fill="#181818" points="1656,912.874,1660,922.874,1664,912.874,1660,916.874" style="stroke:#181818;stroke-width:1.0;"/><line style="stroke:#181818;stroke-width:1.0;" x1="1660" x2="1660" y1="956.8428" y2="980.2451"/><polygon fill="#181818" points="1656,970.2451,1660,980.2451,1664,970.2451,1660,974.2451" style="stroke:#181818;stroke-width:1.0;"/><line style="stroke:#181818;stroke-width:1.0;" x1="1118" x2="1660" y1="980.2451" y2="980.2451"/><line style="stroke:#181818;stroke-width:1.0;" x1="204.5" x2="204.5" y1="149.9639" y2="154.9639"/><line style="stroke:#181818;stroke-width:1.0;" x1="204.5" x2="695.5" y1="154.9639" y2="154.9639"/><line style="stroke:#181818;stroke-width:1.0;" x1="695.5" x2="695.5" y1="154.9639" y2="169.9639"/><polygon fill="#181818" points="691.5,159.9639,695.5,169.9639,699.5,159.9639,695.5,163.9639" style="stroke:#181818;stroke-width:1.0;"/><line style="stroke:#181818;stroke-width:1.0;" x1="695.5" x2="695.5" y1="203.9326" y2="208.9326"/><line style="stroke:#181818;stroke-width:1.0;" x1="695.5" x2="204.5" y1="208.9326" y2="208.9326"/><line style="stroke:#181818;stroke-width:1.0;" x1="204.5" x2="204.5" y1="208.9326" y2="223.9326"/><polygon fill="#181818" points="200.5,213.9326,204.5,223.9326,208.5,213.9326,204.5,217.9326" style="stroke:#181818;stroke-width:1.0;"/><line style="stroke:#181818;stroke-width:1.0;" x1="204.5" x2="204.5" y1="458.2412" y2="463.2412"/><line style="stroke:#181818;stroke-width:1.0;" x1="204.5" x2="954.5" y1="463.2412" y2="463.2412"/><line style="stroke:#181818;stroke-width:1.0;" x1="954.5" x2="954.5" y1="463.2412" y2="478.2412"/><polygon fill="#181818" points="950.5,468.2412,954.5,478.2412,958.5,468.2412,954.5,472.2412" style="stroke:#181818;stroke-width:1.0;"/><line style="stroke:#181818;stroke-width:1.0;" x1="1392.5" x2="1392.5" y1="795.5029" y2="800.5029"/><line style="stroke:#181818;stroke-width:1.0;" x1="1392.5" x2="1862.5" y1="800.5029" y2="800.5029"/><line style="stroke:#181818;stroke-width:1.0;" x1="1862.5" x2="1862.5" y1="800.5029" y2="815.5029"/><polygon fill="#181818" points="1858.5,805.5029,1862.5,815.5029,1866.5,805.5029,1862.5,809.5029" style="stroke:#181818;stroke-width:1.0;"/><line style="stroke:#181818;stroke-width:1.0;" x1="1392.5" x2="1392.5" y1="980.2451" y2="985.2451"/><line style="stroke:#181818;stroke-width:1.0;" x1="1392.5" x2="204.5" y1="985.2451" y2="985.2451"/><line style="stroke:#181818;stroke-width:1.0;" x1="204.5" x2="204.5" y1="985.2451" y2="1000.2451"/><polygon fill="#181818" points="200.5,990.2451,204.5,1000.2451,208.5,990.2451,204.5,994.2451" style="stroke:#181818;stroke-width:1.0;"/><line style="stroke:#181818;stroke-width:1.0;" x1="2090" x2="2090" y1="1277.5068" y2="1282.5068"/><line style="stroke:#181818;stroke-width:1.0;" x1="2090" x2="204.5" y1="1282.5068" y2="1282.5068"/><line style="stroke:#181818;stroke-width:1.0;" x1="204.5" x2="204.5" y1="1282.5068" y2="1297.5068"/><polygon fill="#181818" points="200.5,1287.5068,204.5,1297.5068,208.5,1287.5068,204.5,1291.5068" style="stroke:#181818;stroke-width:1.0;"/><text fill="#000000" font-family="sans-serif" font-size="18" lengthAdjust="spacing" textLength="91" x="224.75" y="66.75">&#49436;&#48708;&#49828; &#45812;&#45817;</text><text fill="#000000" font-family="sans-serif" font-size="18" lengthAdjust="spacing" textLength="133" x="628" y="66.75">Riot &#44060;&#48156;&#51088; &#54252;&#53560;</text><text fill="#000000" font-family="sans-serif" font-size="18" lengthAdjust="spacing" textLength="146" x="880.5" y="66.75">check_project.sh</text><text fill="#000000" font-family="sans-serif" font-size="18" lengthAdjust="spacing" textLength="161" x="1316" y="66.75">&#48177;&#50644;&#46300; web/app.py</text><text fill="#000000" font-family="sans-serif" font-size="18" lengthAdjust="spacing" textLength="150" x="1786.5" y="66.75">Riot lol-status-v4</text><text fill="#000000" font-family="sans-serif" font-size="18" lengthAdjust="spacing" textLength="91" x="2043.5" y="66.75">&#49436;&#48708;&#49828; &#54868;&#47732;</text><!--SRC=[TLLVJzjM57_tfpXYBuac0WbffGPDKrPCXIfjLSOUgcb2Rd8X7avisGQMYOSKF9III9GkY00E3MfewSIq40AaQ_h2HzcZx_5tsBaE1JRW9Ofopv_VdtDEh5arRoYcaeDdIdfsnjJdyfc7kgQRyCNuo7XK_aQoBYEih9BH5zJy34mhciMklIXfMvrNxSAudhU_Ltzb48rTUythDhjwYKgsQciCacE3qJZyy90-KgfkG_B91FXBJV1QHrXkd9zvxIA-hKlI8Zek_-3WQXDukSFB7nOborPCMqfas3pJT8EP4PCAp2WvPaNIUWxudkkTTR7UXNzMNb4zbxTSt7uVL4_9Z-HlvLHoKXwL5eE-5- -xBy5VE_ITxgAKYCMnx7ej1z1j-Di7_eOBk5mAyYdKwxw0K38AJvXfwNb5WyUi00GPstzYlGZysE5hJdZqDk09lr84yNFRWGZBpmDkleJKn7UJKyH-wh7y5BnkY-_LHoLr6aAytEJxNV0h5Qptpi_mOvEtoYA3EszmiyINQb-7mSwoF8ImLWfB00bikDvH2_mTfu_si2FmRrNXHpojyht6JzS4W91yZs0oif8AR3YyNC9QCoonV4QTbXAHeNIMfMUd35F_cQNjY9K5amNA4xN_Fn6rW8yGtD-gUUrF_BY8fHg4lDOhu7zryTJbZNrgb-3axsQL_-x2-HduLOU_RlchNS3cEhuh1iY51cjRVGtwtqdUfbyvk45NqsSiwhSXl0x9SIeFODcwSHUfnQlc2-pPa68O4QD0sDMSePisTN51ZDAKOgYHMLQOMj3DMIiK_ZmgcguDaWBsd3Ku7wUqH_8a69fYJ-jcRZ2Zs0g4_EKYxZhK67UMuJvsIYBvzgw27jRNUVdaabTiU3ZW5On4IawEFOMlm3RdMDycaH6FFUX7tnf7WnaFNmiUZWx5XqVkI0Ysc7IBNax1Vz2JFQGpRdN3TsR6H6PVsLk6FJrdQgHPMj6okcKd7joBnOcyEfHbYcPdWra9r3QPaYdqxHOShbo-iey0Y7d6tSF-0lBJek-qQ1jh_FY4W8pSi5vCo0rej0dyVOUWYUEo_8Bg_KPJALPAC2Nt0vidnWJt0Nxge5CVe2GNdICfr2TD-K3L-Z_2bp10kqcPs7YEReykZnXaNZuOkEC0UCSdT700t_HmfKADAGJe6-qCBXt2PrYR7VwsTp7Oer90InnHacicQnFHP2nORznSmNe7SBk3jUU96tNukmfuV_TehRpZ1j2vu0TTiMFOS4W_eBt2tNLHRIGuRnTt2Tirh5T073tUBa58x7M4_QBa33hQf3RL5tx8zqcp7GfngDn5Bb-j4hDFuWeIFBxV0_x7H_2Eklpr8Lzs0iSppD3q0fLtSBig70h-7lu5]--></g></svg>