<?xml version="1.0" encoding="us-ascii" standalone="no"?><svg xmlns="http://www.w3.org/2000/svg" xmlns:xlink="http://www.w3.org/1999/xlink" contentStyleType="text/css" height="2059px" preserveAspectRatio="none" style="width:1651px;height:2059px;background:#F3F1EB;" version="1.1" viewBox="0 0 1651 2059" width="1651px" zoomAndPan="magnify"><defs/><g><rect fill="#F3F1EB" height="2059" style="stroke:none;stroke-width:1.0;" width="1651" x="0" y="0"/><text fill="#000000" font-family="sans-serif" font-size="14" font-weight="bold" lengthAdjust="spacing" textLength="237" x="705.5" y="32.9951">AD-13 UC13 &#54016; &#49436;&#48260; &#48176;&#54252;&#183;&#49345;&#53468; &#54869;&#51064;</text><rect fill="none" height="20.9531" style="stroke:none;stroke-width:1.0;" width="1618" x="15" y="50.042"/><ellipse cx="171" cy="85.9951" fill="#222222" rx="10" ry="10" style="stroke:#222222;stroke-width:1.0;"/><rect fill="#F1F1F1" height="33.9688" rx="12.5" ry="12.5" style="stroke:#181818;stroke-width:0.5;" width="265" x="38.5" y="115.9951"/><text fill="#000000" font-family="sans-serif" font-size="12" lengthAdjust="spacing" textLength="245" x="48.5" y="137.1338">&#54016; &#49436;&#48260; &#51217;&#49549; &#183; cd /project2608 &#183; &#48652;&#47004;&#52824; &#54869;&#51064;</text><rect fill="#F1F1F1" height="33.9688" rx="12.5" ry="12.5" style="stroke:#181818;stroke-width:0.5;" width="134" x="104" y="218.3662"/><text fill="#000000" font-family="sans-serif" font-size="12" lengthAdjust="spacing" textLength="114" x="114" y="239.5049">git checkout team</text><polygon fill="#F1F1F1" points="133.5,169.9639,208.5,169.9639,220.5,181.9639,208.5,193.9639,133.5,193.9639,121.5,181.9639,133.5,169.9639" style="stroke:#181818;stroke-width:0.5;"/><text fill="#000000" font-family="sans-serif" font-size="11" lengthAdjust="spacing" textLength="30" x="175" y="204.1743">&#50500;&#45768;&#50724;</text><text fill="#000000" font-family="sans-serif" font-size="12" lengthAdjust="spacing" textLength="75" x="133.5" y="186.1182">team &#48652;&#47004;&#52824;?</text><text fill="#000000" font-family="sans-serif" font-size="11" lengthAdjust="spacing" textLength="10" x="220.5" y="179.3696">&#50696;</text><polygon fill="#F1F1F1" points="171,272.335,183,284.335,171,296.335,159,284.335,171,272.335" style="stroke:#181818;stroke-width:0.5;"/><rect fill="#F1F1F1" height="33.9688" rx="12.5" ry="12.5" style="stroke:#181818;stroke-width:0.5;" width="179" x="81.5" y="316.335"/><text fill="#000000" font-family="sans-serif" font-size="12" lengthAdjust="spacing" textLength="159" x="91.5" y="337.4736">./check_project.sh deploy</text><rect fill="#F1F1F1" height="47.9375" rx="12.5" ry="12.5" style="stroke:#181818;stroke-width:0.5;" width="234" x="54" y="1294.585"/><text fill="#000000" font-family="sans-serif" font-size="12" lengthAdjust="spacing" textLength="214" x="64" y="1315.7236">./check_project.sh logs &#8594; &#50896;&#51064; (E6)</text><text fill="#000000" font-family="sans-serif" font-size="12" lengthAdjust="spacing" textLength="210" x="64" y="1329.6924">&#54028;&#47532;&#54000; &#44648;&#51664;&#51060;&#47732; predict.py &#48320;&#44221;&#51088; &#54869;&#51064;</text><ellipse cx="171" cy="1383.8037" fill="none" rx="11" ry="11" style="stroke:#222222;stroke-width:1.0;"/><ellipse cx="171" cy="1383.8037" fill="#222222" rx="6" ry="6" style="stroke:#222222;stroke-width:1.0;"/><rect fill="#F1F1F1" height="33.9688" rx="12.5" ry="12.5" style="stroke:#181818;stroke-width:0.5;" width="178" x="82" y="1436.8037"/><text fill="#000000" font-family="sans-serif" font-size="12" lengthAdjust="spacing" textLength="158" x="92" y="1457.9424">./check_project.sh status</text><rect fill="#F1F1F1" height="33.9688" rx="12.5" ry="12.5" style="stroke:#181818;stroke-width:0.5;" width="300" x="21" y="1593.1436"/><text fill="#000000" font-family="sans-serif" font-size="12" lengthAdjust="spacing" textLength="280" x="31" y="1614.2822">502 &#47732; start / &#53020;&#51256; &#51080;&#45716;&#45936; 502 &#47732; &#54532;&#47197;&#49884; &#47928;&#51032; (E7)</text><ellipse cx="171" cy="1673.1123" fill="none" rx="11" ry="11" style="stroke:#222222;stroke-width:1.0;"/><ellipse cx="171" cy="1673.1123" fill="#222222" rx="6" ry="6" style="stroke:#222222;stroke-width:1.0;"/><rect fill="#F1F1F1" height="33.9688" rx="12.5" ry="12.5" style="stroke:#181818;stroke-width:0.5;" width="293" x="24.5" y="1726.1123"/><text fill="#000000" font-family="sans-serif" font-size="12" lengthAdjust="spacing" textLength="273" x="34.5" y="1747.251">&#47196;&#52972; index.html &#48148;&#51060;&#53944; == curl &#44277;&#44060; &#51452;&#49548; &#48148;&#51060;&#53944;?</text><rect fill="#F1F1F1" height="33.9688" rx="12.5" ry="12.5" style="stroke:#181818;stroke-width:0.5;" width="255" x="43.5" y="1828.4834"/><text fill="#000000" font-family="sans-serif" font-size="12" lengthAdjust="spacing" textLength="235" x="53.5" y="1849.6221">&#49436;&#48260;&#44032; &#50715; &#54028;&#51068; (E8, troubleshooting 3&#48264;)</text><ellipse cx="171" cy="1901.9678" fill="none" rx="11" ry="11" style="stroke:#222222;stroke-width:1.0;"/><ellipse cx="171" cy="1901.9678" fill="#222222" rx="6" ry="6" style="stroke:#222222;stroke-width:1.0;"/><polygon fill="#F1F1F1" points="157,1780.0811,185,1780.0811,197,1792.0811,185,1804.0811,157,1804.0811,145,1792.0811,157,1780.0811" style="stroke:#181818;stroke-width:0.5;"/><text fill="#000000" font-family="sans-serif" font-size="11" lengthAdjust="spacing" textLength="30" x="175" y="1814.2915">&#50500;&#45768;&#50724;</text><text fill="#000000" font-family="sans-serif" font-size="12" lengthAdjust="spacing" textLength="28" x="157" y="1796.2354">&#44057;&#51020;?</text><text fill="#000000" font-family="sans-serif" font-size="11" lengthAdjust="spacing" textLength="10" x="197" y="1789.4868">&#50696;</text><rect fill="#F1F1F1" height="33.9688" rx="12.5" ry="12.5" style="stroke:#181818;stroke-width:0.5;" width="68" x="137" y="1954.9678"/><text fill="#000000" font-family="sans-serif" font-size="12" lengthAdjust="spacing" textLength="48" x="147" y="1976.1064">&#48176;&#54252; &#50756;&#47308;</text><path d="M202,1998.9365 L202,2019.1436 L182,2023.1436 L202,2027.1436 L202,2047.3506 A0,0 0 0 0 202,2047.3506 L535,2047.3506 A0,0 0 0 0 535,2047.3506 L535,2008.9365 L525,1998.9365 L202,1998.9365 A0,0 0 0 0 202,1998.9365 " fill="#FEFFDD" style="stroke:#181818;stroke-width:0.5;"/><path d="M525,1998.9365 L525,2008.9365 L535,2008.9365 L525,1998.9365 " fill="#FEFFDD" style="stroke:#181818;stroke-width:0.5;"/><text fill="#000000" font-family="sans-serif" font-size="11" lengthAdjust="spacing" textLength="271" x="208" y="2014.147">A1 status &#47564; (&#47588;&#51068;) &#183; A2 pull&#183;restart &#48516;&#47532; &#183; A3 logs</text><text fill="#000000" font-family="sans-serif" font-size="11" lengthAdjust="spacing" textLength="286" x="208" y="2026.9517">A4 &#48156;&#54364; &#45817;&#51068; restart&#8594;test&#8594;status &#183; A5 &#51116;&#48512;&#54021; &#54980; start</text><text fill="#000000" font-family="sans-serif" font-size="11" lengthAdjust="spacing" textLength="312" x="208" y="2039.7563">A6 &#46020;&#47700;&#51064; &#51453;&#51004;&#47732; 127.0.0.1:9504 &#49884;&#50672; &#183; A7 &#49352; &#49436;&#48260; &#52376;&#51020; &#54620; &#48264;</text><ellipse cx="171" cy="2023.1436" fill="none" rx="11" ry="11" style="stroke:#222222;stroke-width:1.0;"/><ellipse cx="171" cy="2023.1436" fill="#222222" rx="6" ry="6" style="stroke:#222222;stroke-width:1.0;"/><line style="stroke:#000000;stroke-width:1.5;" x1="15" x2="15" y1="50.042" y2="2047.3506"/><rect fill="#F1F1F1" height="33.9688" rx="12.5" ry="12.5" style="stroke:#181818;stroke-width:0.5;" width="342" x="546" y="370.3037"/><text fill="#000000" font-family="sans-serif" font-size="12" lengthAdjust="spacing" textLength="322" x="556" y="391.4424">.env &#47196;&#46300; (&#44050; &#48120;&#52636;&#47141;) &#183; python &#49440;&#53469; (E9) &#183; run/ logs/ &#51456;&#48708;</text><rect fill="#F1F1F1" height="33.9688" rx="12.5" ry="12.5" style="stroke:#181818;stroke-width:0.5;" width="221" x="606.5" y="526.6436"/><text fill="#000000" font-family="sans-serif" font-size="12" lengthAdjust="spacing" textLength="201" x="616.5" y="547.7822">&#51473;&#45800; &#8212; &#51116;&#49884;&#51089;&#51004;&#47196; &#45336;&#50612;&#44032;&#51648; &#50506;&#51020; (E1)</text><ellipse cx="717" cy="606.6123" fill="none" rx="11" ry="11" style="stroke:#222222;stroke-width:1.0;"/><ellipse cx="717" cy="606.6123" fill="#222222" rx="6" ry="6" style="stroke:#222222;stroke-width:1.0;"/><rect fill="#F1F1F1" height="33.9688" rx="12.5" ry="12.5" style="stroke:#181818;stroke-width:0.5;" width="261" x="586.5" y="659.6123"/><text fill="#000000" font-family="sans-serif" font-size="12" lengthAdjust="spacing" textLength="241" x="596.5" y="680.751">restart: pid &#51333;&#47308; &#183; &#54252;&#53944;&#50640; &#45224;&#51008; &#54532;&#47196;&#49464;&#49828; &#51221;&#47532;</text><rect fill="#F1F1F1" height="33.9688" rx="12.5" ry="12.5" style="stroke:#181818;stroke-width:0.5;" width="178" x="628" y="761.9834"/><text fill="#000000" font-family="sans-serif" font-size="12" lengthAdjust="spacing" textLength="158" x="638" y="783.1221">&#51473;&#45800; (E2&#183;E3, venv311 &#54869;&#51064;)</text><ellipse cx="717" cy="835.9365" fill="none" rx="11" ry="11" style="stroke:#222222;stroke-width:1.0;"/><ellipse cx="717" cy="835.9365" fill="#222222" rx="6" ry="6" style="stroke:#222222;stroke-width:1.0;"/><polygon fill="#F1F1F1" points="591.5,713.5811,842.5,713.5811,854.5,725.5811,842.5,737.5811,591.5,737.5811,579.5,725.5811,591.5,713.5811" style="stroke:#181818;stroke-width:0.5;"/><text fill="#000000" font-family="sans-serif" font-size="11" lengthAdjust="spacing" textLength="30" x="721" y="747.7915">&#50500;&#45768;&#50724;</text><text fill="#000000" font-family="sans-serif" font-size="12" lengthAdjust="spacing" textLength="251" x="591.5" y="729.7354">model.joblib &#183; flask &#183; sklearn &#183; joblib &#51080;&#51020;?</text><text fill="#000000" font-family="sans-serif" font-size="11" lengthAdjust="spacing" textLength="10" x="854.5" y="722.9868">&#50696;</text><rect fill="#F1F1F1" height="33.9688" rx="12.5" ry="12.5" style="stroke:#181818;stroke-width:0.5;" width="141" x="646.5" y="1045.2764"/><text fill="#000000" font-family="sans-serif" font-size="12" lengthAdjust="spacing" textLength="121" x="656.5" y="1066.415">&#51216;&#50976; pid &#50504;&#45236; (E4&#183;E5)</text><ellipse cx="717" cy="1125.2451" fill="none" rx="11" ry="11" style="stroke:#222222;stroke-width:1.0;"/><ellipse cx="717" cy="1125.2451" fill="#222222" rx="6" ry="6" style="stroke:#222222;stroke-width:1.0;"/><rect fill="#F1F1F1" height="47.9375" rx="12.5" ry="12.5" style="stroke:#181818;stroke-width:0.5;" width="257" x="588.5" y="1178.2451"/><text fill="#000000" font-family="sans-serif" font-size="12" lengthAdjust="spacing" textLength="125" x="598.5" y="1199.3838">test &#171;include&#187; UC12</text><text fill="#000000" font-family="sans-serif" font-size="12" lengthAdjust="spacing" textLength="237" x="598.5" y="1213.3525">verify + &#49436;&#48729; &#54028;&#47532;&#54000; 6&#44148; + API &#49828;&#47784;&#53356; 11&#44148;</text><polygon fill="#F1F1F1" points="690,1246.1826,744,1246.1826,756,1258.1826,744,1270.1826,690,1270.1826,678,1258.1826,690,1246.1826" style="stroke:#181818;stroke-width:0.5;"/><text fill="#000000" font-family="sans-serif" font-size="11" lengthAdjust="spacing" textLength="30" x="721" y="1280.3931">&#50500;&#45768;&#50724;</text><text fill="#000000" font-family="sans-serif" font-size="12" lengthAdjust="spacing" textLength="54" x="690" y="1262.3369">&#51204;&#48512; &#53685;&#44284;?</text><text fill="#000000" font-family="sans-serif" font-size="11" lengthAdjust="spacing" textLength="10" x="756" y="1255.5884">&#50696;</text><line style="stroke:#000000;stroke-width:1.5;" x1="540" x2="540" y1="50.042" y2="2047.3506"/><rect fill="#F1F1F1" height="33.9688" rx="12.5" ry="12.5" style="stroke:#181818;stroke-width:0.5;" width="111" x="898" y="424.2725"/><text fill="#000000" font-family="sans-serif" font-size="12" lengthAdjust="spacing" textLength="91" x="908" y="445.4111">git pull --ff-only</text><polygon fill="#F1F1F1" points="939.5,478.2412,967.5,478.2412,979.5,490.2412,967.5,502.2412,939.5,502.2412,927.5,490.2412,939.5,478.2412" style="stroke:#181818;stroke-width:0.5;"/><text fill="#000000" font-family="sans-serif" font-size="11" lengthAdjust="spacing" textLength="30" x="957.5" y="512.4517">&#50500;&#45768;&#50724;</text><text fill="#000000" font-family="sans-serif" font-size="12" lengthAdjust="spacing" textLength="28" x="939.5" y="494.3955">&#49457;&#44277;?</text><text fill="#000000" font-family="sans-serif" font-size="11" lengthAdjust="spacing" textLength="10" x="979.5" y="487.647">&#50696;</text><line style="stroke:#000000;stroke-width:1.5;" x1="892" x2="892" y1="50.042" y2="2047.3506"/><rect fill="#F1F1F1" height="33.9688" rx="12.5" ry="12.5" style="stroke:#181818;stroke-width:0.5;" width="330" x="1048" y="888.9365"/><text fill="#000000" font-family="sans-serif" font-size="12" lengthAdjust="spacing" textLength="310" x="1058" y="910.0752">web/app.py --port 9524 &#44592;&#46041; &#8594; /api/health 200 &#45824;&#44592;</text><rect fill="#F1F1F1" height="33.9688" rx="12.5" ry="12.5" style="stroke:#181818;stroke-width:0.5;" width="288" x="1069" y="942.9053"/><text fill="#000000" font-family="sans-serif" font-size="12" lengthAdjust="spacing" textLength="268" x="1079" y="964.0439">web/frontend.py --port 9504 &#44592;&#46041; &#8594; /healthz</text><polygon fill="#F1F1F1" points="1156,996.874,1270,996.874,1282,1008.874,1270,1020.874,1156,1020.874,1144,1008.874,1156,996.874" style="stroke:#181818;stroke-width:0.5;"/><text fill="#000000" font-family="sans-serif" font-size="11" lengthAdjust="spacing" textLength="10" x="1217" y="1031.0845">&#50696;</text><text fill="#000000" font-family="sans-serif" font-size="12" lengthAdjust="spacing" textLength="114" x="1156" y="1013.0283">&#54252;&#53944; &#51216;&#50976; &#183; &#44592;&#46041; &#49892;&#54056;?</text><text fill="#000000" font-family="sans-serif" font-size="11" lengthAdjust="spacing" textLength="30" x="1282" y="1006.2798">&#50500;&#45768;&#50724;</text><line style="stroke:#000000;stroke-width:1.5;" x1="1042" x2="1042" y1="50.042" y2="2047.3506"/><rect fill="#F1F1F1" height="33.9688" rx="12.5" ry="12.5" style="stroke:#181818;stroke-width:0.5;" width="210" x="1388" y="1490.7725"/><text fill="#000000" font-family="sans-serif" font-size="12" lengthAdjust="spacing" textLength="190" x="1398" y="1511.9111">&#48177;&#50644;&#46300; &#183; &#54532;&#47088;&#53944; &#183; https &#46020;&#47700;&#51064; &#49464; &#51460;</text><polygon fill="#F1F1F1" points="1464,1544.7412,1522,1544.7412,1534,1556.7412,1522,1568.7412,1464,1568.7412,1452,1556.7412,1464,1544.7412" style="stroke:#181818;stroke-width:0.5;"/><text fill="#000000" font-family="sans-serif" font-size="11" lengthAdjust="spacing" textLength="30" x="1497" y="1578.9517">&#50500;&#45768;&#50724;</text><text fill="#000000" font-family="sans-serif" font-size="12" lengthAdjust="spacing" textLength="58" x="1464" y="1560.8955">&#49464; &#51460; &#52488;&#47197;?</text><text fill="#000000" font-family="sans-serif" font-size="11" lengthAdjust="spacing" textLength="10" x="1534" y="1554.147">&#50696;</text><line style="stroke:#000000;stroke-width:1.5;" x1="1382" x2="1382" y1="50.042" y2="2047.3506"/><line style="stroke:#000000;stroke-width:1.5;" x1="1631" x2="1631" y1="50.042" y2="2047.3506"/><line style="stroke:#181818;stroke-width:1.0;" x1="171" x2="171" y1="95.9951" y2="115.9951"/><polygon fill="#181818" points="167,105.9951,171,115.9951,175,105.9951,171,109.9951" style="stroke:#181818;stroke-width:1.0;"/><line style="stroke:#181818;stroke-width:1.0;" x1="171" x2="171" y1="193.9639" y2="218.3662"/><polygon fill="#181818" points="167,208.3662,171,218.3662,175,208.3662,171,212.3662" style="stroke:#181818;stroke-width:1.0;"/><line style="stroke:#181818;stroke-width:1.0;" x1="220.5" x2="248" y1="181.9639" y2="181.9639"/><polygon fill="#181818" points="244,225.3506,248,235.3506,252,225.3506,248,229.3506" style="stroke:#181818;stroke-width:1.0;"/><line style="stroke:#181818;stroke-width:1.0;" x1="248" x2="248" y1="181.9639" y2="284.335"/><line style="stroke:#181818;stroke-width:1.0;" x1="248" x2="183" y1="284.335" y2="284.335"/><polygon fill="#181818" points="193,280.335,183,284.335,193,288.335,189,284.335" style="stroke:#181818;stroke-width:1.0;"/><line style="stroke:#181818;stroke-width:1.0;" x1="171" x2="171" y1="252.335" y2="272.335"/><polygon fill="#181818" points="167,262.335,171,272.335,175,262.335,171,266.335" style="stroke:#181818;stroke-width:1.0;"/><line style="stroke:#181818;stroke-width:1.0;" x1="171" x2="171" y1="149.9639" y2="169.9639"/><polygon fill="#181818" points="167,159.9639,171,169.9639,175,159.9639,171,163.9639" style="stroke:#181818;stroke-width:1.0;"/><line style="stroke:#181818;stroke-width:1.0;" x1="171" x2="171" y1="296.335" y2="316.335"/><polygon fill="#181818" points="167,306.335,171,316.335,175,306.335,171,310.335" style="stroke:#181818;stroke-width:1.0;"/><line style="stroke:#181818;stroke-width:1.0;" x1="171" x2="171" y1="1342.5225" y2="1372.8037"/><polygon fill="#181818" points="167,1362.8037,171,1372.8037,175,1362.8037,171,1366.8037" style="stroke:#181818;stroke-width:1.0;"/><line style="stroke:#181818;stroke-width:1.0;" x1="171" x2="171" y1="1627.1123" y2="1662.1123"/><polygon fill="#181818" points="167,1652.1123,171,1662.1123,175,1652.1123,171,1656.1123" style="stroke:#181818;stroke-width:1.0;"/><line style="stroke:#181818;stroke-width:1.0;" x1="171" x2="171" y1="1862.4521" y2="1890.9678"/><polygon fill="#181818" points="167,1880.9678,171,1890.9678,175,1880.9678,171,1884.9678" style="stroke:#181818;stroke-width:1.0;"/><line style="stroke:#181818;stroke-width:1.0;" x1="171" x2="171" y1="1804.0811" y2="1828.4834"/><polygon fill="#181818" points="167,1818.4834,171,1828.4834,175,1818.4834,171,1822.4834" style="stroke:#181818;stroke-width:1.0;"/><line style="stroke:#181818;stroke-width:1.0;" x1="197" x2="308.5" y1="1792.0811" y2="1792.0811"/><polygon fill="#181818" points="304.5,1860.9678,308.5,1870.9678,312.5,1860.9678,308.5,1864.9678" style="stroke:#181818;stroke-width:1.0;"/><line style="stroke:#181818;stroke-width:1.0;" x1="308.5" x2="308.5" y1="1792.0811" y2="1934.9678"/><line style="stroke:#181818;stroke-width:1.0;" x1="308.5" x2="171" y1="1934.9678" y2="1934.9678"/><line style="stroke:#181818;stroke-width:1.0;" x1="171" x2="171" y1="1934.9678" y2="1954.9678"/><polygon fill="#181818" points="167,1944.9678,171,1954.9678,175,1944.9678,171,1948.9678" style="stroke:#181818;stroke-width:1.0;"/><line style="stroke:#181818;stroke-width:1.0;" x1="171" x2="171" y1="1760.0811" y2="1780.0811"/><polygon fill="#181818" points="167,1770.0811,171,1780.0811,175,1770.0811,171,1774.0811" style="stroke:#181818;stroke-width:1.0;"/><line style="stroke:#181818;stroke-width:1.0;" x1="171" x2="171" y1="1988.9365" y2="2012.1436"/><polygon fill="#181818" points="167,2002.1436,171,2012.1436,175,2002.1436,171,2006.1436" style="stroke:#181818;stroke-width:1.0;"/><line style="stroke:#181818;stroke-width:1.0;" x1="717" x2="717" y1="560.6123" y2="595.6123"/><polygon fill="#181818" points="713,585.6123,717,595.6123,721,585.6123,717,589.6123" style="stroke:#181818;stroke-width:1.0;"/><line style="stroke:#181818;stroke-width:1.0;" x1="717" x2="717" y1="795.9521" y2="824.9365"/><polygon fill="#181818" points="713,814.9365,717,824.9365,721,814.9365,717,818.9365" style="stroke:#181818;stroke-width:1.0;"/><line style="stroke:#181818;stroke-width:1.0;" x1="717" x2="717" y1="737.5811" y2="761.9834"/><polygon fill="#181818" points="713,751.9834,717,761.9834,721,751.9834,717,755.9834" style="stroke:#181818;stroke-width:1.0;"/><line style="stroke:#181818;stroke-width:1.0;" x1="854.5" x2="1213" y1="725.5811" y2="725.5811"/><polygon fill="#181818" points="1209,805.9521,1213,815.9521,1217,805.9521,1213,809.9521" style="stroke:#181818;stroke-width:1.0;"/><line style="stroke:#181818;stroke-width:1.0;" x1="1213" x2="1213" y1="725.5811" y2="888.9365"/><polygon fill="#181818" points="1209,878.9365,1213,888.9365,1217,878.9365,1213,882.9365" style="stroke:#181818;stroke-width:1.0;"/><line style="stroke:#181818;stroke-width:1.0;" x1="717" x2="717" y1="693.5811" y2="713.5811"/><polygon fill="#181818" points="713,703.5811,717,713.5811,721,703.5811,717,707.5811" style="stroke:#181818;stroke-width:1.0;"/><line style="stroke:#181818;stroke-width:1.0;" x1="717" x2="717" y1="1079.2451" y2="1114.2451"/><polygon fill="#181818" points="713,1104.2451,717,1114.2451,721,1104.2451,717,1108.2451" style="stroke:#181818;stroke-width:1.0;"/><line style="stroke:#181818;stroke-width:1.0;" x1="756" x2="844" y1="1258.1826" y2="1258.1826"/><polygon fill="#181818" points="840,1342.8037,844,1352.8037,848,1342.8037,844,1346.8037" style="stroke:#181818;stroke-width:1.0;"/><line style="stroke:#181818;stroke-width:1.0;" x1="844" x2="844" y1="1258.1826" y2="1421.8037"/><line style="stroke:#181818;stroke-width:1.0;" x1="844" x2="171" y1="1421.8037" y2="1421.8037"/><line style="stroke:#181818;stroke-width:1.0;" x1="171" x2="171" y1="1421.8037" y2="1436.8037"/><polygon fill="#181818" points="167,1426.8037,171,1436.8037,175,1426.8037,171,1430.8037" style="stroke:#181818;stroke-width:1.0;"/><line style="stroke:#181818;stroke-width:1.0;" x1="717" x2="717" y1="1226.1826" y2="1246.1826"/><polygon fill="#181818" points="713,1236.1826,717,1246.1826,721,1236.1826,717,1240.1826" style="stroke:#181818;stroke-width:1.0;"/><line style="stroke:#181818;stroke-width:1.0;" x1="979.5" x2="1023" y1="490.2412" y2="490.2412"/><polygon fill="#181818" points="1019,567.8779,1023,577.8779,1027,567.8779,1023,571.8779" style="stroke:#181818;stroke-width:1.0;"/><line style="stroke:#181818;stroke-width:1.0;" x1="1023" x2="1023" y1="490.2412" y2="644.6123"/><line style="stroke:#181818;stroke-width:1.0;" x1="1023" x2="717" y1="644.6123" y2="644.6123"/><line style="stroke:#181818;stroke-width:1.0;" x1="717" x2="717" y1="644.6123" y2="659.6123"/><polygon fill="#181818" points="713,649.6123,717,659.6123,721,649.6123,717,653.6123" style="stroke:#181818;stroke-width:1.0;"/><line style="stroke:#181818;stroke-width:1.0;" x1="953.5" x2="953.5" y1="458.2412" y2="478.2412"/><polygon fill="#181818" points="949.5,468.2412,953.5,478.2412,957.5,468.2412,953.5,472.2412" style="stroke:#181818;stroke-width:1.0;"/><line style="stroke:#181818;stroke-width:1.0;" x1="1213" x2="1213" y1="922.9053" y2="942.9053"/><polygon fill="#181818" points="1209,932.9053,1213,942.9053,1217,932.9053,1213,936.9053" style="stroke:#181818;stroke-width:1.0;"/><line style="stroke:#181818;stroke-width:1.0;" x1="1282" x2="1294" y1="1008.874" y2="1008.874"/><polygon fill="#181818" points="1290,1086.5107,1294,1096.5107,1298,1086.5107,1294,1090.5107" style="stroke:#181818;stroke-width:1.0;"/><line style="stroke:#181818;stroke-width:1.0;" x1="1294" x2="1294" y1="1008.874" y2="1163.2451"/><line style="stroke:#181818;stroke-width:1.0;" x1="1294" x2="717" y1="1163.2451" y2="1163.2451"/><line style="stroke:#181818;stroke-width:1.0;" x1="717" x2="717" y1="1163.2451" y2="1178.2451"/><polygon fill="#181818" points="713,1168.2451,717,1178.2451,721,1168.2451,717,1172.2451" style="stroke:#181818;stroke-width:1.0;"/><line style="stroke:#181818;stroke-width:1.0;" x1="1213" x2="1213" y1="976.874" y2="996.874"/><polygon fill="#181818" points="1209,986.874,1213,996.874,1217,986.874,1213,990.874" style="stroke:#181818;stroke-width:1.0;"/><line style="stroke:#181818;stroke-width:1.0;" x1="1534" x2="1612" y1="1556.7412" y2="1556.7412"/><polygon fill="#181818" points="1608,1634.3779,1612,1644.3779,1616,1634.3779,1612,1638.3779" style="stroke:#181818;stroke-width:1.0;"/><line style="stroke:#181818;stroke-width:1.0;" x1="1612" x2="1612" y1="1556.7412" y2="1711.1123"/><line style="stroke:#181818;stroke-width:1.0;" x1="1612" x2="171" y1="1711.1123" y2="1711.1123"/><line style="stroke:#181818;stroke-width:1.0;" x1="171" x2="171" y1="1711.1123" y2="1726.1123"/><polygon fill="#181818" points="167,1716.1123,171,1726.1123,175,1716.1123,171,1720.1123" style="stroke:#181818;stroke-width:1.0;"/><line style="stroke:#181818;stroke-width:1.0;" x1="1493" x2="1493" y1="1524.7412" y2="1544.7412"/><polygon fill="#181818" points="1489,1534.7412,1493,1544.7412,1497,1534.7412,1493,1538.7412" style="stroke:#181818;stroke-width:1.0;"/><line style="stroke:#181818;stroke-width:1.0;" x1="171" x2="171" y1="350.3037" y2="355.3037"/><line style="stroke:#181818;stroke-width:1.0;" x1="171" x2="717" y1="355.3037" y2="355.3037"/><line style="stroke:#181818;stroke-width:1.0;" x1="717" x2="717" y1="355.3037" y2="370.3037"/><polygon fill="#181818" points="713,360.3037,717,370.3037,721,360.3037,717,364.3037" style="stroke:#181818;stroke-width:1.0;"/><line style="stroke:#181818;stroke-width:1.0;" x1="717" x2="717" y1="404.2725" y2="409.2725"/><line style="stroke:#181818;stroke-width:1.0;" x1="717" x2="953.5" y1="409.2725" y2="409.2725"/><line style="stroke:#181818;stroke-width:1.0;" x1="953.5" x2="953.5" y1="409.2725" y2="424.2725"/><polygon fill="#181818" points="949.5,414.2725,953.5,424.2725,957.5,414.2725,953.5,418.2725" style="stroke:#181818;stroke-width:1.0;"/><line style="stroke:#181818;stroke-width:1.0;" x1="953.5" x2="953.5" y1="502.2412" y2="514.4424"/><line style="stroke:#181818;stroke-width:1.0;" x1="953.5" x2="717" y1="514.4424" y2="514.4424"/><line style="stroke:#181818;stroke-width:1.0;" x1="717" x2="717" y1="514.4424" y2="526.6436"/><polygon fill="#181818" points="713,516.6436,717,526.6436,721,516.6436,717,520.6436" style="stroke:#181818;stroke-width:1.0;"/><line style="stroke:#181818;stroke-width:1.0;" x1="1213" x2="1213" y1="1020.874" y2="1033.0752"/><line style="stroke:#181818;stroke-width:1.0;" x1="1213" x2="717" y1="1033.0752" y2="1033.0752"/><line style="stroke:#181818;stroke-width:1.0;" x1="717" x2="717" y1="1033.0752" y2="1045.2764"/><polygon fill="#181818" points="713,1035.2764,717,1045.2764,721,1035.2764,717,1039.2764" style="stroke:#181818;stroke-width:1.0;"/><line style="stroke:#181818;stroke-width:1.0;" x1="717" x2="717" y1="1270.1826" y2="1282.3838"/><line style="stroke:#181818;stroke-width:1.0;" x1="717" x2="171" y1="1282.3838" y2="1282.3838"/><line style="stroke:#181818;stroke-width:1.0;" x1="171" x2="171" y1="1282.3838" y2="1294.585"/><polygon fill="#181818" points="167,1284.585,171,1294.585,175,1284.585,171,1288.585" style="stroke:#181818;stroke-width:1.0;"/><line style="stroke:#181818;stroke-width:1.0;" x1="171" x2="171" y1="1470.7725" y2="1475.7725"/><line style="stroke:#181818;stroke-width:1.0;" x1="171" x2="1493" y1="1475.7725" y2="1475.7725"/><line style="stroke:#181818;stroke-width:1.0;" x1="1493" x2="1493" y1="1475.7725" y2="1490.7725"/><polygon fill="#181818" points="1489,1480.7725,1493,1490.7725,1497,1480.7725,1493,1484.7725" style="stroke:#181818;stroke-width:1.0;"/><line style="stroke:#181818;stroke-width:1.0;" x1="1493" x2="1493" y1="1568.7412" y2="1580.9424"/><line style="stroke:#181818;stroke-width:1.0;" x1="1493" x2="171" y1="1580.9424" y2="1580.9424"/><line style="stroke:#181818;stroke-width:1.0;" x1="171" x2="171" y1="1580.9424" y2="1593.1436"/><polygon fill="#181818" points="167,1583.1436,171,1593.1436,175,1583.1436,171,1587.1436" style="stroke:#181818;stroke-width:1.0;"/><text fill="#000000" font-family="sans-serif" font-size="18" lengthAdjust="spacing" textLength="91" x="232" y="66.75">&#49436;&#48708;&#49828; &#45812;&#45817;</text><text fill="#000000" font-family="sans-serif" font-size="18" lengthAdjust="spacing" textLength="146" x="643" y="66.75">check_project.sh</text><text fill="#000000" font-family="sans-serif" font-size="18" lengthAdjust="spacing" textLength="121" x="906.5" y="66.75">GitHub(team)</text><text fill="#000000" font-family="sans-serif" font-size="18" lengthAdjust="spacing" textLength="120" x="1152" y="66.75">&#48177;&#50644;&#46300; &#183; &#54532;&#47088;&#53944;</text><text fill="#000000" font-family="sans-serif" font-size="18" lengthAdjust="spacing" textLength="156" x="1428.5" y="66.75">&#44277;&#44060; &#46020;&#47700;&#51064;(&#54532;&#47197;&#49884;)</text><!--SRC=[bLNVJzjM57xtNt6alIHQoKz-j8cgYdMmxMrIrUV9IHpiOcpBlg5BXQgqk2WYgO2EZ20Sberiq2tI3AIGgFGbVqeVSw__Xvthk8IEW5H5IMoVUww_xpldEzTQL3H3DCKbo8ZPnGLJBsYvXxggc_3LV78-FlUDO5ski6GnfpzLj0N8YwebNOc8MQ8iAwGuhslaaV9CWdZYIbJJYJIAn0MY45M2sMyduabu_11_l6e9cEtG4nkewteRxVuvMttXhJhWxTPOeoi8AppSizbw2sYbGokz5S4Yeac4r9LSrjnYQw-XVmxP73oF6gR-HCgIn7JiBdz6krMwxx1UFTWqBIXv21490Lw67eI1o9868LQpQQNCwgsm091QK0XaPIcxg1S8y8oq8A40kAnU3WkIbbFoGYeIzPVy5BmsOicGamnLBwQ5bVz7Ld2vf2q3_TsXlpWG6hXlWFxRPMSERVuPvcYD8f5r3ParlTK6XERk-K_DWXO5LL-mei1Q9HG4z_vE8TyNCZwHCExBiHe5LOM9YNn-GjVKuf0eiuy7f-_64no33rcprXQj7C77qZQm_JQhE6n_YpaNY1ceNMU_TWPkYHsY-hLrrgWYndWuZNaMqOthyeoJm9Jy6gR0K7B0_dX53wgS9DRVM- -odKsWBuzOemJUjeqlPNQNbvyrQ_Ilzf3JafwJrCWJFQCg6PwPLqLhaLzOYweacXg_3A9ilumWRwXlm3Gqb-YVpoNlm3BM9XcF1uro6olg7hETRLv33Xnn_kOYTkJsLCf4HSE864KiXA6R1EvD9IPXq7NfnYvyN7i365QYiYIgH8P4B0QqMi9eUfYQDz4l-8xFycEVvmzpdmsb68g6wcmofyd112jPfULLZqQyEVOR2pvCzgjHAzEN7LHa4XMPkgR0IBsRgqkmkj3_Hz6oQY4dzTzpgoU4PSbKyaNuslTiRnUjNyLoUXKNfWV77Nm- - -CFW7McVnzvBzeuBV1fqC1DcvvXCwoz6vnUtD37rwS4qXfZJ6uXNqIsjuaLHfxJF7y4Pj0xOeSOwj2t7J1CAQTW8jQ2dfO69n_O_kRb4BcnDQvZ6OS47K0A5jeOpJbmqLaRDdsxZJk7_AvleEsugyVt6R-H2J6iKHhgYj-M_Sdq_WsmJXdt-XBHfc89uDnzXmAEcmk7DRlSHdHzcxvsuTE2IvX0srtMgAEMC-4lauMR-tqR52qd_HoHoPAAfm1owN26z-z3jc2g4CZ33YxOMdKKVp3aEN1tRt6tVphWi09Mt-CrPeqBH7dt3X0yxZAgPCcwJlYnbgGdvLkmfuQ74x1T6qTLMl1NySCDJ6L19fWt6myA2lGG9o8zRE6x_Cazc_2dSlyy67f0pspiDJ-KzFkHfqyYCyVRGYqhFOuoM8oTojs4Vy7kF6kAJsLqX5Tz1TwUFQmKtsJwQZSSVE0Z6-iKJyn4OlY9f_n1miVvZkjlD0DijNnvXfxK-J3tQeZXfCo9-yVtVm00]--></g></svg>