<?xml version="1.0" encoding="us-ascii" standalone="no"?><svg xmlns="http://www.w3.org/2000/svg" xmlns:xlink="http://www.w3.org/1999/xlink" contentStyleType="text/css" height="1273px" preserveAspectRatio="none" style="width:904px;height:1273px;background:#F3F1EB;" version="1.1" viewBox="0 0 904 1273" width="904px" zoomAndPan="magnify"><defs/><g><rect fill="#F3F1EB" height="1273" style="stroke:none;stroke-width:1.0;" width="904" x="0" y="0"/><text fill="#000000" font-family="sans-serif" font-size="14" font-weight="bold" lengthAdjust="spacing" textLength="225" x="338.25" y="32.9951">AD-6 UC6 &#52308;&#54588;&#50616;&#183;&#46972;&#51064;&#48324; &#49849;&#47456; &#51312;&#54924;</text><rect fill="none" height="20.9531" style="stroke:none;stroke-width:1.0;" width="871.5" x="15" y="50.042"/><ellipse cx="172" cy="85.9951" fill="#222222" rx="10" ry="10" style="stroke:#222222;stroke-width:1.0;"/><rect fill="#F1F1F1" height="33.9688" rx="12.5" ry="12.5" style="stroke:#181818;stroke-width:0.5;" width="248" x="48" y="115.9951"/><text fill="#000000" font-family="sans-serif" font-size="12" lengthAdjust="spacing" textLength="228" x="58" y="137.1338">"&#52572;&#44540; &#52308;&#54588;&#50616; &#49849;&#47456;" &#53485; &#53364;&#47533; (&#46608;&#45716; #champ)</text><polygon fill="#F1F1F1" points="137.5,808.4248,206.5,808.4248,218.5,820.4248,206.5,832.4248,137.5,832.4248,125.5,820.4248,137.5,808.4248" style="stroke:#181818;stroke-width:0.5;"/><text fill="#000000" font-family="sans-serif" font-size="11" lengthAdjust="spacing" textLength="30" x="176" y="842.6353">&#50500;&#45768;&#50724;</text><text fill="#000000" font-family="sans-serif" font-size="12" lengthAdjust="spacing" textLength="69" x="137.5" y="824.5791">&#46972;&#51064; &#52841; &#53364;&#47533;?</text><text fill="#000000" font-family="sans-serif" font-size="11" lengthAdjust="spacing" textLength="96" x="218.5" y="817.8306">&#50696;: &#44536; &#46972;&#51064;&#51004;&#47196; &#45796;&#49884;</text><polygon fill="#F1F1F1" points="132,966.5063,212,966.5063,224,978.5063,212,990.5063,132,990.5063,120,978.5063,132,966.5063" style="stroke:#181818;stroke-width:0.5;"/><text fill="#000000" font-family="sans-serif" font-size="11" lengthAdjust="spacing" textLength="10" x="176" y="1000.7168">&#50696;</text><text fill="#000000" font-family="sans-serif" font-size="12" lengthAdjust="spacing" textLength="80" x="132" y="982.6606">&#50976;&#51200; &#52852;&#46300; &#53364;&#47533;?</text><text fill="#000000" font-family="sans-serif" font-size="11" lengthAdjust="spacing" textLength="30" x="224" y="975.9121">&#50500;&#45768;&#50724;</text><polygon fill="#F1F1F1" points="110,864.1353,234,864.1353,246,876.1353,234,888.1353,110,888.1353,98,876.1353,110,864.1353" style="stroke:#181818;stroke-width:0.5;"/><text fill="#000000" font-family="sans-serif" font-size="11" lengthAdjust="spacing" textLength="10" x="176" y="898.3457">&#50696;</text><text fill="#000000" font-family="sans-serif" font-size="12" lengthAdjust="spacing" textLength="124" x="110" y="880.2896">"&#51096;&#54616;&#45716; &#50976;&#51200; n&#47749;" &#48260;&#53948;?</text><text fill="#000000" font-family="sans-serif" font-size="11" lengthAdjust="spacing" textLength="30" x="68" y="873.541">&#50500;&#45768;&#50724;</text><polygon fill="#F1F1F1" points="172,1141.3931,184,1153.3931,172,1165.3931,160,1153.3931,172,1141.3931" style="stroke:#181818;stroke-width:0.5;"/><rect fill="#F1F1F1" height="33.9688" rx="12.5" ry="12.5" style="stroke:#181818;stroke-width:0.5;" width="208" x="68" y="1185.3931"/><text fill="#000000" font-family="sans-serif" font-size="12" lengthAdjust="spacing" textLength="188" x="78" y="1206.5317">&#54364; &#51069;&#44592; (&#47784;&#45944; &#50696;&#52769;&#51060; &#50500;&#45772; &#44288;&#52272; &#49849;&#47456;)</text><ellipse cx="172" cy="1250.3618" fill="none" rx="11" ry="11" style="stroke:#222222;stroke-width:1.0;"/><ellipse cx="172" cy="1250.3618" fill="#222222" rx="6" ry="6" style="stroke:#222222;stroke-width:1.0;"/><line style="stroke:#000000;stroke-width:1.5;" x1="15" x2="15" y1="50.042" y2="1261.3618"/><rect fill="#F1F1F1" height="33.9688" rx="12.5" ry="12.5" style="stroke:#181818;stroke-width:0.5;" width="301" x="351.5" y="169.9639"/><text fill="#000000" font-family="sans-serif" font-size="12" lengthAdjust="spacing" textLength="281" x="361.5" y="191.1025">&#54856; &#50836;&#49548; &#49704;&#44608; &#183; &#47672;&#47532;&#44544; "&#47560;&#49828;&#53552; &#51060;&#49345; &#49556;&#47196;&#47021;&#53356; &#44288;&#52272; &#49849;&#47456;"</text><rect fill="#F1F1F1" height="33.9688" rx="12.5" ry="12.5" style="stroke:#181818;stroke-width:0.5;" width="307" x="348.5" y="223.9326"/><text fill="#000000" font-family="sans-serif" font-size="12" lengthAdjust="spacing" textLength="287" x="358.5" y="245.0713">Data Dragon &#48260;&#51204; &#183; &#54620;&#44544; &#52308;&#54588;&#50616; &#51060;&#47492; (&#49892;&#54056;&#54644;&#46020; &#51652;&#54665;)</text><rect fill="#F1F1F1" height="33.9688" rx="12.5" ry="12.5" style="stroke:#181818;stroke-width:0.5;" width="219" x="392.5" y="321.9014"/><text fill="#000000" font-family="sans-serif" font-size="12" lengthAdjust="spacing" textLength="199" x="402.5" y="343.04">GET /api/champions[?position=]</text><rect fill="#F1F1F1" height="33.9688" rx="12.5" ry="12.5" style="stroke:#181818;stroke-width:0.5;" width="68" x="468" y="478.2412"/><text fill="#000000" font-family="sans-serif" font-size="12" lengthAdjust="spacing" textLength="48" x="478" y="499.3799">&#50504;&#45236; &#54364;&#49884;</text><ellipse cx="502" cy="543.21" fill="none" rx="11" ry="11" style="stroke:#222222;stroke-width:1.0;"/><ellipse cx="502" cy="543.21" fill="#222222" rx="6" ry="6" style="stroke:#222222;stroke-width:1.0;"/><rect fill="#F1F1F1" height="61.9063" rx="12.5" ry="12.5" style="stroke:#181818;stroke-width:0.5;" width="208" x="398" y="604.6123"/><text fill="#000000" font-family="sans-serif" font-size="12" lengthAdjust="spacing" textLength="188" x="408" y="625.751">&#46972;&#51064; &#54596;&#53552; &#183; 10&#54032; &#48120;&#47564; low_sample</text><text fill="#000000" font-family="sans-serif" font-size="12" lengthAdjust="spacing" textLength="188" x="408" y="639.7197">"&#54364;&#48376; &#52649;&#48516; &#47676;&#51200;, &#49849;&#47456; &#45236;&#47548;&#52264;&#49692;" &#51221;&#47148;</text><text fill="#000000" font-family="sans-serif" font-size="12" lengthAdjust="spacing" textLength="186" x="408" y="653.6885">meta &#183; top_players(&#52572;&#45824; 5) &#48512;&#52265;</text><rect fill="#F1F1F1" height="33.9688" rx="12.5" ry="12.5" style="stroke:#181818;stroke-width:0.5;" width="77" x="463.5" y="686.5186"/><text fill="#000000" font-family="sans-serif" font-size="12" lengthAdjust="spacing" textLength="57" x="473.5" y="707.6572">200 JSON</text><rect fill="#F1F1F1" height="47.9375" rx="12.5" ry="12.5" style="stroke:#181818;stroke-width:0.5;" width="266" x="369" y="740.4873"/><text fill="#000000" font-family="sans-serif" font-size="12" lengthAdjust="spacing" textLength="235" x="379" y="761.626">&#47700;&#53440; &#47928;&#44396; (&#44221;&#44592; &#49688; &#183; &#44592;&#44036; &#183; &#54056;&#52824; &#183; &#44081;&#49888; &#183; &#51221;&#51032;)</text><text fill="#000000" font-family="sans-serif" font-size="12" lengthAdjust="spacing" textLength="246" x="379" y="775.5947">&#54364;: &#49692;&#50948; &#183; &#52488;&#49345;+&#54620;&#44544;&#47749; &#183; &#46972;&#51064; &#183; &#49849;&#47456; &#47561;&#45824; &#183; &#54364;&#48376;</text><polygon fill="#F1F1F1" points="502,277.9014,514,289.9014,502,301.9014,490,289.9014,502,277.9014" style="stroke:#181818;stroke-width:0.5;"/><rect fill="#F1F1F1" height="33.9688" rx="12.5" ry="12.5" style="stroke:#181818;stroke-width:0.5;" width="194" x="405" y="912.5376"/><text fill="#000000" font-family="sans-serif" font-size="12" lengthAdjust="spacing" textLength="174" x="415" y="933.6763">&#50976;&#51200; &#52852;&#46300;(&#51060;&#47492; &#183; &#54032;&#49688; &#183; &#49849;&#47456;) &#53664;&#44544;</text><rect fill="#F1F1F1" height="33.9688" rx="12.5" ry="12.5" style="stroke:#181818;stroke-width:0.5;" width="283" x="360.5" y="1014.9087"/><text fill="#000000" font-family="sans-serif" font-size="12" lengthAdjust="spacing" textLength="263" x="370.5" y="1036.0474">&#44160;&#49353;&#52285;&#50640; Riot ID &#8594; &#54856; &#53485; &#8594; UC3 &#49884;&#51089; (&#54868;&#47732; &#51060;&#46041;)</text><ellipse cx="502" cy="1088.3931" fill="none" rx="11" ry="11" style="stroke:#222222;stroke-width:1.0;"/><ellipse cx="502" cy="1088.3931" fill="#222222" rx="6" ry="6" style="stroke:#222222;stroke-width:1.0;"/><line style="stroke:#000000;stroke-width:1.5;" x1="342.5" x2="342.5" y1="50.042" y2="1261.3618"/><rect fill="#F1F1F1" height="33.9688" rx="12.5" ry="12.5" style="stroke:#181818;stroke-width:0.5;" width="128" x="700" y="424.2725"/><text fill="#000000" font-family="sans-serif" font-size="12" lengthAdjust="spacing" textLength="108" x="710" y="445.4111">&#48712; &#47785;&#47197; &#183; &#49828;&#45253;&#49399; &#50630;&#51020;</text><polygon fill="#F1F1F1" points="686.5,375.8701,841.5,375.8701,853.5,387.8701,841.5,399.8701,686.5,399.8701,674.5,387.8701,686.5,375.8701" style="stroke:#181818;stroke-width:0.5;"/><text fill="#000000" font-family="sans-serif" font-size="11" lengthAdjust="spacing" textLength="30" x="768" y="410.0806">&#50500;&#45768;&#50724;</text><text fill="#000000" font-family="sans-serif" font-size="12" lengthAdjust="spacing" textLength="155" x="686.5" y="392.0244">champion_stats.csv &#51080;&#51020;?</text><text fill="#000000" font-family="sans-serif" font-size="11" lengthAdjust="spacing" textLength="10" x="853.5" y="385.2759">&#50696;</text><line style="stroke:#000000;stroke-width:1.5;" x1="659.5" x2="659.5" y1="50.042" y2="1261.3618"/><line style="stroke:#000000;stroke-width:1.5;" x1="884.5" x2="884.5" y1="50.042" y2="1261.3618"/><line style="stroke:#181818;stroke-width:1.0;" x1="172" x2="172" y1="95.9951" y2="115.9951"/><polygon fill="#181818" points="168,105.9951,172,115.9951,176,105.9951,172,109.9951" style="stroke:#181818;stroke-width:1.0;"/><line style="stroke:#181818;stroke-width:1.0;" x1="224" x2="323.5" y1="978.5063" y2="978.5063"/><polygon fill="#181818" points="319.5,1047.3931,323.5,1057.3931,327.5,1047.3931,323.5,1051.3931" style="stroke:#181818;stroke-width:1.0;"/><line style="stroke:#181818;stroke-width:1.0;" x1="323.5" x2="323.5" y1="978.5063" y2="1121.3931"/><line style="stroke:#181818;stroke-width:1.0;" x1="323.5" x2="172" y1="1121.3931" y2="1121.3931"/><line style="stroke:#181818;stroke-width:1.0;" x1="172" x2="172" y1="1121.3931" y2="1141.3931"/><polygon fill="#181818" points="168,1131.3931,172,1141.3931,176,1131.3931,172,1135.3931" style="stroke:#181818;stroke-width:1.0;"/><line style="stroke:#181818;stroke-width:1.0;" x1="98" x2="34" y1="876.1353" y2="876.1353"/><polygon fill="#181818" points="30,1006.9087,34,1016.9087,38,1006.9087,34,1010.9087" style="stroke:#181818;stroke-width:1.0;"/><line style="stroke:#181818;stroke-width:1.0;" x1="34" x2="34" y1="876.1353" y2="1153.3931"/><line style="stroke:#181818;stroke-width:1.0;" x1="34" x2="160" y1="1153.3931" y2="1153.3931"/><polygon fill="#181818" points="150,1149.3931,160,1153.3931,150,1157.3931,154,1153.3931" style="stroke:#181818;stroke-width:1.0;"/><line style="stroke:#181818;stroke-width:1.0;" x1="172" x2="172" y1="832.4248" y2="864.1353"/><polygon fill="#181818" points="168,854.1353,172,864.1353,176,854.1353,172,858.1353" style="stroke:#181818;stroke-width:1.0;"/><line style="stroke:#181818;stroke-width:1.0;" x1="172" x2="172" y1="1165.3931" y2="1185.3931"/><polygon fill="#181818" points="168,1175.3931,172,1185.3931,176,1175.3931,172,1179.3931" style="stroke:#181818;stroke-width:1.0;"/><line style="stroke:#181818;stroke-width:1.0;" x1="172" x2="172" y1="1219.3618" y2="1239.3618"/><polygon fill="#181818" points="168,1229.3618,172,1239.3618,176,1229.3618,172,1233.3618" style="stroke:#181818;stroke-width:1.0;"/><line style="stroke:#181818;stroke-width:1.0;" x1="502" x2="502" y1="203.9326" y2="223.9326"/><polygon fill="#181818" points="498,213.9326,502,223.9326,506,213.9326,502,217.9326" style="stroke:#181818;stroke-width:1.0;"/><line style="stroke:#181818;stroke-width:1.0;" x1="502" x2="502" y1="512.21" y2="532.21"/><polygon fill="#181818" points="498,522.21,502,532.21,506,522.21,502,526.21" style="stroke:#181818;stroke-width:1.0;"/><line style="stroke:#181818;stroke-width:1.0;" x1="502" x2="502" y1="666.5186" y2="686.5186"/><polygon fill="#181818" points="498,676.5186,502,686.5186,506,676.5186,502,680.5186" style="stroke:#181818;stroke-width:1.0;"/><line style="stroke:#181818;stroke-width:1.0;" x1="502" x2="502" y1="720.4873" y2="740.4873"/><polygon fill="#181818" points="498,730.4873,502,740.4873,506,730.4873,502,734.4873" style="stroke:#181818;stroke-width:1.0;"/><line style="stroke:#181818;stroke-width:1.0;" x1="502" x2="502" y1="301.9014" y2="321.9014"/><polygon fill="#181818" points="498,311.9014,502,321.9014,506,311.9014,502,315.9014" style="stroke:#181818;stroke-width:1.0;"/><line style="stroke:#181818;stroke-width:1.0;" x1="502" x2="502" y1="257.9014" y2="277.9014"/><polygon fill="#181818" points="498,267.9014,502,277.9014,506,267.9014,502,271.9014" style="stroke:#181818;stroke-width:1.0;"/><line style="stroke:#181818;stroke-width:1.0;" x1="502" x2="502" y1="1048.8774" y2="1077.3931"/><polygon fill="#181818" points="498,1067.3931,502,1077.3931,506,1067.3931,502,1071.3931" style="stroke:#181818;stroke-width:1.0;"/><line style="stroke:#181818;stroke-width:1.0;" x1="764" x2="764" y1="399.8701" y2="424.2725"/><polygon fill="#181818" points="760,414.2725,764,424.2725,768,414.2725,764,418.2725" style="stroke:#181818;stroke-width:1.0;"/><line style="stroke:#181818;stroke-width:1.0;" x1="853.5" x2="865.5" y1="387.8701" y2="387.8701"/><polygon fill="#181818" points="861.5,484.9912,865.5,494.9912,869.5,484.9912,865.5,488.9912" style="stroke:#181818;stroke-width:1.0;"/><line style="stroke:#181818;stroke-width:1.0;" x1="865.5" x2="865.5" y1="387.8701" y2="589.6123"/><line style="stroke:#181818;stroke-width:1.0;" x1="865.5" x2="502" y1="589.6123" y2="589.6123"/><line style="stroke:#181818;stroke-width:1.0;" x1="502" x2="502" y1="589.6123" y2="604.6123"/><polygon fill="#181818" points="498,594.6123,502,604.6123,506,594.6123,502,598.6123" style="stroke:#181818;stroke-width:1.0;"/><line style="stroke:#181818;stroke-width:1.0;" x1="172" x2="172" y1="149.9639" y2="154.9639"/><line style="stroke:#181818;stroke-width:1.0;" x1="172" x2="502" y1="154.9639" y2="154.9639"/><line style="stroke:#181818;stroke-width:1.0;" x1="502" x2="502" y1="154.9639" y2="169.9639"/><polygon fill="#181818" points="498,159.9639,502,169.9639,506,159.9639,502,163.9639" style="stroke:#181818;stroke-width:1.0;"/><line style="stroke:#181818;stroke-width:1.0;" x1="764" x2="764" y1="458.2412" y2="463.2412"/><line style="stroke:#181818;stroke-width:1.0;" x1="764" x2="502" y1="463.2412" y2="463.2412"/><line style="stroke:#181818;stroke-width:1.0;" x1="502" x2="502" y1="463.2412" y2="478.2412"/><polygon fill="#181818" points="498,468.2412,502,478.2412,506,468.2412,502,472.2412" style="stroke:#181818;stroke-width:1.0;"/><line style="stroke:#181818;stroke-width:1.0;" x1="502" x2="502" y1="355.8701" y2="360.8701"/><line style="stroke:#181818;stroke-width:1.0;" x1="502" x2="764" y1="360.8701" y2="360.8701"/><line style="stroke:#181818;stroke-width:1.0;" x1="764" x2="764" y1="360.8701" y2="375.8701"/><polygon fill="#181818" points="760,365.8701,764,375.8701,768,365.8701,764,369.8701" style="stroke:#181818;stroke-width:1.0;"/><line style="stroke:#181818;stroke-width:1.0;" x1="218.5" x2="422.125" y1="820.4248" y2="820.4248"/><polygon fill="#181818" points="418.125,565.1631,422.125,555.1631,426.125,565.1631,422.125,561.1631" style="stroke:#181818;stroke-width:1.0;"/><line style="stroke:#181818;stroke-width:1.0;" x1="422.125" x2="422.125" y1="289.9014" y2="820.4248"/><line style="stroke:#181818;stroke-width:1.0;" x1="422.125" x2="490" y1="289.9014" y2="289.9014"/><polygon fill="#181818" points="480,285.9014,490,289.9014,480,293.9014,484,289.9014" style="stroke:#181818;stroke-width:1.0;"/><line style="stroke:#181818;stroke-width:1.0;" x1="502" x2="502" y1="788.4248" y2="793.4248"/><line style="stroke:#181818;stroke-width:1.0;" x1="502" x2="172" y1="793.4248" y2="793.4248"/><line style="stroke:#181818;stroke-width:1.0;" x1="172" x2="172" y1="793.4248" y2="808.4248"/><polygon fill="#181818" points="168,798.4248,172,808.4248,176,798.4248,172,802.4248" style="stroke:#181818;stroke-width:1.0;"/><line style="stroke:#181818;stroke-width:1.0;" x1="172" x2="172" y1="990.5063" y2="1002.7075"/><line style="stroke:#181818;stroke-width:1.0;" x1="172" x2="502" y1="1002.7075" y2="1002.7075"/><line style="stroke:#181818;stroke-width:1.0;" x1="502" x2="502" y1="1002.7075" y2="1014.9087"/><polygon fill="#181818" points="498,1004.9087,502,1014.9087,506,1004.9087,502,1008.9087" style="stroke:#181818;stroke-width:1.0;"/><line style="stroke:#181818;stroke-width:1.0;" x1="502" x2="502" y1="946.5063" y2="951.5063"/><line style="stroke:#181818;stroke-width:1.0;" x1="502" x2="172" y1="951.5063" y2="951.5063"/><line style="stroke:#181818;stroke-width:1.0;" x1="172" x2="172" y1="951.5063" y2="966.5063"/><polygon fill="#181818" points="168,956.5063,172,966.5063,176,956.5063,172,960.5063" style="stroke:#181818;stroke-width:1.0;"/><line style="stroke:#181818;stroke-width:1.0;" x1="172" x2="172" y1="888.1353" y2="900.3364"/><line style="stroke:#181818;stroke-width:1.0;" x1="172" x2="502" y1="900.3364" y2="900.3364"/><line style="stroke:#181818;stroke-width:1.0;" x1="502" x2="502" y1="900.3364" y2="912.5376"/><polygon fill="#181818" points="498,902.5376,502,912.5376,506,902.5376,502,906.5376" style="stroke:#181818;stroke-width:1.0;"/><text fill="#000000" font-family="sans-serif" font-size="18" lengthAdjust="spacing" textLength="51" x="153.25" y="66.75">&#51060;&#50857;&#51088;</text><text fill="#000000" font-family="sans-serif" font-size="18" lengthAdjust="spacing" textLength="34" x="484" y="66.75">&#54868;&#47732;</text><text fill="#000000" font-family="sans-serif" font-size="18" lengthAdjust="spacing" textLength="185" x="679.5" y="66.75">&#48177;&#50644;&#46300; api_champions</text><!--SRC=[RLHVJzjM57_tfpXANnnjNQ7L-c0qLHkKQNlOf7PzcYhaWG6hmOvYhwXJ7iBYHeQuQjeb9I0dCXA310KjfIauKlhIZx97d-Fli7FjG4BNjolVy-VtxzfweXjvjQ1km6_gyfErWlcxiJ9lvim2t5YyipXx_pl9kggmrjKLSrCtrc1LpLdQr8swREjFTVlPecdO3_K_D9YzFNLhcBOskPcLRDtEQV3jmisxy6Z-Bj3RUbmVqPlmumMsHjGAyPq3j3F4lmEWWtwyxqbIaLe3skzIkrQKB5ijs9AIeVT-T36Qj8zxCX2NJo7U6k3HASZOhE5E7MuihwiR-UoSL8ptwjWT52KbtdE1zkjKyO3SJZGimSSBm4w8HxqeB446ZrtQEOoTFeZTvIsWIXqFV6oVnbizY0ObwlSlLyv9oe9ggx1GKDTC0_3CeS0Hy-A6BuPDOMmnBWTagXx6NYTk3F0baprsuZVRZAwWvJNLbW2Kx-__0hVKl7uh0QwRXlNhlRnfwJOVltaynoL5xB-btJh-vGFNBLtL5VbENmNvyiCIwsLRNorRJu7QBhMyUrcmrpM3CJGShBhKFCno2-_4eGjuqiM3be3EvB7ydCfysgrmsrnITALVqa4D5_ySGFpAfwgV5bYscUU3nW7X3KrNpDQC5NrLi4hzPLKSeIilcPs9lHhWFo4UUv0pDvSi1ftJk3R3G_4T2tRUnNE7ZHbHKFhoCXUy5Oz6rE-GwsU0WWO6FMxQqDW47iiObl8vzPbMi6IE2Neb-3eBUCwUTGLCvVRC3FpuyEUV4Y4db1JirkDo2R0NHkzx84Td7wAGNNQROYeVetvggzUXOVgDJQW6YLv1WrfDGPUHAzpZavyKqy3b-7oHHW5FdYSvIuL8P4u97MyBb69smZi1DXNwD1cmkQxpqv77xJJiZeFEdkfMehS2qKKuda_-Y1CBM3raUxBY7LupNQGaG-rct6YADq9-m1A3mH0p8iBnpcWIbTJ8QQd6vJGSS0JbSQuJRMfZlL9gMOWh0JF_b56QqcjJ9cIkRVqqTT5PYShRrFz0kpLue3Eh7nRWtyfh44zQF7vnVZH_1vWrjL-1d7OdR-_bNlPpEPr-2MbQ_tUHVfvceB1LF3I9Y8md7Np1bZHT2W-u299Mx_gFWdUBlVy1]--></g></svg>