<?xml version="1.0" encoding="us-ascii" standalone="no"?><svg xmlns="http://www.w3.org/2000/svg" xmlns:xlink="http://www.w3.org/1999/xlink" contentStyleType="text/css" height="1228px" preserveAspectRatio="none" style="width:2299px;height:1228px;background:#F3F1EB;" version="1.1" viewBox="0 0 2299 1228" width="2299px" zoomAndPan="magnify"><defs/><g><rect fill="#F3F1EB" height="1228" style="stroke:none;stroke-width:1.0;" width="2299" x="0" y="0"/><text fill="#000000" font-family="sans-serif" font-size="14" font-weight="bold" lengthAdjust="spacing" textLength="569" x="863.75" y="32.9951">BP-0 LOLEX &#48708;&#51592;&#45768;&#49828; &#54532;&#47196;&#49464;&#49828; &#51204;&#52404; &#51312;&#44048; (Level 0) &#8212; &#54532;&#47196;&#49464;&#49828; &#50689;&#50669; A~D &#50752; UC 14&#44148;</text><rect fill="none" height="20.9531" style="stroke:none;stroke-width:1.0;" width="2266.5" x="15" y="50.042"/><ellipse cx="128" cy="85.9951" fill="#222222" rx="10" ry="10" style="stroke:#222222;stroke-width:1.0;"/><path d="M237.5,119.8311 L237.5,135.9639 L217.5,139.9639 L237.5,143.9639 L237.5,160.0967 A0,0 0 0 0 237.5,160.0967 L538.5,160.0967 A0,0 0 0 0 538.5,160.0967 L538.5,129.8311 L528.5,119.8311 L237.5,119.8311 A0,0 0 0 0 237.5,119.8311 " fill="#FFFDF5" style="stroke:#181818;stroke-width:0.5;"/><path d="M528.5,119.8311 L528.5,129.8311 L538.5,129.8311 L528.5,119.8311 " fill="#FFFDF5" style="stroke:#181818;stroke-width:0.5;"/><text fill="#000000" font-family="sans-serif" font-size="13" lengthAdjust="spacing" textLength="280" x="243.5" y="136.8979">&#49328;&#52636;: .env &#51032; RIOT_API_KEY &#183; &#48177;&#50644;&#46300; riot_ready</text><text fill="#000000" font-family="sans-serif" font-size="13" lengthAdjust="spacing" textLength="217" x="243.5" y="152.0308">UC3&#183;UC4&#183;UC10 &#51032; &#49324;&#51204;&#51312;&#44148;&#51012; &#47564;&#46304;&#45796;</text><rect fill="#FFFFFF" height="47.9375" rx="12.5" ry="12.5" style="stroke:#181818;stroke-width:0.5;" width="179" x="38.5" y="115.9951"/><text fill="#000000" font-family="sans-serif" font-size="12" lengthAdjust="spacing" textLength="151" x="48.5" y="137.1338">UC14 Riot API &#53412; &#44081;&#49888;&#183;&#44160;&#51613;</text><text fill="#000000" font-family="sans-serif" font-size="12" lengthAdjust="spacing" textLength="159" x="48.5" y="151.1025">(&#44060;&#48156;&#50857; &#53412;&#45716; 24&#49884;&#44036;&#47560;&#45796; &#47564;&#47308;)</text><path d="M255,688.1782 L255,704.311 L235,708.311 L255,712.311 L255,728.4438 A0,0 0 0 0 255,728.4438 L477,728.4438 A0,0 0 0 0 477,728.4438 L477,698.1782 L467,688.1782 L255,688.1782 A0,0 0 0 0 255,688.1782 " fill="#FFFDF5" style="stroke:#181818;stroke-width:0.5;"/><path d="M467,688.1782 L467,698.1782 L477,698.1782 L467,688.1782 " fill="#FFFDF5" style="stroke:#181818;stroke-width:0.5;"/><text fill="#000000" font-family="sans-serif" font-size="13" lengthAdjust="spacing" textLength="201" x="261" y="705.2451">&#171;include&#187; UC12 &#8212; &#51116;&#49884;&#51089; &#46244; &#54637;&#49345;</text><text fill="#000000" font-family="sans-serif" font-size="13" lengthAdjust="spacing" textLength="164" x="261" y="720.3779">&#54028;&#47532;&#54000; 6&#44148; &#183; API &#49828;&#47784;&#53356; 11&#44148;</text><rect fill="#FFFFFF" height="47.9375" rx="12.5" ry="12.5" style="stroke:#181818;stroke-width:0.5;" width="214" x="21" y="684.3423"/><text fill="#000000" font-family="sans-serif" font-size="12" lengthAdjust="spacing" textLength="152" x="31" y="705.481">UC13 &#54016; &#49436;&#48260; &#48176;&#54252;&#183;&#49345;&#53468; &#54869;&#51064;</text><text fill="#000000" font-family="sans-serif" font-size="12" lengthAdjust="spacing" textLength="194" x="31" y="719.4497">(pull &#8594; restart &#8594; test &#8594; status)</text><line style="stroke:#000000;stroke-width:1.5;" x1="15" x2="15" y1="50.042" y2="1216.2017"/><rect fill="#FFFFFF" height="33.9688" rx="12.5" ry="12.5" style="stroke:#181818;stroke-width:0.5;" width="177" x="563" y="183.9326"/><text fill="#000000" font-family="sans-serif" font-size="12" lengthAdjust="spacing" textLength="157" x="573" y="205.0713">&#53076;&#46300;&#183;&#47928;&#49436; &#48320;&#44221; (team &#48652;&#47004;&#52824;)</text><rect fill="#FFFFFF" height="33.9688" rx="12.5" ry="12.5" style="stroke:#181818;stroke-width:0.5;" width="142" x="580.5" y="286.3037"/><text fill="#000000" font-family="sans-serif" font-size="12" lengthAdjust="spacing" textLength="122" x="590.5" y="307.4424">UC11 &#47784;&#45944; &#51116;&#54788;&#183;&#51116;&#54617;&#49845;</text><rect fill="#FFFFFF" height="47.9375" rx="12.5" ry="12.5" style="stroke:#181818;stroke-width:0.5;" width="167" x="568" y="350.7881"/><text fill="#000000" font-family="sans-serif" font-size="12" lengthAdjust="spacing" textLength="96" x="578" y="371.9268">&#44264;&#46304; &#51221;&#45813;&#51648; &#51116;&#49373;&#49457;</text><text fill="#000000" font-family="sans-serif" font-size="12" lengthAdjust="spacing" textLength="147" x="578" y="385.8955">(tests/make_golden.py)</text><polygon fill="#FFF8E1" points="582.5,237.9014,720.5,237.9014,732.5,249.9014,720.5,261.9014,582.5,261.9014,570.5,249.9014,582.5,237.9014" style="stroke:#181818;stroke-width:0.5;"/><text fill="#000000" font-family="sans-serif" font-size="11" lengthAdjust="spacing" textLength="10" x="655.5" y="272.1118">&#50696;</text><text fill="#000000" font-family="sans-serif" font-size="11" lengthAdjust="spacing" textLength="138" x="582.5" y="253.7095">&#45936;&#51060;&#53552;&#183;&#54588;&#52376;&#183;&#47784;&#45944;&#51012; &#48148;&#44984;&#45716;&#44032;?</text><text fill="#000000" font-family="sans-serif" font-size="11" lengthAdjust="spacing" textLength="30" x="732.5" y="247.3071">&#50500;&#45768;&#50724;</text><polygon fill="#FFF8E1" points="651.5,418.7256,663.5,430.7256,651.5,442.7256,639.5,430.7256,651.5,418.7256" style="stroke:#181818;stroke-width:0.5;"/><rect fill="#FFFFFF" height="47.9375" rx="12.5" ry="12.5" style="stroke:#181818;stroke-width:0.5;" width="172" x="565.5" y="506.7256"/><text fill="#000000" font-family="sans-serif" font-size="12" lengthAdjust="spacing" textLength="148" x="575.5" y="527.8643">UC12 &#49436;&#48729; &#44228;&#50557;&#183;&#54028;&#47532;&#54000; &#44160;&#51613;</text><text fill="#000000" font-family="sans-serif" font-size="12" lengthAdjust="spacing" textLength="152" x="575.5" y="541.833">(check_project.sh verify)</text><polygon fill="#FFF8E1" points="651.5,462.7256,663.5,474.7256,651.5,486.7256,639.5,474.7256,651.5,462.7256" style="stroke:#181818;stroke-width:0.5;"/><polygon fill="#FFF8E1" points="604.5,574.6631,698.5,574.6631,710.5,586.6631,698.5,598.6631,604.5,598.6631,592.5,586.6631,604.5,574.6631" style="stroke:#181818;stroke-width:0.5;"/><text fill="#000000" font-family="sans-serif" font-size="11" lengthAdjust="spacing" textLength="93" x="655.5" y="608.8735">&#50500;&#45768;&#50724; &#8212; &#51204;&#48512; &#53685;&#44284;</text><text fill="#000000" font-family="sans-serif" font-size="11" lengthAdjust="spacing" textLength="94" x="604.5" y="590.4712">&#49892;&#54056; &#54637;&#47785;&#51060; &#51080;&#45716;&#44032;?</text><text fill="#000000" font-family="sans-serif" font-size="11" lengthAdjust="spacing" textLength="87" x="710.5" y="584.0688">&#50696; &#8212; &#44256;&#52828; &#46244; &#45796;&#49884;</text><rect fill="#FFFFFF" height="33.9688" rx="12.5" ry="12.5" style="stroke:#181818;stroke-width:0.5;" width="204" x="549.5" y="630.3735"/><text fill="#000000" font-family="sans-serif" font-size="12" lengthAdjust="spacing" textLength="184" x="559.5" y="651.5122">&#52964;&#48139; &#183; GitHub team &#48652;&#47004;&#52824; push</text><line style="stroke:#000000;stroke-width:1.5;" x1="543.5" x2="543.5" y1="50.042" y2="1216.2017"/><rect fill="#FFFFFF" height="33.9688" rx="12.5" ry="12.5" style="stroke:#181818;stroke-width:0.5;" width="186" x="808.5" y="752.2798"/><text fill="#000000" font-family="sans-serif" font-size="12" lengthAdjust="spacing" textLength="166" x="818.5" y="773.4185">UC9 &#54532;&#47196; &#44221;&#44592; &#51068;&#51221; &#49828;&#45253;&#49399; &#49688;&#51665;</text><path d="M1006.5,796.2485 L1006.5,827.5142 L986.5,831.5142 L1006.5,835.5142 L1006.5,866.7798 A0,0 0 0 0 1006.5,866.7798 L1263.5,866.7798 A0,0 0 0 0 1263.5,866.7798 L1263.5,806.2485 L1253.5,796.2485 L1006.5,796.2485 A0,0 0 0 0 1006.5,796.2485 " fill="#FFFDF5" style="stroke:#181818;stroke-width:0.5;"/><path d="M1253.5,796.2485 L1253.5,806.2485 L1263.5,806.2485 L1253.5,796.2485 " fill="#FFFDF5" style="stroke:#181818;stroke-width:0.5;"/><text fill="#000000" font-family="sans-serif" font-size="13" lengthAdjust="spacing" textLength="231" x="1012.5" y="813.3154">&#49328;&#52636;: reports/tables &#51032; schedule.csv &#183;</text><text fill="#000000" font-family="sans-serif" font-size="13" lengthAdjust="spacing" textLength="211" x="1012.5" y="828.4482">champion_stats.csv &#183; ranking.csv</text><text fill="#000000" font-family="sans-serif" font-size="13" lengthAdjust="spacing" textLength="236" x="1012.5" y="843.5811">&#49436;&#48708;&#49828;&#45716; &#51116;&#49884;&#51089; &#50630;&#51060; &#45796;&#51020; &#50836;&#52397;&#48512;&#53552; &#51069;&#45716;&#45796;</text><text fill="#000000" font-family="sans-serif" font-size="13" lengthAdjust="spacing" textLength="232" x="1012.5" y="858.7139">(B &#45716; &#46021;&#47549; &#48176;&#52824; &#8212; &#50668;&#44592; &#49692;&#49436;&#45716; &#51069;&#44592; &#54200;&#51032;)</text><rect fill="#FFFFFF" height="47.9375" rx="12.5" ry="12.5" style="stroke:#181818;stroke-width:0.5;" width="170" x="816.5" y="807.5454"/><text fill="#000000" font-family="sans-serif" font-size="12" lengthAdjust="spacing" textLength="150" x="826.5" y="828.6841">UC10 Riot &#54364;&#48376; &#49828;&#45253;&#49399; &#49688;&#51665;</text><text fill="#000000" font-family="sans-serif" font-size="12" lengthAdjust="spacing" textLength="135" x="826.5" y="842.6528">(&#52308;&#54588;&#50616;&#183;&#46972;&#51064; &#8594; &#49345;&#50948; &#47021;&#53433;)</text><line style="stroke:#000000;stroke-width:1.5;" x1="802.5" x2="802.5" y1="50.042" y2="1216.2017"/><rect fill="#FFFFFF" height="47.9375" rx="12.5" ry="12.5" style="stroke:#181818;stroke-width:0.5;" width="242" x="1659" y="886.7798"/><text fill="#000000" font-family="sans-serif" font-size="12" lengthAdjust="spacing" textLength="222" x="1669" y="907.9185">&#49436;&#48708;&#49828; &#51217;&#49549; &#183; UC5 &#50696;&#52769; &#49888;&#47280;&#46020;&#183;&#48516;&#49437; &#47532;&#54252;&#53944;</text><text fill="#000000" font-family="sans-serif" font-size="12" lengthAdjust="spacing" textLength="121" x="1669" y="921.8872">(&#52395; &#54868;&#47732;&#50640;&#49436; &#51088;&#46041; &#47196;&#46300;)</text><polygon fill="#FFF8E1" points="1718,954.7173,1842,954.7173,1854,966.7173,1842,978.7173,1718,978.7173,1706,966.7173,1718,954.7173" style="stroke:#181818;stroke-width:0.5;"/><text fill="#000000" font-family="sans-serif" font-size="11" lengthAdjust="spacing" textLength="124" x="1718" y="970.5254">&#51060;&#50857;&#51088;&#44032; &#47924;&#50631;&#51012; &#54616;&#47140;&#45716;&#44032;?</text><rect fill="#FFFFFF" height="33.9688" rx="12.5" ry="12.5" style="stroke:#181818;stroke-width:0.5;" width="186" x="1317.5" y="1014.3267"/><text fill="#000000" font-family="sans-serif" font-size="12" lengthAdjust="spacing" textLength="166" x="1327.5" y="1035.4653">UC3 &#49548;&#54872;&#49324; &#52572;&#44540; &#44221;&#44592; &#48373;&#44592;&#183;&#54032;&#51221;</text><rect fill="#FFFFFF" height="47.9375" rx="12.5" ry="12.5" style="stroke:#181818;stroke-width:0.5;" width="272" x="1274.5" y="1082.2642"/><text fill="#000000" font-family="sans-serif" font-size="12" lengthAdjust="spacing" textLength="74" x="1284.5" y="1103.4028">&#44221;&#44592; &#54665; &#54204;&#52824;&#44592;</text><text fill="#000000" font-family="sans-serif" font-size="12" lengthAdjust="spacing" textLength="252" x="1284.5" y="1117.3716">&#8594; UC2 &#53076;&#52845; &#171;include&#187; &#183; UC4 &#54000;&#50612; &#171;extend&#187;</text><rect fill="#FFFFFF" height="47.9375" rx="12.5" ry="12.5" style="stroke:#181818;stroke-width:0.5;" width="148" x="1556.5" y="1014.3267"/><text fill="#000000" font-family="sans-serif" font-size="12" lengthAdjust="spacing" textLength="125" x="1566.5" y="1035.4653">UC1 &#49849;&#54056; &#50696;&#52769;&#183;&#49849;&#47532;&#50836;&#51064;</text><text fill="#000000" font-family="sans-serif" font-size="12" lengthAdjust="spacing" textLength="128" x="1566.5" y="1049.4341">&#8594; UC2 &#53076;&#52845; &#171;include&#187;</text><rect fill="#FFFFFF" height="33.9688" rx="12.5" ry="12.5" style="stroke:#181818;stroke-width:0.5;" width="171" x="1742.5" y="1014.3267"/><text fill="#000000" font-family="sans-serif" font-size="12" lengthAdjust="spacing" textLength="151" x="1752.5" y="1035.4653">UC6 &#52308;&#54588;&#50616;&#183;&#46972;&#51064;&#48324; &#49849;&#47456; &#51312;&#54924;</text><rect fill="#FFFFFF" height="33.9688" rx="12.5" ry="12.5" style="stroke:#181818;stroke-width:0.5;" width="171" x="1923.5" y="1014.3267"/><text fill="#000000" font-family="sans-serif" font-size="12" lengthAdjust="spacing" textLength="151" x="1933.5" y="1035.4653">UC7 &#49556;&#47196;&#47021;&#53356; &#49345;&#50948; &#47021;&#53433; &#51312;&#54924;</text><rect fill="#FFFFFF" height="33.9688" rx="12.5" ry="12.5" style="stroke:#181818;stroke-width:0.5;" width="171" x="2104.5" y="1014.3267"/><text fill="#000000" font-family="sans-serif" font-size="12" lengthAdjust="spacing" textLength="151" x="2114.5" y="1035.4653">UC8 &#54532;&#47196; &#44221;&#44592; &#49849;&#48512;&#50696;&#52769; &#53804;&#54364;</text><polygon fill="#FFF8E1" points="1780,1150.2017,1780,1150.2017,1792,1162.2017,1780,1174.2017,1780,1174.2017,1768,1162.2017,1780,1150.2017" style="stroke:#181818;stroke-width:0.5;"/><ellipse cx="1780" cy="1205.2017" fill="none" rx="11" ry="11" style="stroke:#222222;stroke-width:1.0;"/><ellipse cx="1780" cy="1205.2017" fill="#222222" rx="6" ry="6" style="stroke:#222222;stroke-width:1.0;"/><line style="stroke:#000000;stroke-width:1.5;" x1="1268.5" x2="1268.5" y1="50.042" y2="1216.2017"/><line style="stroke:#000000;stroke-width:1.5;" x1="2279.5" x2="2279.5" y1="50.042" y2="1216.2017"/><line style="stroke:#181818;stroke-width:1.0;" x1="128" x2="128" y1="95.9951" y2="115.9951"/><polygon fill="#181818" points="124,105.9951,128,115.9951,132,105.9951,128,109.9951" style="stroke:#181818;stroke-width:1.0;"/><line style="stroke:#181818;stroke-width:1.0;" x1="651.5" x2="651.5" y1="320.2725" y2="350.7881"/><polygon fill="#181818" points="647.5,340.7881,651.5,350.7881,655.5,340.7881,651.5,344.7881" style="stroke:#181818;stroke-width:1.0;"/><line style="stroke:#181818;stroke-width:1.0;" x1="651.5" x2="651.5" y1="261.9014" y2="286.3037"/><polygon fill="#181818" points="647.5,276.3037,651.5,286.3037,655.5,276.3037,651.5,280.3037" style="stroke:#181818;stroke-width:1.0;"/><line style="stroke:#181818;stroke-width:1.0;" x1="732.5" x2="745" y1="249.9014" y2="249.9014"/><polygon fill="#181818" points="741,330.2725,745,340.2725,749,330.2725,745,334.2725" style="stroke:#181818;stroke-width:1.0;"/><line style="stroke:#181818;stroke-width:1.0;" x1="745" x2="745" y1="249.9014" y2="430.7256"/><line style="stroke:#181818;stroke-width:1.0;" x1="745" x2="663.5" y1="430.7256" y2="430.7256"/><polygon fill="#181818" points="673.5,426.7256,663.5,430.7256,673.5,434.7256,669.5,430.7256" style="stroke:#181818;stroke-width:1.0;"/><line style="stroke:#181818;stroke-width:1.0;" x1="651.5" x2="651.5" y1="398.7256" y2="418.7256"/><polygon fill="#181818" points="647.5,408.7256,651.5,418.7256,655.5,408.7256,651.5,412.7256" style="stroke:#181818;stroke-width:1.0;"/><line style="stroke:#181818;stroke-width:1.0;" x1="651.5" x2="651.5" y1="217.9014" y2="237.9014"/><polygon fill="#181818" points="647.5,227.9014,651.5,237.9014,655.5,227.9014,651.5,231.9014" style="stroke:#181818;stroke-width:1.0;"/><line style="stroke:#181818;stroke-width:1.0;" x1="651.5" x2="651.5" y1="486.7256" y2="506.7256"/><polygon fill="#181818" points="647.5,496.7256,651.5,506.7256,655.5,496.7256,651.5,500.7256" style="stroke:#181818;stroke-width:1.0;"/><line style="stroke:#181818;stroke-width:1.0;" x1="710.5" x2="749.5" y1="586.6631" y2="586.6631"/><polygon fill="#181818" points="745.5,540.6943,749.5,530.6943,753.5,540.6943,749.5,536.6943" style="stroke:#181818;stroke-width:1.0;"/><line style="stroke:#181818;stroke-width:1.0;" x1="749.5" x2="749.5" y1="474.7256" y2="586.6631"/><line style="stroke:#181818;stroke-width:1.0;" x1="749.5" x2="663.5" y1="474.7256" y2="474.7256"/><polygon fill="#181818" points="673.5,470.7256,663.5,474.7256,673.5,478.7256,669.5,474.7256" style="stroke:#181818;stroke-width:1.0;"/><line style="stroke:#181818;stroke-width:1.0;" x1="651.5" x2="651.5" y1="554.6631" y2="574.6631"/><polygon fill="#181818" points="647.5,564.6631,651.5,574.6631,655.5,564.6631,651.5,568.6631" style="stroke:#181818;stroke-width:1.0;"/><line style="stroke:#181818;stroke-width:1.0;" x1="651.5" x2="651.5" y1="442.7256" y2="462.7256"/><polygon fill="#181818" points="647.5,452.7256,651.5,462.7256,655.5,452.7256,651.5,456.7256" style="stroke:#181818;stroke-width:1.0;"/><line style="stroke:#181818;stroke-width:1.0;" x1="651.5" x2="651.5" y1="598.6631" y2="630.3735"/><polygon fill="#181818" points="647.5,620.3735,651.5,630.3735,655.5,620.3735,651.5,624.3735" style="stroke:#181818;stroke-width:1.0;"/><line style="stroke:#181818;stroke-width:1.0;" x1="901.5" x2="901.5" y1="786.2485" y2="807.5454"/><polygon fill="#181818" points="897.5,797.5454,901.5,807.5454,905.5,797.5454,901.5,801.5454" style="stroke:#181818;stroke-width:1.0;"/><line style="stroke:#181818;stroke-width:1.0;" x1="1410.5" x2="1410.5" y1="1048.2954" y2="1082.2642"/><polygon fill="#181818" points="1406.5,1072.2642,1410.5,1082.2642,1414.5,1072.2642,1410.5,1076.2642" style="stroke:#181818;stroke-width:1.0;"/><line style="stroke:#181818;stroke-width:1.0;" x1="1706" x2="1410.5" y1="966.7173" y2="966.7173"/><line style="stroke:#181818;stroke-width:1.0;" x1="1410.5" x2="1410.5" y1="966.7173" y2="1014.3267"/><polygon fill="#181818" points="1406.5,1004.3267,1410.5,1014.3267,1414.5,1004.3267,1410.5,1008.3267" style="stroke:#181818;stroke-width:1.0;"/><text fill="#000000" font-family="sans-serif" font-size="11" lengthAdjust="spacing" textLength="58" x="1410.5" y="994.3301">&#45236; &#51204;&#51201; &#48373;&#44592;</text><line style="stroke:#181818;stroke-width:1.0;" x1="1854" x2="2190" y1="966.7173" y2="966.7173"/><line style="stroke:#181818;stroke-width:1.0;" x1="2190" x2="2190" y1="966.7173" y2="1014.3267"/><polygon fill="#181818" points="2186,1004.3267,2190,1014.3267,2194,1004.3267,2190,1008.3267" style="stroke:#181818;stroke-width:1.0;"/><text fill="#000000" font-family="sans-serif" font-size="11" lengthAdjust="spacing" textLength="40" x="2190" y="994.3301">&#49849;&#48512;&#50696;&#52769;</text><line style="stroke:#181818;stroke-width:1.0;" x1="1630.5" x2="1630.5" y1="966.7173" y2="1014.3267"/><polygon fill="#181818" points="1626.5,1004.3267,1630.5,1014.3267,1634.5,1004.3267,1630.5,1008.3267" style="stroke:#181818;stroke-width:1.0;"/><text fill="#000000" font-family="sans-serif" font-size="11" lengthAdjust="spacing" textLength="92" x="1630.5" y="989.3301">&#44032;&#49345; &#44221;&#44592; &#51649;&#51217; &#51077;&#47141;</text><line style="stroke:#181818;stroke-width:1.0;" x1="1780" x2="1780" y1="978.7173" y2="990.5871"/><line style="stroke:#181818;stroke-width:1.0;" x1="1780" x2="1828" y1="990.5871" y2="990.5871"/><line style="stroke:#181818;stroke-width:1.0;" x1="1828" x2="1828" y1="990.5871" y2="1014.3267"/><polygon fill="#181818" points="1824,1004.3267,1828,1014.3267,1832,1004.3267,1828,1008.3267" style="stroke:#181818;stroke-width:1.0;"/><text fill="#000000" font-family="sans-serif" font-size="11" lengthAdjust="spacing" textLength="54" x="1780" y="995.3301">&#52308;&#54588;&#50616; &#49849;&#47456;</text><line style="stroke:#181818;stroke-width:1.0;" x1="2009" x2="2009" y1="966.7173" y2="1014.3267"/><polygon fill="#181818" points="2005,1004.3267,2009,1014.3267,2013,1004.3267,2009,1008.3267" style="stroke:#181818;stroke-width:1.0;"/><text fill="#000000" font-family="sans-serif" font-size="11" lengthAdjust="spacing" textLength="44" x="2009" y="989.3301">&#50976;&#51200; &#47021;&#53433;</text><line style="stroke:#181818;stroke-width:1.0;" x1="1410.5" x2="1410.5" y1="1130.2017" y2="1162.2017"/><line style="stroke:#181818;stroke-width:1.0;" x1="1410.5" x2="1768" y1="1162.2017" y2="1162.2017"/><polygon fill="#181818" points="1758,1158.2017,1768,1162.2017,1758,1166.2017,1762,1162.2017" style="stroke:#181818;stroke-width:1.0;"/><line style="stroke:#181818;stroke-width:1.0;" x1="2190" x2="2190" y1="1048.2954" y2="1162.2017"/><line style="stroke:#181818;stroke-width:1.0;" x1="2190" x2="1792" y1="1162.2017" y2="1162.2017"/><polygon fill="#181818" points="1802,1158.2017,1792,1162.2017,1802,1166.2017,1798,1162.2017" style="stroke:#181818;stroke-width:1.0;"/><line style="stroke:#181818;stroke-width:1.0;" x1="1630.5" x2="1630.5" y1="1062.2642" y2="1162.2017"/><polygon fill="#181818" points="1626.5,1152.2017,1630.5,1162.2017,1634.5,1152.2017,1630.5,1156.2017" style="stroke:#181818;stroke-width:1.0;"/><line style="stroke:#181818;stroke-width:1.0;" x1="1828" x2="1828" y1="1048.2954" y2="1135.2017"/><line style="stroke:#181818;stroke-width:1.0;" x1="1828" x2="1780" y1="1135.2017" y2="1135.2017"/><line style="stroke:#181818;stroke-width:1.0;" x1="1780" x2="1780" y1="1135.2017" y2="1150.2017"/><polygon fill="#181818" points="1776,1140.2017,1780,1150.2017,1784,1140.2017,1780,1144.2017" style="stroke:#181818;stroke-width:1.0;"/><line style="stroke:#181818;stroke-width:1.0;" x1="2009" x2="2009" y1="1048.2954" y2="1162.2017"/><polygon fill="#181818" points="2005,1152.2017,2009,1162.2017,2013,1152.2017,2009,1156.2017" style="stroke:#181818;stroke-width:1.0;"/><line style="stroke:#181818;stroke-width:1.0;" x1="1780" x2="1780" y1="934.7173" y2="954.7173"/><polygon fill="#181818" points="1776,944.7173,1780,954.7173,1784,944.7173,1780,948.7173" style="stroke:#181818;stroke-width:1.0;"/><line style="stroke:#181818;stroke-width:1.0;" x1="1780" x2="1780" y1="1174.2017" y2="1194.2017"/><polygon fill="#181818" points="1776,1184.2017,1780,1194.2017,1784,1184.2017,1780,1188.2017" style="stroke:#181818;stroke-width:1.0;"/><line style="stroke:#181818;stroke-width:1.0;" x1="128" x2="128" y1="163.9326" y2="168.9326"/><line style="stroke:#181818;stroke-width:1.0;" x1="128" x2="651.5" y1="168.9326" y2="168.9326"/><line style="stroke:#181818;stroke-width:1.0;" x1="651.5" x2="651.5" y1="168.9326" y2="183.9326"/><polygon fill="#181818" points="647.5,173.9326,651.5,183.9326,655.5,173.9326,651.5,177.9326" style="stroke:#181818;stroke-width:1.0;"/><line style="stroke:#181818;stroke-width:1.0;" x1="651.5" x2="651.5" y1="664.3423" y2="669.3423"/><line style="stroke:#181818;stroke-width:1.0;" x1="651.5" x2="128" y1="669.3423" y2="669.3423"/><line style="stroke:#181818;stroke-width:1.0;" x1="128" x2="128" y1="669.3423" y2="684.3423"/><polygon fill="#181818" points="124,674.3423,128,684.3423,132,674.3423,128,678.3423" style="stroke:#181818;stroke-width:1.0;"/><line style="stroke:#181818;stroke-width:1.0;" x1="128" x2="128" y1="732.2798" y2="737.2798"/><line style="stroke:#181818;stroke-width:1.0;" x1="128" x2="901.5" y1="737.2798" y2="737.2798"/><line style="stroke:#181818;stroke-width:1.0;" x1="901.5" x2="901.5" y1="737.2798" y2="752.2798"/><polygon fill="#181818" points="897.5,742.2798,901.5,752.2798,905.5,742.2798,901.5,746.2798" style="stroke:#181818;stroke-width:1.0;"/><line style="stroke:#181818;stroke-width:1.0;" x1="901.5" x2="901.5" y1="855.4829" y2="871.7798"/><line style="stroke:#181818;stroke-width:1.0;" x1="901.5" x2="1780" y1="871.7798" y2="871.7798"/><line style="stroke:#181818;stroke-width:1.0;" x1="1780" x2="1780" y1="871.7798" y2="886.7798"/><polygon fill="#181818" points="1776,876.7798,1780,886.7798,1784,876.7798,1780,880.7798" style="stroke:#181818;stroke-width:1.0;"/><text fill="#000000" font-family="sans-serif" font-size="18" lengthAdjust="spacing" textLength="221" x="168.75" y="66.75">D. &#50868;&#50689;&#183;&#48176;&#54252; &#8212; &#49436;&#48708;&#49828; &#45812;&#45817;</text><text fill="#000000" font-family="sans-serif" font-size="18" lengthAdjust="spacing" textLength="203" x="571.5" y="66.75">C. &#47784;&#45944; &#54617;&#49845;&#183;&#44160;&#51613; &#8212; &#54016;&#50896;</text><text fill="#000000" font-family="sans-serif" font-size="18" lengthAdjust="spacing" textLength="293" x="889" y="66.75">B. &#45936;&#51060;&#53552; &#49828;&#45253;&#49399; &#49688;&#51665; &#8212; &#49436;&#48708;&#49828; &#45812;&#45817;</text><text fill="#000000" font-family="sans-serif" font-size="18" lengthAdjust="spacing" textLength="236" x="1656" y="66.75">A. &#48373;&#44592;&#183;&#54032;&#51221; &#49436;&#48708;&#49828; &#8212; &#51060;&#50857;&#51088;</text><!--SRC=[ZLLBJnjN5DxFhpXID_QY50UIfc5HWI5jrAY9eYArApIn1pp5s9PdJ1e9LGOcrCLEWSG4auwHqpgGXv46ss1RmLtufsGvzyn_w3dNZ_18gdfXU-uzh-yxtpbZpEknX9fK5-2-6fgVIyPJiN0m7eqduRER8pS3KnEACR0m8ceu_a2FpS6i6ZMqCpVZ8LDVrCs74vTYoCz7B2TrTI4U2t_CuVfKu8p3zt5J-vZLvCshYgcRKGqcxdu-3BVlt9xw4KJBmlsCo6PmlGnUtX8lRBIQ_80b2wjrm1UEwso2xxQsg4LXs0_lq_aBXeLbt3c4yLyd0NVJC1s4mAXxL5UKfSaXmETrkkyqXEDu6nNfZ9RDMSbJPEiYsrfI35DDcigDwM1W5ExfSHF6xzu2RwKChdE4sLAduLRJk5zKVAvZ2yV6vw_vLgpduSeePctNiSG1OQ201pdnTyu_fiI80qZgSn5J0S0L1q_i6p2anHO1YmMuT-lE3pEKO-QxgP-Wqm11QNRougbDBd5p9gcfuOVaDnqSwJIcWwFy5HYMdhXIOLw8awCw5YsPy6c9KYjQB0oSLLaA3e5uyqeyReAtlOlhn_tokypbqlZdvf9o0zkSa8YfD8aG4BMqMss3pzIeWwAP4tisjWg4H9y5dtZiOB7kMKwduULFiLeWDvb1bk3atN-QH8RhfB_sWndHOk33GiPF29ZIGByQtAju1QlJu5zPs1XRkBLNX82wlIsontYGPZDSBQ9rHBTKZc4QNooeyzhCN3mQrc93YOTKb4PYfYJR5WkdKFOpUdrMIMe9JJLxUQzq6xqBRit2xJQLdik9_OgNTQ3NJeeVYcYX-Pb4Clwp5ZA7Z0WiQabzbbDqOy63Y1xbLDcobtj5X1wADw-92weoCu2i6nAmvDUjbR15T3vXTPL977xkofbQkn8iMU8a3TxQiLixzLCptfM5asKfVAERtwRkm_asG29bHCR-lvuP_WYtMjvLkKTiJTIlBdkhDdYxsrXiAhv4AXg5zsjF8Ad94P3_cNBvXuxCb75Hp9stUYmKJOMrpZkGBCiIg6TP6_Us971YYHAHxGV6hv5U6HuF5bLAYl2MAn08y9n-KEu4ARSlDMcs-WXN6u2P0XviVHhhLxrzG7rjkqtoB9wId2u569Ey37SdtDkoHQrvoKRnuL6UDVwiIHnJd69JSa5uq2OUzmwzbTQdvfia4q-IN4trVbGpvBmQ9B1mAgeDXOn5ma_6eOYwaD3ZiHccr-YTGrADqVwSuqSEs4V9A-O3jxYpnj9ZNHLpf8GyLWz9HfAiOfjiUG-Gg2U0_SJ68x7VvjQpWYHvEnL9JyRc11owAFdo_g11BlZFD6AS6b4xfZkUcar9ve1u6QbOfoM8UtAH36wmj8LhZndETF0ghUKCDby0xK_nboCsQF35YOLM4LWI6nLldGI8rRSanhnuNSUTJLv3559ix08ravOJyMmyqCrGXCQddv0c3aI5p7_ZtUDj5qIft1z49QJoMX0hTVdoA2ttGFGsqGZWMixRBT0E1JostSPfNp3diNRNKlV6U_OxqNDA3D8JdRCMfeEqMjfvR1sU6mO9UnH8xVYCjFvM-yKaGZllndfbKOcaee563vQ9BiBxI9HUzbSboR75QwPB7OthUel8uaRJjFvNydwEWNWvadXPwWM-1fTKBMfMpuRViDxpt224NS9Ikg_qhl-Nn5oUUqA7DBRdXk6YEyKyINS1zBolNnpFCoRWPIeqYcEilMwlwMKSJ_mB]--></g></svg>