<?xml version="1.0" encoding="us-ascii" standalone="no"?><svg xmlns="http://www.w3.org/2000/svg" xmlns:xlink="http://www.w3.org/1999/xlink" contentStyleType="text/css" height="277px" preserveAspectRatio="none" style="width:1015px;height:277px;background:#F3F1EB;" version="1.1" viewBox="0 0 1015 277" width="1015px" zoomAndPan="magnify"><defs/><g><rect fill="#F3F1EB" height="277" style="stroke:none;stroke-width:1.0;" width="1015" x="0" y="0"/><text fill="#000000" font-family="sans-serif" font-size="14" font-weight="bold" lengthAdjust="spacing" textLength="475" x="263.23" y="22.9951">UC1 &#44221;&#44592; &#49345;&#53468; &#51649;&#51217; &#51077;&#47141;&#51004;&#47196; &#49849;&#54056; &#50696;&#52769;&#183;&#49849;&#47532;&#50836;&#51064; &#54869;&#51064; UseCase Diagram</text><!--cluster LoL ??? ??? ?? ??? ?? ?? ?? ? ?? ???? ?? / A. ????? ???--><g id="cluster_LoL &#51064;&#44172;&#51076; &#49884;&#51216;&#48324; &#44221;&#44592; &#45936;&#51060;&#53552; &#44592;&#48152; &#49849;&#54056; &#50696;&#52769; &#48143; &#54645;&#49900; &#49849;&#47532;&#50836;&#51064; &#48516;&#49437; / A. &#48373;&#44592;&#183;&#54032;&#51221; &#49436;&#48708;&#49828;"><rect fill="none" height="107" rx="2.5" ry="2.5" style="stroke:#181818;stroke-width:1.0;" width="600.3" x="168.16" y="114.9969"/><text fill="#000000" font-family="sans-serif" font-size="14" font-weight="bold" lengthAdjust="spacing" textLength="558" x="189.31" y="129.992">LoL &#51064;&#44172;&#51076; &#49884;&#51216;&#48324; &#44221;&#44592; &#45936;&#51060;&#53552; &#44592;&#48152; &#49849;&#54056; &#50696;&#52769; &#48143; &#54645;&#49900; &#49849;&#47532;&#50836;&#51064; &#48516;&#49437; / A. &#48373;&#44592;&#183;&#54032;&#51221; &#49436;&#48708;&#49828;</text></g><g id="elem_UC1"><ellipse cx="311.9972" cy="177.9943" fill="#F1F1F1" rx="127.8372" ry="27.9674" style="stroke:#181818;stroke-width:0.5;"/><text fill="#000000" font-family="sans-serif" font-size="14" lengthAdjust="spacing" textLength="175" x="221.4972" y="173.5934">UC1 &#44221;&#44592; &#49345;&#53468; &#51649;&#51217; &#51077;&#47141;&#51004;&#47196;</text><text fill="#000000" font-family="sans-serif" font-size="14" lengthAdjust="spacing" textLength="142" x="237.9972" y="189.8903">&#49849;&#54056; &#50696;&#52769;&#183;&#49849;&#47532;&#50836;&#51064; &#54869;&#51064;</text></g><g id="elem_UC2"><ellipse cx="666.728" cy="170.9925" fill="#F1F1F1" rx="85.728" ry="19.5456" style="stroke:#181818;stroke-width:0.5;"/><text fill="#000000" font-family="sans-serif" font-size="14" lengthAdjust="spacing" textLength="132" x="600.728" y="173.8392">UC2 &#48152;&#49324;&#49892; &#53076;&#52845; &#48155;&#44592;</text></g><!--entity Viewer--><g id="elem_Viewer"><ellipse cx="55.5" cy="93.3469" fill="#F1F1F1" rx="8" ry="8" style="stroke:#181818;stroke-width:0.5;"/><path d="M55.5,101.3469 L55.5,128.3469 M42.5,109.3469 L68.5,109.3469 M55.5,128.3469 L42.5,143.3469 M55.5,128.3469 L68.5,143.3469 " fill="none" style="stroke:#181818;stroke-width:0.5;"/><text fill="#000000" font-family="sans-serif" font-size="14" lengthAdjust="spacing" textLength="86" x="12.5" y="157.842">&#44288;&#51204;&#183;&#48373;&#44592; &#50976;&#51200;</text></g><!--entity ExtDev--><g id="elem_ExtDev"><ellipse cx="55.5" cy="204.3469" fill="#F1F1F1" rx="8" ry="8" style="stroke:#181818;stroke-width:0.5;"/><path d="M55.5,212.3469 L55.5,239.3469 M42.5,220.3469 L68.5,220.3469 M55.5,239.3469 L42.5,254.3469 M55.5,239.3469 L68.5,254.3469 " fill="none" style="stroke:#181818;stroke-width:0.5;"/><text fill="#000000" font-family="sans-serif" font-size="14" lengthAdjust="spacing" textLength="99" x="6" y="268.842">&#50808;&#48512; &#50672;&#46041; &#44060;&#48156;&#51088;</text></g><g id="elem_GMN10"><path d="M166,43.2969 L166,98.6953 A0,0 0 0 0 166,98.6953 L308,98.6953 L312,149.5769 L316,98.6953 L458,98.6953 A0,0 0 0 0 458,98.6953 L458,53.2969 L448,43.2969 L166,43.2969 A0,0 0 0 0 166,43.2969 " fill="#FEFFDD" style="stroke:#181818;stroke-width:0.5;"/><path d="M448,43.2969 L448,53.2969 L458,53.2969 L448,43.2969 " fill="#FEFFDD" style="stroke:#181818;stroke-width:0.5;"/><text fill="#000000" font-family="sans-serif" font-size="13" lengthAdjust="spacing" textLength="249" x="172" y="60.3638">&#51077;&#47141;: &#48660;&#47336;&#8722;&#47112;&#46300; &#52264;&#51060; &#54588;&#52376; 13&#44060; (10&#48516; &#49884;&#51216;)</text><text fill="#000000" font-family="sans-serif" font-size="13" lengthAdjust="spacing" textLength="240" x="172" y="75.4966">&#52636;&#47141;: &#49849;&#47532; &#54869;&#47456; &#183; &#50696;&#52769; &#183; &#49849;&#47532;&#50836;&#51064; 5&#44060; &#183; &#44221;&#44256;</text><text fill="#000000" font-family="sans-serif" font-size="13" lengthAdjust="spacing" textLength="271" x="172" y="90.6294">&#44221;&#47196;: &#54868;&#47732; / POST /api/predict / lolwin.predict</text></g><g id="elem_GMN13"><path d="M815.46,150.8669 L815.46,166.9969 L752.8,170.9969 L815.46,174.9969 L815.46,191.1325 A0,0 0 0 0 815.46,191.1325 L1008.46,191.1325 A0,0 0 0 0 1008.46,191.1325 L1008.46,160.8669 L998.46,150.8669 L815.46,150.8669 A0,0 0 0 0 815.46,150.8669 " fill="#FEFFDD" style="stroke:#181818;stroke-width:0.5;"/><path d="M998.46,150.8669 L998.46,160.8669 L1008.46,160.8669 L998.46,150.8669 " fill="#FEFFDD" style="stroke:#181818;stroke-width:0.5;"/><text fill="#000000" font-family="sans-serif" font-size="13" lengthAdjust="spacing" textLength="172" x="821.46" y="167.9338">&#54868;&#47732; &#44221;&#47196;&#50640;&#49436;&#45716; &#54637;&#49345; &#54632;&#44760; &#54840;&#52636;</text><text fill="#000000" font-family="sans-serif" font-size="13" lengthAdjust="spacing" textLength="148" x="821.46" y="183.0666">(index.html runManual)</text></g><!--link Viewer to UC1--><g id="link_Viewer_UC1"><path d="M98.81,132.1469 C131.67,139.2469 172.5851,148.0907 213.8551,157.0007 " fill="none" id="Viewer-to-UC1" style="stroke:#181818;stroke-width:1.0;"/><polygon fill="#181818" points="219.72,158.2669,211.7668,152.4577,214.8326,157.2117,210.0786,160.2775,219.72,158.2669" style="stroke:#181818;stroke-width:1.0;"/></g><!--link ExtDev to UC1--><g id="link_ExtDev_UC1"><path d="M105.27,223.2669 C137.82,216.1069 175.7402,207.7563 214.5502,199.2163 " fill="none" id="ExtDev-to-UC1" style="stroke:#181818;stroke-width:1.0;"/><polygon fill="#181818" points="220.41,197.9269,210.7607,195.9545,215.5268,199.0014,212.4799,203.7676,220.41,197.9269" style="stroke:#181818;stroke-width:1.0;"/></g><!--link UC1 to UC2--><g id="link_UC1_UC2"><path d="M439.35,175.4869 C486.39,174.5569 532.6212,173.6357 575.0412,172.7957 " fill="none" id="UC1-to-UC2" style="stroke:#181818;stroke-width:1.0;stroke-dasharray:7.0,7.0;"/><polygon fill="#181818" points="581.04,172.6769,571.9626,168.8558,576.041,172.7759,572.121,176.8543,581.04,172.6769" style="stroke:#181818;stroke-width:1.0;"/><text fill="#000000" font-family="sans-serif" font-size="13" lengthAdjust="spacing" textLength="61" x="489" y="170.0638">&#171;include&#187;</text></g><!--SRC=[ZLBFJnDH4Bw_ls9IBt2Ws18l3I5HVfmmcYYUk3owZx9XsMrsNuN4c1HPamOmL6r3qOKi4RGca6neeIN2fN-AnxxP_y7PRjlOavxUp6Jcc-_xvZdhkfddDj-05PvTpzbMmTHcBSEouS72r49g_WbpXXtE6jUiJTtCmIet7C4CiIf1Mc3hkJK9ccwBhDGjaqbT6WAMPbFGlRhljWF0dUrmnmFyiOt-Hy2Jzye_H-zEdL9jzpRShmFMIjW-xRGeLTyly4i5ZziG7bMZPyaHizmHCAVp7D5WZ6SbyKjqcqNqtKvBDQvxIpmV_M82k0ElTB4fx44V7hNLJH7mC507Hz0DF1LuU5BkTSvloJdnch68EZTpH3knQ2q2hUrUxUE92xZdeLzM3NUWHNq8yBWPkW5GfeBQg09GmG64rMlSku0HBUh6HVSO9k5n4cB2dLQuNqQ_2kXwwjR5tRC4l6401KTa8xc9_p9msVotWpsbX3OAdYQkDNntWNjdWFSLlBsambVQrczFixUCnKx2nCHC3o2sQvX639F9A4v31gQdTJDh53GnCyDCImfOiQIqDi1QxI-FUMT0jIlgM_rtwPFoI-epoGhgP2c4bJkyga5gYau4Owc7P5dV_l5e-CRh3SVw8cNgt8TEQs1y5Fqj_L64GiN8mOPF01IGNncQhAYVJRh4ysSlNi8ap-kJULjeUbPIpR0C-k39Ve49KuD8Igmd_kSzEMa2x0F5k7XOZkwuMw7hNzAvwAbtVzKWhBM9ENMFwQOcjf9hSiC0ks0-vMQ16-F33Ny0]--></g></svg>