<?xml version="1.0" encoding="us-ascii" standalone="no"?><svg xmlns="http://www.w3.org/2000/svg" xmlns:xlink="http://www.w3.org/1999/xlink" contentStyleType="text/css" height="523px" preserveAspectRatio="none" style="width:851px;height:523px;background:#F3F1EB;" version="1.1" viewBox="0 0 851 523" width="851px" zoomAndPan="magnify"><defs/><g><rect fill="#F3F1EB" height="523" style="stroke:none;stroke-width:1.0;" width="851" x="0" y="0"/><text fill="#000000" font-family="sans-serif" font-size="14" font-weight="bold" lengthAdjust="spacing" textLength="325" x="256" y="22.9951">UC6 &#52308;&#54588;&#50616;&#183;&#46972;&#51064;&#48324; &#49849;&#47456; &#51312;&#54924; UseCase Diagram</text><!--cluster LoL ??? ??? ?? ??? ?? ?? ?? ? ?? ???? ??--><g id="cluster_LoL &#51064;&#44172;&#51076; &#49884;&#51216;&#48324; &#44221;&#44592; &#45936;&#51060;&#53552; &#44592;&#48152; &#49849;&#54056; &#50696;&#52769; &#48143; &#54645;&#49900; &#49849;&#47532;&#50836;&#51064; &#48516;&#49437;"><rect fill="none" height="388" rx="2.5" ry="2.5" style="stroke:#181818;stroke-width:1.0;" width="436.5" x="253.25" y="129.5669"/><text fill="#000000" font-family="sans-serif" font-size="14" font-weight="bold" lengthAdjust="spacing" textLength="421" x="261" y="144.562">LoL &#51064;&#44172;&#51076; &#49884;&#51216;&#48324; &#44221;&#44592; &#45936;&#51060;&#53552; &#44592;&#48152; &#49849;&#54056; &#50696;&#52769; &#48143; &#54645;&#49900; &#49849;&#47532;&#50836;&#51064; &#48516;&#49437;</text></g><!--cluster A. ????? ???--><g id="cluster_A. &#48373;&#44592;&#183;&#54032;&#51221; &#49436;&#48708;&#49828;"><rect fill="none" height="190" rx="2.5" ry="2.5" style="stroke:#181818;stroke-width:1.0;" width="243.28" x="349.36" y="172.5669"/><text fill="#000000" font-family="sans-serif" font-size="14" font-weight="bold" lengthAdjust="spacing" textLength="122" x="410" y="187.562">A. &#48373;&#44592;&#183;&#54032;&#51221; &#49436;&#48708;&#49828;</text></g><!--cluster B. ??? ??? ??--><g id="cluster_B. &#45936;&#51060;&#53552; &#49828;&#45253;&#49399; &#49688;&#51665;"><rect fill="none" height="107" rx="2.5" ry="2.5" style="stroke:#181818;stroke-width:1.0;" width="285.5" x="328.25" y="386.5669"/><text fill="#000000" font-family="sans-serif" font-size="14" font-weight="bold" lengthAdjust="spacing" textLength="134" x="404" y="401.562">B. &#45936;&#51060;&#53552; &#49828;&#45253;&#49399; &#49688;&#51665;</text></g><g id="elem_UC6"><ellipse cx="471.0008" cy="233.5669" fill="#F1F1F1" rx="93.2808" ry="26.17" style="stroke:#181818;stroke-width:0.5;"/><text fill="#000000" font-family="sans-serif" font-size="14" lengthAdjust="spacing" textLength="115" x="410.5008" y="229.166">UC6 &#52308;&#54588;&#50616;&#183;&#46972;&#51064;&#48324;</text><text fill="#000000" font-family="sans-serif" font-size="14" lengthAdjust="spacing" textLength="56" x="440.0008" y="245.4629">&#49849;&#47456; &#51312;&#54924;</text></g><g id="elem_UC3"><ellipse cx="470.9952" cy="320.5679" fill="#F1F1F1" rx="105.6352" ry="26.231" style="stroke:#181818;stroke-width:0.5;"/><text fill="#000000" font-family="sans-serif" font-size="14" lengthAdjust="spacing" textLength="132" x="401.9952" y="316.167">UC3 &#49548;&#54872;&#49324; &#52572;&#44540; &#44221;&#44592;</text><text fill="#000000" font-family="sans-serif" font-size="14" lengthAdjust="spacing" textLength="56" x="439.9952" y="332.4639">&#48373;&#44592;&#183;&#54032;&#51221;</text></g><g id="elem_UC10"><ellipse cx="471.0041" cy="449.5677" fill="#F1F1F1" rx="126.7541" ry="27.7508" style="stroke:#181818;stroke-width:0.5;"/><text fill="#000000" font-family="sans-serif" font-size="14" lengthAdjust="spacing" textLength="172" x="382.0041" y="445.1668">UC10 Riot &#54364;&#48376; &#49828;&#45253;&#49399; &#49688;&#51665;</text><text fill="#000000" font-family="sans-serif" font-size="14" lengthAdjust="spacing" textLength="79" x="428.5041" y="461.4637">(&#52308;&#54588;&#50616;&#183;&#47021;&#53433;)</text></g><!--entity User--><g id="elem_User"><ellipse cx="186.5" cy="179.9169" fill="#F1F1F1" rx="8" ry="8" style="stroke:#181818;stroke-width:0.5;"/><path d="M186.5,187.9169 L186.5,214.9169 M173.5,195.9169 L199.5,195.9169 M186.5,214.9169 L173.5,229.9169 M186.5,214.9169 L199.5,229.9169 " fill="none" style="stroke:#181818;stroke-width:0.5;"/><text fill="#000000" font-family="sans-serif" font-size="14" lengthAdjust="spacing" textLength="39" x="167" y="244.412">&#51060;&#50857;&#51088;</text></g><!--entity Ranker--><g id="elem_Ranker"><ellipse cx="49" cy="341.9169" fill="#F1F1F1" rx="8" ry="8" style="stroke:#181818;stroke-width:0.5;"/><path d="M49,349.9169 L49,376.9169 M36,357.9169 L62,357.9169 M49,376.9169 L36,391.9169 M49,376.9169 L62,391.9169 " fill="none" style="stroke:#181818;stroke-width:0.5;"/><text fill="#000000" font-family="sans-serif" font-size="14" lengthAdjust="spacing" textLength="56" x="21" y="406.412">&#47021;&#53356; &#50976;&#51200;</text></g><!--entity Viewer--><g id="elem_Viewer"><ellipse cx="49" cy="119.9169" fill="#F1F1F1" rx="8" ry="8" style="stroke:#181818;stroke-width:0.5;"/><path d="M49,127.9169 L49,154.9169 M36,135.9169 L62,135.9169 M49,154.9169 L36,169.9169 M49,154.9169 L62,169.9169 " fill="none" style="stroke:#181818;stroke-width:0.5;"/><text fill="#000000" font-family="sans-serif" font-size="14" lengthAdjust="spacing" textLength="86" x="6" y="184.412">&#44288;&#51204;&#183;&#48373;&#44592; &#50976;&#51200;</text></g><!--entity Coach--><g id="elem_Coach"><ellipse cx="49" cy="230.9169" fill="#F1F1F1" rx="8" ry="8" style="stroke:#181818;stroke-width:0.5;"/><path d="M49,238.9169 L49,265.9169 M36,246.9169 L62,246.9169 M49,265.9169 L36,280.9169 M49,265.9169 L62,280.9169 " fill="none" style="stroke:#181818;stroke-width:0.5;"/><text fill="#000000" font-family="sans-serif" font-size="14" lengthAdjust="spacing" textLength="82" x="8" y="295.412">&#53076;&#52824;&#183;&#49828;&#53944;&#47532;&#47672;</text></g><!--entity DDragon--><g id="elem_DDragon"><ellipse cx="783" cy="203.9169" fill="#F1F1F1" rx="8" ry="8" style="stroke:#181818;stroke-width:0.5;"/><path d="M783,211.9169 L783,238.9169 M770,219.9169 L796,219.9169 M783,238.9169 L770,253.9169 M783,238.9169 L796,253.9169 " fill="none" style="stroke:#181818;stroke-width:0.5;"/><text fill="#000000" font-family="sans-serif" font-size="14" lengthAdjust="spacing" textLength="122" x="722" y="268.412">Data Dragon CDN</text></g><!--entity Ops--><g id="elem_Ops"><ellipse cx="186.5" cy="432.7669" fill="#F1F1F1" rx="8" ry="8" style="stroke:#181818;stroke-width:0.5;"/><path d="M186.5,440.7669 L186.5,467.7669 M173.5,448.7669 L199.5,448.7669 M186.5,467.7669 L173.5,482.7669 M186.5,467.7669 L199.5,482.7669 " fill="none" style="stroke:#181818;stroke-width:0.5;"/><text fill="#000000" font-family="sans-serif" font-size="14" lengthAdjust="spacing" textLength="69" x="152" y="497.262">&#49436;&#48708;&#49828; &#45812;&#45817;</text><text fill="#000000" font-family="sans-serif" font-size="14" lengthAdjust="spacing" textLength="66" x="152" y="513.5589">(&#48176;&#54252;&#183;&#50868;&#50689;)</text></g><!--entity Riot--><g id="elem_Riot"><ellipse cx="783" cy="419.9169" fill="#F1F1F1" rx="8" ry="8" style="stroke:#181818;stroke-width:0.5;"/><path d="M783,427.9169 L783,454.9169 M770,435.9169 L796,435.9169 M783,454.9169 L770,469.9169 M783,454.9169 L796,469.9169 " fill="none" style="stroke:#181818;stroke-width:0.5;"/><text fill="#000000" font-family="sans-serif" font-size="14" lengthAdjust="spacing" textLength="105" x="730.5" y="484.412">Riot Games API</text></g><g id="elem_GMN24"><path d="M332,43.2969 L332,113.8281 A0,0 0 0 0 332,113.8281 L467,113.8281 L471,206.9269 L475,113.8281 L610,113.8281 A0,0 0 0 0 610,113.8281 L610,53.2969 L600,43.2969 L332,43.2969 A0,0 0 0 0 332,43.2969 " fill="#FEFFDD" style="stroke:#181818;stroke-width:0.5;"/><path d="M600,43.2969 L600,53.2969 L610,53.2969 L600,43.2969 " fill="#FEFFDD" style="stroke:#181818;stroke-width:0.5;"/><text fill="#000000" font-family="sans-serif" font-size="13" lengthAdjust="spacing" textLength="231" x="338" y="60.3638">&#49436;&#48708;&#49828;&#45716; champion_stats.csv &#49828;&#45253;&#49399;&#47564;</text><text fill="#000000" font-family="sans-serif" font-size="13" lengthAdjust="spacing" textLength="181" x="338" y="75.4966">&#51069;&#45716;&#45796; &#8212; &#50836;&#52397; &#49884; Riot &#54840;&#52636; 0&#54924;.</text><text fill="#000000" font-family="sans-serif" font-size="13" lengthAdjust="spacing" textLength="203" x="338" y="90.6294">&#49828;&#45253;&#49399;&#51008; UC10 &#51060; &#48120;&#47532; &#47564;&#46308;&#50612; &#46164;&#45796;.</text><text fill="#000000" font-family="sans-serif" font-size="13" lengthAdjust="spacing" textLength="257" x="338" y="105.7622">"&#51096;&#54616;&#45716; &#50976;&#51200;" &#51060;&#47492;&#51012; &#45572;&#47476;&#47732; UC3 &#47196; &#45336;&#50612;&#44036;&#45796;.</text></g><!--link Ranker to User--><g id="link_Ranker_User"><path d="M77.42,338.7869 C104.02,306.9769 132.1222,273.3844 155.2722,245.7044 " fill="none" id="Ranker-to-User" style="stroke:#181818;stroke-width:1.0;"/><polygon fill="none" points="166.82,231.8969,150.6697,241.8551,159.8747,249.5537,166.82,231.8969" style="stroke:#181818;stroke-width:1.0;"/></g><!--link Viewer to User--><g id="link_Viewer_User"><path d="M92.13,168.2269 C117.15,179.2969 131.1718,185.5079 150.3418,193.9979 " fill="none" id="Viewer-to-User" style="stroke:#181818;stroke-width:1.0;"/><polygon fill="none" points="166.8,201.2869,152.7715,188.5118,147.9122,199.4839,166.8,201.2869" style="stroke:#181818;stroke-width:1.0;"/></g><!--link Coach to User--><g id="link_Coach_User"><path d="M90.29,245.4069 C115.56,235.8869 130.1338,230.4078 149.7938,223.0078 " fill="none" id="Coach-to-User" style="stroke:#181818;stroke-width:1.0;"/><polygon fill="none" points="166.64,216.6669,147.6802,217.3924,151.9075,228.6231,166.64,216.6669" style="stroke:#181818;stroke-width:1.0;"/></g><!--link User to UC6--><g id="link_User_UC6"><path d="M206.47,211.1769 C241.73,214.1769 313.4116,220.2581 375.3416,225.5281 " fill="none" id="User-to-UC6" style="stroke:#181818;stroke-width:1.0;"/><polygon fill="#181818" points="381.32,226.0369,372.6916,221.2882,376.338,225.6129,372.0133,229.2594,381.32,226.0369" style="stroke:#181818;stroke-width:1.0;"/></g><!--link Ranker to UC3--><g id="link_Ranker_UC3"><path d="M77.23,368.2569 C136.49,361.0669 273.5638,344.4202 369.6638,332.7502 " fill="none" id="Ranker-to-UC3" style="stroke:#181818;stroke-width:1.0;"/><polygon fill="#181818" points="375.62,332.0269,366.2034,329.141,370.6565,332.6296,367.1678,337.0827,375.62,332.0269" style="stroke:#181818;stroke-width:1.0;"/></g><!--link Coach to UC3--><g id="link_Coach_UC3"><path d="M90.27,266.3169 C156.28,275.7469 283.1803,293.8781 372.8903,306.6981 " fill="none" id="Coach-to-UC3" style="stroke:#181818;stroke-width:1.0;"/><polygon fill="#181818" points="378.83,307.5469,370.4864,302.3139,373.8803,306.8395,369.3546,310.2334,378.83,307.5469" style="stroke:#181818;stroke-width:1.0;"/></g><!--link Ops to UC10--><g id="link_Ops_UC10"><path d="M221.3,468.0569 C253.37,465.6669 297.5266,462.3923 344.4066,458.9023 " fill="none" id="Ops-to-UC10" style="stroke:#181818;stroke-width:1.0;"/><polygon fill="#181818" points="350.39,458.4569,341.1179,455.1361,345.4038,458.8281,341.7118,463.114,350.39,458.4569" style="stroke:#181818;stroke-width:1.0;"/></g><!--link UC6 to DDragon--><g id="link_UC6_DDragon"><path d="M564.59,233.5669 C615.44,233.5669 671.04,233.5669 715.67,233.5669 " fill="none" id="UC6-to-DDragon" style="stroke:#181818;stroke-width:1.0;"/><polygon fill="#181818" points="721.67,233.5669,712.67,229.5669,716.67,233.5669,712.67,237.5669,721.67,233.5669" style="stroke:#181818;stroke-width:1.0;"/></g><!--link UC10 to Riot--><g id="link_UC10_Riot"><path d="M598.09,449.5669 C644.35,449.5669 688.18,449.5669 724.29,449.5669 " fill="none" id="UC10-to-Riot" style="stroke:#181818;stroke-width:1.0;"/><polygon fill="#181818" points="730.29,449.5669,721.29,445.5669,725.29,449.5669,721.29,453.5669,730.29,449.5669" style="stroke:#181818;stroke-width:1.0;"/></g><!--SRC=[TLDTInjH47tVNp6aB-s3GH5y53IffI1jiTWdeLoJDLbCTaFsMYcj47LR98ceDCes9262dn3fLgFPWBxuK_gOE_iVEdSt6sC_NfQTUy-PEMTchhciwJcMPrbOP8dbLDvOqPCn8sFauSdC-CpOysd5723CD4iQgvgUWYMMCTMXcnnnMKfzopzcLCYh2SxqL4PLCkeI1sv0NakbEIGrUQCPki8rJhZvs0JWpufNkSK3zxuZwhTOTyML1LZiYkCcuA7ZLSimRwenPgeGrrYAQYaAIt2I5y5w6wldsDYD03CbAX_UYCQ5jzu2h3MnMV1lvvY-_73VQnUmQL75g-kUwmpZtcdgwWCExohOjUyxM3poYguuQOapruV539P8Ayh0A4HcZLaWzRtBCZR8GAc6pLrffNTv9qk8ROVaUfO350d7bXQzyXcWlONk8GXd1xpzQoorVEydBQnMA1k86mkjUWG-AH2s629JKGY4ttUyyYuszm6jckXQf3900goOQaAsBFA_5Y_eZteST30syITv7F1hsVjkumO9kwxrEhTzGmlwOmdz1EEKO6rOwtHqo3e959jVSBC3k6NZwTu_r8wDmfncSF3sQkBA_Okne3yTTaDZtkW-wzSU6_MBhmts8yuuWtYUfGmTOl5NFYmUn8C1Xuq3KMgBKfVo2yVnTbeqyseRxVKW-UkS6J9yTIzOLZLXwitBOBVeI5623OEHaS-JmIu6gpHqu2_DKAp8ByMJVkS7_4c_Zo4uY4X0_vzSAdAeCWhD-6sJ1u4ItU0gB1gS6ramblfZ7JWLnGeaqYoRetVutkICcz64-U6Xq-AqBE7rEmAAqX7yAbH0RkFbXTpg_dHi5szgC4gR4vNWa8lrWY-Hw6qGF-IB0SedlXtX0HtioOII4C66xUtRKahuzeWXJYoiMo2sB77S5kTjwHp4OGs4PHE_vrW-NTMJ82t-1W00]--></g></svg>