<?xml version="1.0" encoding="us-ascii" standalone="no"?><svg xmlns="http://www.w3.org/2000/svg" xmlns:xlink="http://www.w3.org/1999/xlink" contentStyleType="text/css" height="943px" preserveAspectRatio="none" style="width:1692px;height:943px;background:#F3F1EB;" version="1.1" viewBox="0 0 1692 943" width="1692px" zoomAndPan="magnify"><defs/><g><rect fill="#F3F1EB" height="943" style="stroke:none;stroke-width:1.0;" width="1692" x="0" y="0"/><text fill="#000000" font-family="sans-serif" font-size="14" font-weight="bold" lengthAdjust="spacing" textLength="353" x="668.5" y="27.9951">UC9 &#54532;&#47196; &#44221;&#44592; &#51068;&#51221; &#49828;&#45253;&#49399; &#49688;&#51665; Sequence Diagram</text><rect fill="none" height="110.5313" style="stroke:#000000;stroke-width:1.5;" width="1281" x="10" y="359.6563"/><rect fill="none" height="46.2656" style="stroke:#000000;stroke-width:1.5;" width="855.5" x="513.5" y="641.8516"/><line style="stroke:#181818;stroke-width:0.5;stroke-dasharray:5.0,5.0;" x1="90" x2="90" y1="118.5938" y2="795.5156"/><line style="stroke:#A80036;stroke-width:1.0;stroke-dasharray:1.0,4.0;" x1="90" x2="90" y1="795.5156" y2="823.5156"/><line style="stroke:#181818;stroke-width:0.5;stroke-dasharray:5.0,5.0;" x1="90" x2="90" y1="823.5156" y2="862.6484"/><line style="stroke:#181818;stroke-width:0.5;stroke-dasharray:5.0,5.0;" x1="284.5" x2="284.5" y1="118.5938" y2="795.5156"/><line style="stroke:#A80036;stroke-width:1.0;stroke-dasharray:1.0,4.0;" x1="284.5" x2="284.5" y1="795.5156" y2="823.5156"/><line style="stroke:#181818;stroke-width:0.5;stroke-dasharray:5.0,5.0;" x1="284.5" x2="284.5" y1="823.5156" y2="862.6484"/><line style="stroke:#181818;stroke-width:0.5;stroke-dasharray:5.0,5.0;" x1="598.5" x2="598.5" y1="118.5938" y2="795.5156"/><line style="stroke:#A80036;stroke-width:1.0;stroke-dasharray:1.0,4.0;" x1="598.5" x2="598.5" y1="795.5156" y2="823.5156"/><line style="stroke:#181818;stroke-width:0.5;stroke-dasharray:5.0,5.0;" x1="598.5" x2="598.5" y1="823.5156" y2="862.6484"/><line style="stroke:#181818;stroke-width:0.5;stroke-dasharray:5.0,5.0;" x1="1024" x2="1024" y1="118.5938" y2="795.5156"/><line style="stroke:#A80036;stroke-width:1.0;stroke-dasharray:1.0,4.0;" x1="1024" x2="1024" y1="795.5156" y2="823.5156"/><line style="stroke:#181818;stroke-width:0.5;stroke-dasharray:5.0,5.0;" x1="1024" x2="1024" y1="823.5156" y2="862.6484"/><line style="stroke:#181818;stroke-width:0.5;stroke-dasharray:5.0,5.0;" x1="1231" x2="1231" y1="118.5938" y2="795.5156"/><line style="stroke:#A80036;stroke-width:1.0;stroke-dasharray:1.0,4.0;" x1="1231" x2="1231" y1="795.5156" y2="823.5156"/><line style="stroke:#181818;stroke-width:0.5;stroke-dasharray:5.0,5.0;" x1="1231" x2="1231" y1="823.5156" y2="862.6484"/><line style="stroke:#181818;stroke-width:0.5;stroke-dasharray:5.0,5.0;" x1="1634" x2="1634" y1="118.5938" y2="795.5156"/><line style="stroke:#A80036;stroke-width:1.0;stroke-dasharray:1.0,4.0;" x1="1634" x2="1634" y1="795.5156" y2="823.5156"/><line style="stroke:#181818;stroke-width:0.5;stroke-dasharray:5.0,5.0;" x1="1634" x2="1634" y1="823.5156" y2="862.6484"/><text fill="#000000" font-family="sans-serif" font-size="14" lengthAdjust="spacing" textLength="135" x="20" y="115.292">&#49436;&#48708;&#49828; &#45812;&#45817;(&#48176;&#54252;&#183;&#50868;&#50689;)</text><ellipse cx="90.5" cy="50.7969" fill="#E2E2F0" rx="8" ry="8" style="stroke:#181818;stroke-width:0.5;"/><path d="M90.5,58.7969 L90.5,85.7969 M77.5,66.7969 L103.5,66.7969 M90.5,85.7969 L77.5,100.7969 M90.5,85.7969 L103.5,100.7969 " fill="none" style="stroke:#181818;stroke-width:0.5;"/><text fill="#000000" font-family="sans-serif" font-size="14" lengthAdjust="spacing" textLength="135" x="20" y="874.6436">&#49436;&#48708;&#49828; &#45812;&#45817;(&#48176;&#54252;&#183;&#50868;&#50689;)</text><ellipse cx="90.5" cy="886.4453" fill="#E2E2F0" rx="8" ry="8" style="stroke:#181818;stroke-width:0.5;"/><path d="M90.5,894.4453 L90.5,921.4453 M77.5,902.4453 L103.5,902.4453 M90.5,921.4453 L77.5,936.4453 M90.5,921.4453 L103.5,936.4453 " fill="none" style="stroke:#181818;stroke-width:0.5;"/><rect fill="#E2E2F0" height="46.5938" rx="2.5" ry="2.5" style="stroke:#181818;stroke-width:0.5;" width="132" x="218.5" y="71"/><text fill="#000000" font-family="sans-serif" font-size="14" lengthAdjust="spacing" textLength="51" x="259" y="90.9951">scripts/</text><text fill="#000000" font-family="sans-serif" font-size="14" lengthAdjust="spacing" textLength="118" x="225.5" y="107.292">run_collectors.sh</text><rect fill="#E2E2F0" height="46.5938" rx="2.5" ry="2.5" style="stroke:#181818;stroke-width:0.5;" width="132" x="218.5" y="861.6484"/><text fill="#000000" font-family="sans-serif" font-size="14" lengthAdjust="spacing" textLength="51" x="259" y="881.6436">scripts/</text><text fill="#000000" font-family="sans-serif" font-size="14" lengthAdjust="spacing" textLength="118" x="225.5" y="897.9404">run_collectors.sh</text><rect fill="#E2E2F0" height="46.5938" rx="2.5" ry="2.5" style="stroke:#181818;stroke-width:0.5;" width="150" x="523.5" y="71"/><text fill="#000000" font-family="sans-serif" font-size="14" lengthAdjust="spacing" textLength="26" x="585.5" y="90.9951">src/</text><text fill="#000000" font-family="sans-serif" font-size="14" lengthAdjust="spacing" textLength="136" x="530.5" y="107.292">collect_schedule.py</text><rect fill="#E2E2F0" height="46.5938" rx="2.5" ry="2.5" style="stroke:#181818;stroke-width:0.5;" width="150" x="523.5" y="861.6484"/><text fill="#000000" font-family="sans-serif" font-size="14" lengthAdjust="spacing" textLength="26" x="585.5" y="881.6436">src/</text><text fill="#000000" font-family="sans-serif" font-size="14" lengthAdjust="spacing" textLength="136" x="530.5" y="897.9404">collect_schedule.py</text><rect fill="#E2E2F0" height="46.5938" rx="2.5" ry="2.5" style="stroke:#181818;stroke-width:0.5;" width="137" x="956" y="71"/><text fill="#000000" font-family="sans-serif" font-size="14" lengthAdjust="spacing" textLength="123" x="963" y="90.9951">lolesports &#51068;&#51221; API</text><text fill="#000000" font-family="sans-serif" font-size="14" lengthAdjust="spacing" textLength="49" x="1000" y="107.292">(&#48708;&#44277;&#49885;)</text><rect fill="#E2E2F0" height="46.5938" rx="2.5" ry="2.5" style="stroke:#181818;stroke-width:0.5;" width="137" x="956" y="861.6484"/><text fill="#000000" font-family="sans-serif" font-size="14" lengthAdjust="spacing" textLength="123" x="963" y="881.6436">lolesports &#51068;&#51221; API</text><text fill="#000000" font-family="sans-serif" font-size="14" lengthAdjust="spacing" textLength="49" x="1000" y="897.9404">(&#48708;&#44277;&#49885;)</text><rect fill="#E2E2F0" height="46.5938" rx="2.5" ry="2.5" style="stroke:#181818;stroke-width:0.5;" width="256" x="1103" y="71"/><text fill="#000000" font-family="sans-serif" font-size="14" lengthAdjust="spacing" textLength="102" x="1180" y="90.9951">reports/tables/</text><text fill="#000000" font-family="sans-serif" font-size="14" lengthAdjust="spacing" textLength="242" x="1110" y="107.292">schedule.csv &#183; schedule_meta.json</text><rect fill="#E2E2F0" height="46.5938" rx="2.5" ry="2.5" style="stroke:#181818;stroke-width:0.5;" width="256" x="1103" y="861.6484"/><text fill="#000000" font-family="sans-serif" font-size="14" lengthAdjust="spacing" textLength="102" x="1180" y="881.6436">reports/tables/</text><text fill="#000000" font-family="sans-serif" font-size="14" lengthAdjust="spacing" textLength="242" x="1110" y="897.9404">schedule.csv &#183; schedule_meta.json</text><rect fill="#E2E2F0" height="46.5938" rx="2.5" ry="2.5" style="stroke:#181818;stroke-width:0.5;" width="104" x="1582" y="71"/><text fill="#000000" font-family="sans-serif" font-size="14" lengthAdjust="spacing" textLength="79" x="1594.5" y="90.9951">&#48177;&#50644;&#46300; 9524</text><text fill="#000000" font-family="sans-serif" font-size="14" lengthAdjust="spacing" textLength="90" x="1589" y="107.292">(web/app.py)</text><rect fill="#E2E2F0" height="46.5938" rx="2.5" ry="2.5" style="stroke:#181818;stroke-width:0.5;" width="104" x="1582" y="861.6484"/><text fill="#000000" font-family="sans-serif" font-size="14" lengthAdjust="spacing" textLength="79" x="1594.5" y="881.6436">&#48177;&#50644;&#46300; 9524</text><text fill="#000000" font-family="sans-serif" font-size="14" lengthAdjust="spacing" textLength="90" x="1589" y="897.9404">(web/app.py)</text><polygon fill="#181818" points="586.5,145.7266,596.5,149.7266,586.5,153.7266,590.5,149.7266" style="stroke:#181818;stroke-width:1.0;"/><line style="stroke:#181818;stroke-width:1.0;" x1="90.5" x2="592.5" y1="149.7266" y2="149.7266"/><text fill="#000000" font-family="sans-serif" font-size="13" lengthAdjust="spacing" textLength="211" x="97.5" y="144.6606">1. python src/collect_schedule.py</text><path d="M95,162.7266 L95,202.7266 L344,202.7266 L344,172.7266 L334,162.7266 L95,162.7266 " fill="#FEFFDD" style="stroke:#181818;stroke-width:0.5;"/><path d="M334,162.7266 L334,172.7266 L344,172.7266 L334,162.7266 " fill="#FEFFDD" style="stroke:#181818;stroke-width:0.5;"/><text fill="#000000" font-family="sans-serif" font-size="13" lengthAdjust="spacing" textLength="228" x="101" y="179.7935">A1: ./scripts/run_collectors.sh [loop]</text><text fill="#000000" font-family="sans-serif" font-size="13" lengthAdjust="spacing" textLength="200" x="101" y="194.9263">&#44032; &#52395; &#45800;&#44228;&#47196; &#44057;&#51008; &#49828;&#53356;&#47549;&#53944;&#47484; &#48512;&#47480;&#45796;</text><polygon fill="#181818" points="272.5,225.125,282.5,229.125,272.5,233.125,276.5,229.125" style="stroke:#181818;stroke-width:1.0;"/><line style="stroke:#181818;stroke-width:1.0;" x1="90.5" x2="278.5" y1="229.125" y2="229.125"/><text fill="#000000" font-family="sans-serif" font-size="13" lengthAdjust="spacing" textLength="170" x="97.5" y="224.0591">(A1) run_collectors.sh loop</text><polygon fill="#181818" points="586.5,254.2578,596.5,258.2578,586.5,262.2578,590.5,258.2578" style="stroke:#181818;stroke-width:1.0;"/><line style="stroke:#181818;stroke-width:1.0;" x1="284.5" x2="592.5" y1="258.2578" y2="258.2578"/><text fill="#000000" font-family="sans-serif" font-size="13" lengthAdjust="spacing" textLength="225" x="291.5" y="253.1919">(A1) &#49892;&#54665; &#183; logs/collect_schedule.log</text><line style="stroke:#181818;stroke-width:1.0;" x1="598.5" x2="640.5" y1="287.3906" y2="287.3906"/><line style="stroke:#181818;stroke-width:1.0;" x1="640.5" x2="640.5" y1="287.3906" y2="300.3906"/><line style="stroke:#181818;stroke-width:1.0;" x1="599.5" x2="640.5" y1="300.3906" y2="300.3906"/><polygon fill="#181818" points="609.5,296.3906,599.5,300.3906,609.5,304.3906,605.5,300.3906" style="stroke:#181818;stroke-width:1.0;"/><text fill="#000000" font-family="sans-serif" font-size="13" lengthAdjust="spacing" textLength="180" x="605.5" y="282.3247">&#54532;&#47196;&#51229;&#53944; &#47336;&#53944;&#47196; &#51060;&#46041; (os.chdir)</text><polygon fill="#181818" points="1012.5,340.6563,1022.5,344.6563,1012.5,348.6563,1016.5,344.6563" style="stroke:#181818;stroke-width:1.0;"/><line style="stroke:#181818;stroke-width:1.0;" x1="598.5" x2="1018.5" y1="344.6563" y2="344.6563"/><text fill="#000000" font-family="sans-serif" font-size="13" lengthAdjust="spacing" textLength="259" x="605.5" y="324.4575">2. GET getSchedule?hl=ko-KR&amp;sport=lol</text><text fill="#000000" font-family="sans-serif" font-size="13" lengthAdjust="spacing" textLength="223" x="605.5" y="339.5903">(x-api-key &#44277;&#44060; &#53412; &#183; &#44368;&#50977;&#50857; UA &#183; 20&#52488;)</text><path d="M10,359.6563 L74,359.6563 L74,366.7891 L64,376.7891 L10,376.7891 L10,359.6563 " fill="#EEEEEE" style="stroke:#000000;stroke-width:1.5;"/><rect fill="none" height="110.5313" style="stroke:#000000;stroke-width:1.5;" width="1281" x="10" y="359.6563"/><text fill="#000000" font-family="sans-serif" font-size="13" font-weight="bold" lengthAdjust="spacing" textLength="19" x="25" y="372.7231">alt</text><text fill="#000000" font-family="sans-serif" font-size="11" font-weight="bold" lengthAdjust="spacing" textLength="142" x="89" y="371.8667">[E1 &#45348;&#53944;&#50892;&#53356;&#183;&#52264;&#45800;&#183;&#54805;&#49885; &#50724;&#47448;]</text><polygon fill="#181818" points="609.5,393.9219,599.5,397.9219,609.5,401.9219,605.5,397.9219" style="stroke:#181818;stroke-width:1.0;"/><line style="stroke:#181818;stroke-width:1.0;stroke-dasharray:2.0,2.0;" x1="603.5" x2="1023.5" y1="397.9219" y2="397.9219"/><text fill="#000000" font-family="sans-serif" font-size="13" lengthAdjust="spacing" textLength="24" x="615.5" y="392.856">&#50696;&#50808;</text><polygon fill="#181818" points="101.5,423.0547,91.5,427.0547,101.5,431.0547,97.5,427.0547" style="stroke:#181818;stroke-width:1.0;"/><line style="stroke:#181818;stroke-width:1.0;stroke-dasharray:2.0,2.0;" x1="95.5" x2="597.5" y1="427.0547" y2="427.0547"/><text fill="#000000" font-family="sans-serif" font-size="13" lengthAdjust="spacing" textLength="484" x="107.5" y="421.9888">"[&#49892;&#54056;] &#51068;&#51221;&#51012; &#48155;&#51648; &#47803;&#54664;&#49845;&#45768;&#45796; &#8230; &#49436;&#48708;&#49828;&#45716; &#44592;&#51316; CSV &#47196; &#44228;&#49549; &#46041;&#51089;&#54633;&#45768;&#45796;" &#183; &#51333;&#47308;&#53076;&#46300; 1</text><path d="M1180,440.0547 L1180,465.0547 L1281,465.0547 L1281,450.0547 L1271,440.0547 L1180,440.0547 " fill="#FEFFDD" style="stroke:#181818;stroke-width:0.5;"/><path d="M1271,440.0547 L1271,450.0547 L1281,450.0547 L1271,440.0547 " fill="#FEFFDD" style="stroke:#181818;stroke-width:0.5;"/><text fill="#000000" font-family="sans-serif" font-size="13" lengthAdjust="spacing" textLength="80" x="1186" y="457.1216">&#44592;&#51316; &#54028;&#51068; &#50976;&#51648;</text><polygon fill="#181818" points="609.5,494.3203,599.5,498.3203,609.5,502.3203,605.5,498.3203" style="stroke:#181818;stroke-width:1.0;"/><line style="stroke:#181818;stroke-width:1.0;stroke-dasharray:2.0,2.0;" x1="603.5" x2="1023.5" y1="498.3203" y2="498.3203"/><text fill="#000000" font-family="sans-serif" font-size="13" lengthAdjust="spacing" textLength="137" x="615.5" y="493.2544">data.schedule.events</text><line style="stroke:#181818;stroke-width:1.0;" x1="598.5" x2="640.5" y1="542.5859" y2="542.5859"/><line style="stroke:#181818;stroke-width:1.0;" x1="640.5" x2="640.5" y1="542.5859" y2="555.5859"/><line style="stroke:#181818;stroke-width:1.0;" x1="599.5" x2="640.5" y1="555.5859" y2="555.5859"/><polygon fill="#181818" points="609.5,551.5859,599.5,555.5859,609.5,559.5859,605.5,555.5859" style="stroke:#181818;stroke-width:1.0;"/><text fill="#000000" font-family="sans-serif" font-size="13" lengthAdjust="spacing" textLength="280" x="605.5" y="522.3872">3. state=unstarted &#183; &#54016; 2&#44060; &#183; TBD &#50500;&#45784; &#47564; &#49440;&#48324;</text><text fill="#000000" font-family="sans-serif" font-size="13" lengthAdjust="spacing" textLength="412" x="605.5" y="537.52">&#8594; match_id&#183;start_at(UTC)&#183;league&#183;block&#183;bo&#183;&#54016;&#47749;&#183;&#53076;&#46300;&#183;&#51060;&#48120;&#51648;&#183;priority</text><line style="stroke:#181818;stroke-width:1.0;" x1="598.5" x2="640.5" y1="584.7188" y2="584.7188"/><line style="stroke:#181818;stroke-width:1.0;" x1="640.5" x2="640.5" y1="584.7188" y2="597.7188"/><line style="stroke:#181818;stroke-width:1.0;" x1="599.5" x2="640.5" y1="597.7188" y2="597.7188"/><polygon fill="#181818" points="609.5,593.7188,599.5,597.7188,609.5,601.7188,605.5,597.7188" style="stroke:#181818;stroke-width:1.0;"/><text fill="#000000" font-family="sans-serif" font-size="13" lengthAdjust="spacing" textLength="156" x="605.5" y="579.6528">4. (priority, start_at) &#51221;&#47148;</text><polygon fill="#181818" points="1219,622.8516,1229,626.8516,1219,630.8516,1223,626.8516" style="stroke:#181818;stroke-width:1.0;"/><line style="stroke:#181818;stroke-width:1.0;" x1="598.5" x2="1225" y1="626.8516" y2="626.8516"/><text fill="#000000" font-family="sans-serif" font-size="13" lengthAdjust="spacing" textLength="261" x="605.5" y="621.7856">schedule.csv &#45934;&#50612;&#50416;&#44592; (utf-8-sig, &#54756;&#45908; &#44256;&#51221;)</text><path d="M513.5,641.8516 L583.5,641.8516 L583.5,648.9844 L573.5,658.9844 L513.5,658.9844 L513.5,641.8516 " fill="#EEEEEE" style="stroke:#000000;stroke-width:1.5;"/><rect fill="none" height="46.2656" style="stroke:#000000;stroke-width:1.5;" width="855.5" x="513.5" y="641.8516"/><text fill="#000000" font-family="sans-serif" font-size="13" font-weight="bold" lengthAdjust="spacing" textLength="25" x="528.5" y="654.9185">opt</text><text fill="#000000" font-family="sans-serif" font-size="11" font-weight="bold" lengthAdjust="spacing" textLength="96" x="598.5" y="654.062">[E2 &#50696;&#51221; &#44221;&#44592; 0&#44148;]</text><polygon fill="#181818" points="1219,676.1172,1229,680.1172,1219,684.1172,1223,680.1172" style="stroke:#181818;stroke-width:1.0;"/><line style="stroke:#181818;stroke-width:1.0;" x1="598.5" x2="1225" y1="680.1172" y2="680.1172"/><text fill="#000000" font-family="sans-serif" font-size="13" lengthAdjust="spacing" textLength="95" x="605.5" y="675.0513">&#54756;&#45908;&#47564; &#51080;&#45716; CSV</text><polygon fill="#181818" points="1219,712.25,1229,716.25,1219,720.25,1223,716.25" style="stroke:#181818;stroke-width:1.0;"/><line style="stroke:#181818;stroke-width:1.0;" x1="598.5" x2="1225" y1="716.25" y2="716.25"/><text fill="#000000" font-family="sans-serif" font-size="13" lengthAdjust="spacing" textLength="264" x="605.5" y="711.1841">5. schedule_meta.json {&#44221;&#44592;&#49688;, &#44081;&#49888;, &#49444;&#47749;}</text><polygon fill="#181818" points="101.5,741.3828,91.5,745.3828,101.5,749.3828,97.5,745.3828" style="stroke:#181818;stroke-width:1.0;"/><line style="stroke:#181818;stroke-width:1.0;stroke-dasharray:2.0,2.0;" x1="95.5" x2="597.5" y1="745.3828" y2="745.3828"/><text fill="#000000" font-family="sans-serif" font-size="13" lengthAdjust="spacing" textLength="281" x="107.5" y="740.3169">6. "[&#50756;&#47308;] &#50696;&#51221; &#44221;&#44592; N&#44148;" + &#49345;&#50948; 5&#44148; &#183; &#51333;&#47308;&#53076;&#46300; 0</text><line style="stroke:#181818;stroke-width:1.0;" x1="284.5" x2="326.5" y1="774.5156" y2="774.5156"/><line style="stroke:#181818;stroke-width:1.0;" x1="326.5" x2="326.5" y1="774.5156" y2="787.5156"/><line style="stroke:#181818;stroke-width:1.0;" x1="285.5" x2="326.5" y1="787.5156" y2="787.5156"/><polygon fill="#181818" points="295.5,783.5156,285.5,787.5156,295.5,791.5156,291.5,787.5156" style="stroke:#181818;stroke-width:1.0;"/><text fill="#000000" font-family="sans-serif" font-size="13" lengthAdjust="spacing" textLength="250" x="291.5" y="769.4497">(A1 loop) &#52308;&#54588;&#50616;&#183;&#47021;&#53433; &#49688;&#51665; &#54980; 5&#48516; &#49772;&#44256; &#48152;&#48373;</text><polygon fill="#181818" points="1242,840.6484,1232,844.6484,1242,848.6484,1238,844.6484" style="stroke:#181818;stroke-width:1.0;"/><line style="stroke:#181818;stroke-width:1.0;" x1="1236" x2="1633" y1="844.6484" y2="844.6484"/><text fill="#000000" font-family="sans-serif" font-size="13" lengthAdjust="spacing" textLength="379" x="1248" y="839.5825">&#45796;&#51020; GET /api/schedule &#50836;&#52397;&#48512;&#53552; &#49352; &#54028;&#51068;&#51012; &#51069;&#45716;&#45796; (&#51116;&#49884;&#51089; &#48520;&#54596;&#50836;)</text><!--SRC=[RLLTJzjc5BxthpZAf2dHY26qJ2iIcu3ITTgqJWlifY1ad9V4mzYUxT2XQL8efaf9KDSreG4I5DPGQ4UtG48JLBZ9J-bbtjV_OUTruamflJ8sv-Cvp_ES4sj9qGp9b9PXGPANugQUr6AJkggRyCcT6tSYKnE2rOkm4b9CVw1eSLYKL8i8jcAh16OcRu6RS-X14TfdL-rc5LZfafNpm3OhT7s3hJU0fGliw2b4oIz9eia4RYjI70iAWYJRs2d0d2AzS30UQAPECnT1MgswJqvQ3RPRPuMrK00a2-uPbe0uR4LM34cp8M39fcBOrk2iPYQrULbNLSBBMQALy1AYTp-8DsMCxSRDMtA2n98g4OrLBthotdVzuQgk4ilGJTlo1nh_uPjPBOX8sxLpbYbrOE77_ZoJU4c3jhI01R1ZhvDihK2h0Vxx_3An9V5dIzSw0A8_zHUYrLFsF4UV5U7MoF1DxFo0B0nAXe68EwqdfWG1MO7mbnmzZ49416FLJkWQy5a_CgcWwJO1KuadRD0NFKe1nYEZ80xwR5xZ4kwhkcxCOM2xcW9szZUATDokTGIlxh1IYYljhftGbrVkPfCUNW9zcwA7JPgf24IB0U_fuupUHPZ1yKW8hlVXRGGCw8tZnR5CnTr-p7bJzRXrVIZyAl3mNbR7YwnSGZ10NnnpJ0YLbUhqoGu4TKkK4p753FbPA21c3OlmzTGqn8aTxLR-Ag6EBUdXRt_yr7F16Fe1DVWrB1bAU8ci0fgWNIs2-x32mRNF_s350xRx2cR6-Vlm4AkdGuAasZ0L0UfK40RRoo9DwEhgCLBOQhY5FDe8MA523mjS24GIxit12ccsqyJF7axyp2aSXS1zpaZsUAxhIbPoW5Rts54AwEjtxdQQRPxJJ1h9X_Ufbz1RBRgP0rnETb3dJWDFlPh37cq1qiBsdxhvLvsq08VF_jgWBxBiohDV145unj5NYEbbZ_gbt6mMOG0hbX40Lrle7o8ceSLxMf4LejbMlrmtHB1ioIPZIGsVfarYlB-RJS4mfnV_dfwu3Iplq4m1w54M9ohJcZEhlN_q9onBjfoOLsAjXfSxBzd1cUd9KAkX4YcU9At6WghBI_ZGaUriYhxUGFQzeV29XlYtYR1R3SDKT5EnL_kHtHGXwFzd0Fm6wCXodfPFUh4U7NqxJhV-OTjrzgpAZs4mQI-6lmXRIdm0tESLkeKorCfO8oJe1ffZs1CQhqltU0wrJ-k-w7xrJfut_7wQ2ybl1IUxBsf4_CXfWTywTV443-2wdh9CUG0fh20LlmlzplfSvERQSL3ukGz0VO-W0l0PiFKrLdHW15-lkMIekxl-YdlxZ6oTvjpS9TjkjXfq_utxyCB_DN3ti11zwm1xV8ACe8aBj7OkYA8eJ4pzFnKwafMotdBYyLC6_H61xUROsHiyDQw3FpdhwQuN-JwmqXMon5SWoFPFMAQ8_iQZb7Rp3cQ5_WC0]--></g></svg>