<?xml version="1.0" encoding="us-ascii" standalone="no"?><svg xmlns="http://www.w3.org/2000/svg" xmlns:xlink="http://www.w3.org/1999/xlink" contentStyleType="text/css" height="1720px" preserveAspectRatio="none" style="width:1512px;height:1720px;background:#F3F1EB;" version="1.1" viewBox="0 0 1512 1720" width="1512px" zoomAndPan="magnify"><defs/><g><rect fill="#F3F1EB" height="1720" style="stroke:none;stroke-width:1.0;" width="1512" x="0" y="0"/><text fill="#000000" font-family="sans-serif" font-size="14" font-weight="bold" lengthAdjust="spacing" textLength="337" x="589" y="27.9951">UC13 &#54016; &#49436;&#48260; &#48176;&#54252;&#183;&#49345;&#53468; &#54869;&#51064; Sequence Diagram</text><rect fill="none" height="46.2656" style="stroke:#000000;stroke-width:1.5;" width="651.5" x="10" y="281.4219"/><rect fill="none" height="75.3984" style="stroke:#000000;stroke-width:1.5;" width="1023.5" x="10" y="370.8203"/><rect fill="none" height="46.2656" style="stroke:#000000;stroke-width:1.5;" width="651.5" x="10" y="589.75"/><rect fill="none" height="46.2656" style="stroke:#000000;stroke-width:1.5;" width="651.5" x="10" y="679.1484"/><rect fill="none" height="46.2656" style="stroke:#000000;stroke-width:1.5;" width="651.5" x="10" y="810.6797"/><rect fill="none" height="46.2656" style="stroke:#000000;stroke-width:1.5;" width="651.5" x="10" y="1089.8438"/><rect fill="none" height="75.3984" style="stroke:#000000;stroke-width:1.5;" width="1496" x="10" y="1295.7734"/><rect fill="none" height="46.2656" style="stroke:#000000;stroke-width:1.5;" width="651.5" x="10" y="1530.8359"/><line style="stroke:#181818;stroke-width:0.5;stroke-dasharray:5.0,5.0;" x1="57" x2="57" y1="134.8906" y2="1623.2344"/><line style="stroke:#181818;stroke-width:0.5;stroke-dasharray:5.0,5.0;" x1="580.5" x2="580.5" y1="134.8906" y2="1623.2344"/><line style="stroke:#181818;stroke-width:0.5;stroke-dasharray:5.0,5.0;" x1="971.5" x2="971.5" y1="134.8906" y2="1623.2344"/><line style="stroke:#181818;stroke-width:0.5;stroke-dasharray:5.0,5.0;" x1="1085.5" x2="1085.5" y1="134.8906" y2="1623.2344"/><line style="stroke:#181818;stroke-width:0.5;stroke-dasharray:5.0,5.0;" x1="1294" x2="1294" y1="134.8906" y2="1623.2344"/><line style="stroke:#181818;stroke-width:0.5;stroke-dasharray:5.0,5.0;" x1="1434" x2="1434" y1="134.8906" y2="1623.2344"/><text fill="#000000" font-family="sans-serif" font-size="14" lengthAdjust="spacing" textLength="69" x="20" y="115.292">&#49436;&#48708;&#49828; &#45812;&#45817;</text><text fill="#000000" font-family="sans-serif" font-size="14" lengthAdjust="spacing" textLength="66" x="21.5" y="131.5889">(&#48176;&#54252;&#183;&#50868;&#50689;)</text><ellipse cx="57.5" cy="50.7969" fill="#E2E2F0" rx="8" ry="8" style="stroke:#181818;stroke-width:0.5;"/><path d="M57.5,58.7969 L57.5,85.7969 M44.5,66.7969 L70.5,66.7969 M57.5,85.7969 L44.5,100.7969 M57.5,85.7969 L70.5,100.7969 " fill="none" style="stroke:#181818;stroke-width:0.5;"/><text fill="#000000" font-family="sans-serif" font-size="14" lengthAdjust="spacing" textLength="69" x="20" y="1635.2295">&#49436;&#48708;&#49828; &#45812;&#45817;</text><text fill="#000000" font-family="sans-serif" font-size="14" lengthAdjust="spacing" textLength="66" x="21.5" y="1651.5264">(&#48176;&#54252;&#183;&#50868;&#50689;)</text><ellipse cx="57.5" cy="1663.3281" fill="#E2E2F0" rx="8" ry="8" style="stroke:#181818;stroke-width:0.5;"/><path d="M57.5,1671.3281 L57.5,1698.3281 M44.5,1679.3281 L70.5,1679.3281 M57.5,1698.3281 L44.5,1713.3281 M57.5,1698.3281 L70.5,1713.3281 " fill="none" style="stroke:#181818;stroke-width:0.5;"/><rect fill="#E2E2F0" height="46.5938" rx="2.5" ry="2.5" style="stroke:#181818;stroke-width:0.5;" width="142" x="509.5" y="87.2969"/><text fill="#000000" font-family="sans-serif" font-size="14" lengthAdjust="spacing" textLength="60" x="550.5" y="107.292">&#54016; &#49436;&#48260; &#49528;</text><text fill="#000000" font-family="sans-serif" font-size="14" lengthAdjust="spacing" textLength="128" x="516.5" y="123.5889">(check_project.sh)</text><rect fill="#E2E2F0" height="46.5938" rx="2.5" ry="2.5" style="stroke:#181818;stroke-width:0.5;" width="142" x="509.5" y="1622.2344"/><text fill="#000000" font-family="sans-serif" font-size="14" lengthAdjust="spacing" textLength="60" x="550.5" y="1642.2295">&#54016; &#49436;&#48260; &#49528;</text><text fill="#000000" font-family="sans-serif" font-size="14" lengthAdjust="spacing" textLength="128" x="516.5" y="1658.5264">(check_project.sh)</text><rect fill="#E2E2F0" height="46.5938" rx="2.5" ry="2.5" style="stroke:#181818;stroke-width:0.5;" width="104" x="919.5" y="87.2969"/><text fill="#000000" font-family="sans-serif" font-size="14" lengthAdjust="spacing" textLength="90" x="926.5" y="107.292">GitHub &#51200;&#51109;&#49548;</text><text fill="#000000" font-family="sans-serif" font-size="14" lengthAdjust="spacing" textLength="88" x="927.5" y="123.5889">(team &#48652;&#47004;&#52824;)</text><rect fill="#E2E2F0" height="46.5938" rx="2.5" ry="2.5" style="stroke:#181818;stroke-width:0.5;" width="104" x="919.5" y="1622.2344"/><text fill="#000000" font-family="sans-serif" font-size="14" lengthAdjust="spacing" textLength="90" x="926.5" y="1642.2295">GitHub &#51200;&#51109;&#49548;</text><text fill="#000000" font-family="sans-serif" font-size="14" lengthAdjust="spacing" textLength="88" x="927.5" y="1658.5264">(team &#48652;&#47004;&#52824;)</text><rect fill="#E2E2F0" height="46.5938" rx="2.5" ry="2.5" style="stroke:#181818;stroke-width:0.5;" width="104" x="1033.5" y="87.2969"/><text fill="#000000" font-family="sans-serif" font-size="14" lengthAdjust="spacing" textLength="79" x="1046" y="107.292">&#48177;&#50644;&#46300; 9524</text><text fill="#000000" font-family="sans-serif" font-size="14" lengthAdjust="spacing" textLength="90" x="1040.5" y="123.5889">(web/app.py)</text><rect fill="#E2E2F0" height="46.5938" rx="2.5" ry="2.5" style="stroke:#181818;stroke-width:0.5;" width="104" x="1033.5" y="1622.2344"/><text fill="#000000" font-family="sans-serif" font-size="14" lengthAdjust="spacing" textLength="79" x="1046" y="1642.2295">&#48177;&#50644;&#46300; 9524</text><text fill="#000000" font-family="sans-serif" font-size="14" lengthAdjust="spacing" textLength="90" x="1040.5" y="1658.5264">(web/app.py)</text><rect fill="#E2E2F0" height="46.5938" rx="2.5" ry="2.5" style="stroke:#181818;stroke-width:0.5;" width="137" x="1226" y="87.2969"/><text fill="#000000" font-family="sans-serif" font-size="14" lengthAdjust="spacing" textLength="79" x="1255" y="107.292">&#54532;&#47088;&#53944; 9504</text><text fill="#000000" font-family="sans-serif" font-size="14" lengthAdjust="spacing" textLength="123" x="1233" y="123.5889">(web/frontend.py)</text><rect fill="#E2E2F0" height="46.5938" rx="2.5" ry="2.5" style="stroke:#181818;stroke-width:0.5;" width="137" x="1226" y="1622.2344"/><text fill="#000000" font-family="sans-serif" font-size="14" lengthAdjust="spacing" textLength="79" x="1255" y="1642.2295">&#54532;&#47088;&#53944; 9504</text><text fill="#000000" font-family="sans-serif" font-size="14" lengthAdjust="spacing" textLength="123" x="1233" y="1658.5264">(web/frontend.py)</text><rect fill="#E2E2F0" height="46.5938" rx="2.5" ry="2.5" style="stroke:#181818;stroke-width:0.5;" width="123" x="1373" y="87.2969"/><text fill="#000000" font-family="sans-serif" font-size="14" lengthAdjust="spacing" textLength="69" x="1400" y="107.292">&#44277;&#44060; &#46020;&#47700;&#51064;</text><text fill="#000000" font-family="sans-serif" font-size="14" lengthAdjust="spacing" textLength="109" x="1380" y="123.5889">(&#49688;&#50629; &#49436;&#48260; &#54532;&#47197;&#49884;)</text><rect fill="#E2E2F0" height="46.5938" rx="2.5" ry="2.5" style="stroke:#181818;stroke-width:0.5;" width="123" x="1373" y="1622.2344"/><text fill="#000000" font-family="sans-serif" font-size="14" lengthAdjust="spacing" textLength="69" x="1400" y="1642.2295">&#44277;&#44060; &#46020;&#47700;&#51064;</text><text fill="#000000" font-family="sans-serif" font-size="14" lengthAdjust="spacing" textLength="109" x="1380" y="1658.5264">(&#49688;&#50629; &#49436;&#48260; &#54532;&#47197;&#49884;)</text><polygon fill="#181818" points="568.5,162.0234,578.5,166.0234,568.5,170.0234,572.5,166.0234" style="stroke:#181818;stroke-width:1.0;"/><line style="stroke:#181818;stroke-width:1.0;" x1="57.5" x2="574.5" y1="166.0234" y2="166.0234"/><text fill="#000000" font-family="sans-serif" font-size="13" lengthAdjust="spacing" textLength="338" x="64.5" y="160.9575">1. &#51217;&#49549; &#8594; cd /project2608 &#8594; git branch --show-current</text><polygon fill="#181818" points="68.5,191.1563,58.5,195.1563,68.5,199.1563,64.5,195.1563" style="stroke:#181818;stroke-width:1.0;"/><line style="stroke:#181818;stroke-width:1.0;stroke-dasharray:2.0,2.0;" x1="62.5" x2="579.5" y1="195.1563" y2="195.1563"/><text fill="#000000" font-family="sans-serif" font-size="13" lengthAdjust="spacing" textLength="208" x="74.5" y="190.0903">&#54788;&#51116; &#48652;&#47004;&#52824; &#54364;&#49884; (team &#51060;&#50612;&#50556; &#54620;&#45796;)</text><polygon fill="#181818" points="568.5,220.2891,578.5,224.2891,568.5,228.2891,572.5,224.2891" style="stroke:#181818;stroke-width:1.0;"/><line style="stroke:#181818;stroke-width:1.0;" x1="57.5" x2="574.5" y1="224.2891" y2="224.2891"/><text fill="#000000" font-family="sans-serif" font-size="13" lengthAdjust="spacing" textLength="177" x="64.5" y="219.2231">2. ./check_project.sh deploy</text><line style="stroke:#181818;stroke-width:1.0;" x1="580.5" x2="622.5" y1="253.4219" y2="253.4219"/><line style="stroke:#181818;stroke-width:1.0;" x1="622.5" x2="622.5" y1="253.4219" y2="266.4219"/><line style="stroke:#181818;stroke-width:1.0;" x1="581.5" x2="622.5" y1="266.4219" y2="266.4219"/><polygon fill="#181818" points="591.5,262.4219,581.5,266.4219,591.5,270.4219,587.5,266.4219" style="stroke:#181818;stroke-width:1.0;"/><text fill="#000000" font-family="sans-serif" font-size="13" lengthAdjust="spacing" textLength="377" x="587.5" y="248.356">.env &#51069;&#44592;(&#44050; &#52636;&#47141; &#50630;&#51020;) &#183; &#49892;&#51228;&#47196; &#46020;&#45716; python &#49440;&#53469;(venv311 &#50864;&#49440;)</text><path d="M10,281.4219 L74,281.4219 L74,288.5547 L64,298.5547 L10,298.5547 L10,281.4219 " fill="#EEEEEE" style="stroke:#000000;stroke-width:1.5;"/><rect fill="none" height="46.2656" style="stroke:#000000;stroke-width:1.5;" width="651.5" x="10" y="281.4219"/><text fill="#000000" font-family="sans-serif" font-size="13" font-weight="bold" lengthAdjust="spacing" textLength="19" x="25" y="294.4888">alt</text><text fill="#000000" font-family="sans-serif" font-size="11" font-weight="bold" lengthAdjust="spacing" textLength="150" x="89" y="293.6323">[E9 &#50424; &#49688; &#51080;&#45716; python &#50630;&#51020;]</text><polygon fill="#181818" points="68.5,315.6875,58.5,319.6875,68.5,323.6875,64.5,319.6875" style="stroke:#181818;stroke-width:1.0;"/><line style="stroke:#181818;stroke-width:1.0;stroke-dasharray:2.0,2.0;" x1="62.5" x2="579.5" y1="319.6875" y2="319.6875"/><text fill="#000000" font-family="sans-serif" font-size="13" lengthAdjust="spacing" textLength="246" x="74.5" y="314.6216">"&#50424; &#49688; &#51080;&#45716; python &#51012; &#47803; &#52286;&#50520;&#49845;&#45768;&#45796;" &#183; &#51333;&#47308;</text><polygon fill="#181818" points="959.5,351.8203,969.5,355.8203,959.5,359.8203,963.5,355.8203" style="stroke:#181818;stroke-width:1.0;"/><line style="stroke:#181818;stroke-width:1.0;" x1="580.5" x2="965.5" y1="355.8203" y2="355.8203"/><text fill="#000000" font-family="sans-serif" font-size="13" lengthAdjust="spacing" textLength="111" x="587.5" y="350.7544">3. git pull --ff-only</text><path d="M10,370.8203 L74,370.8203 L74,377.9531 L64,387.9531 L10,387.9531 L10,370.8203 " fill="#EEEEEE" style="stroke:#000000;stroke-width:1.5;"/><rect fill="none" height="75.3984" style="stroke:#000000;stroke-width:1.5;" width="1023.5" x="10" y="370.8203"/><text fill="#000000" font-family="sans-serif" font-size="13" font-weight="bold" lengthAdjust="spacing" textLength="19" x="25" y="383.8872">alt</text><text fill="#000000" font-family="sans-serif" font-size="11" font-weight="bold" lengthAdjust="spacing" textLength="362" x="89" y="383.0308">[E1 pull &#49892;&#54056; (&#47196;&#52972; &#48320;&#44221;&#183;fast-forward &#48520;&#44032;&#183;&#48652;&#47004;&#52824;&#44032; team &#51060; &#50500;&#45784;)]</text><polygon fill="#181818" points="591.5,405.0859,581.5,409.0859,591.5,413.0859,587.5,409.0859" style="stroke:#181818;stroke-width:1.0;"/><line style="stroke:#181818;stroke-width:1.0;stroke-dasharray:2.0,2.0;" x1="585.5" x2="970.5" y1="409.0859" y2="409.0859"/><text fill="#000000" font-family="sans-serif" font-size="13" lengthAdjust="spacing" textLength="24" x="597.5" y="404.02">&#49892;&#54056;</text><polygon fill="#181818" points="68.5,434.2188,58.5,438.2188,68.5,442.2188,64.5,438.2188" style="stroke:#181818;stroke-width:1.0;"/><line style="stroke:#181818;stroke-width:1.0;stroke-dasharray:2.0,2.0;" x1="62.5" x2="579.5" y1="438.2188" y2="438.2188"/><text fill="#000000" font-family="sans-serif" font-size="13" lengthAdjust="spacing" textLength="337" x="74.5" y="433.1528">"git pull &#49892;&#54056; &#8212; &#47196;&#52972; &#48320;&#44221;&#51060; &#51080;&#51004;&#47732; &#47676;&#51200; &#52964;&#48139;/&#49828;&#53468;&#49884;" &#183; &#51473;&#45800;</text><polygon fill="#181818" points="591.5,470.3516,581.5,474.3516,591.5,478.3516,587.5,474.3516" style="stroke:#181818;stroke-width:1.0;"/><line style="stroke:#181818;stroke-width:1.0;stroke-dasharray:2.0,2.0;" x1="585.5" x2="970.5" y1="474.3516" y2="474.3516"/><text fill="#000000" font-family="sans-serif" font-size="13" lengthAdjust="spacing" textLength="118" x="597.5" y="469.2856">team &#52572;&#49888; &#52964;&#48139; &#48152;&#50689;</text><polygon fill="#181818" points="1282.5,499.4844,1292.5,503.4844,1282.5,507.4844,1286.5,503.4844" style="stroke:#181818;stroke-width:1.0;"/><line style="stroke:#181818;stroke-width:1.0;" x1="580.5" x2="1288.5" y1="503.4844" y2="503.4844"/><text fill="#000000" font-family="sans-serif" font-size="13" lengthAdjust="spacing" textLength="249" x="587.5" y="498.4185">4. stop (pid &#51333;&#47308; &#183; &#54252;&#53944; &#51092;&#50668; &#54532;&#47196;&#49464;&#49828; &#51221;&#47532;)</text><polygon fill="#181818" points="1073.5,528.6172,1083.5,532.6172,1073.5,536.6172,1077.5,532.6172" style="stroke:#181818;stroke-width:1.0;"/><line style="stroke:#181818;stroke-width:1.0;" x1="580.5" x2="1079.5" y1="532.6172" y2="532.6172"/><text fill="#000000" font-family="sans-serif" font-size="13" lengthAdjust="spacing" textLength="28" x="587.5" y="527.5513">stop</text><line style="stroke:#181818;stroke-width:1.0;" x1="580.5" x2="622.5" y1="561.75" y2="561.75"/><line style="stroke:#181818;stroke-width:1.0;" x1="622.5" x2="622.5" y1="561.75" y2="574.75"/><line style="stroke:#181818;stroke-width:1.0;" x1="581.5" x2="622.5" y1="574.75" y2="574.75"/><polygon fill="#181818" points="591.5,570.75,581.5,574.75,591.5,578.75,587.5,574.75" style="stroke:#181818;stroke-width:1.0;"/><text fill="#000000" font-family="sans-serif" font-size="13" lengthAdjust="spacing" textLength="298" x="587.5" y="556.6841">artifacts/model.joblib &#183; flask/sklearn import &#54869;&#51064;</text><path d="M10,589.75 L74,589.75 L74,596.8828 L64,606.8828 L10,606.8828 L10,589.75 " fill="#EEEEEE" style="stroke:#000000;stroke-width:1.5;"/><rect fill="none" height="46.2656" style="stroke:#000000;stroke-width:1.5;" width="651.5" x="10" y="589.75"/><text fill="#000000" font-family="sans-serif" font-size="13" font-weight="bold" lengthAdjust="spacing" textLength="19" x="25" y="602.8169">alt</text><text fill="#000000" font-family="sans-serif" font-size="11" font-weight="bold" lengthAdjust="spacing" textLength="329" x="89" y="601.9604">[E2 model.joblib &#50630;&#51020; / E3 venv311&#183;flask&#183;sklearn &#50630;&#51020;]</text><polygon fill="#181818" points="68.5,624.0156,58.5,628.0156,68.5,632.0156,64.5,628.0156" style="stroke:#181818;stroke-width:1.0;"/><line style="stroke:#181818;stroke-width:1.0;stroke-dasharray:2.0,2.0;" x1="62.5" x2="579.5" y1="628.0156" y2="628.0156"/><text fill="#000000" font-family="sans-serif" font-size="13" lengthAdjust="spacing" textLength="156" x="74.5" y="622.9497">&#50896;&#51064;&#44284; &#48373;&#44396; &#47749;&#47161; &#54364;&#49884; &#183; &#51473;&#45800;</text><polygon fill="#181818" points="1073.5,660.1484,1083.5,664.1484,1073.5,668.1484,1077.5,664.1484" style="stroke:#181818;stroke-width:1.0;"/><line style="stroke:#181818;stroke-width:1.0;" x1="580.5" x2="1079.5" y1="664.1484" y2="664.1484"/><text fill="#000000" font-family="sans-serif" font-size="13" lengthAdjust="spacing" textLength="284" x="587.5" y="659.0825">start (nohup python web/app.py --port 9524)</text><path d="M10,679.1484 L74,679.1484 L74,686.2813 L64,696.2813 L10,696.2813 L10,679.1484 " fill="#EEEEEE" style="stroke:#000000;stroke-width:1.5;"/><rect fill="none" height="46.2656" style="stroke:#000000;stroke-width:1.5;" width="651.5" x="10" y="679.1484"/><text fill="#000000" font-family="sans-serif" font-size="13" font-weight="bold" lengthAdjust="spacing" textLength="19" x="25" y="692.2153">alt</text><text fill="#000000" font-family="sans-serif" font-size="11" font-weight="bold" lengthAdjust="spacing" textLength="74" x="89" y="691.3589">[E4 &#54252;&#53944; &#51216;&#50976;]</text><polygon fill="#181818" points="68.5,713.4141,58.5,717.4141,68.5,721.4141,64.5,717.4141" style="stroke:#181818;stroke-width:1.0;"/><line style="stroke:#181818;stroke-width:1.0;stroke-dasharray:2.0,2.0;" x1="62.5" x2="579.5" y1="717.4141" y2="717.4141"/><text fill="#000000" font-family="sans-serif" font-size="13" lengthAdjust="spacing" textLength="297" x="74.5" y="712.3481">"&#54252;&#53944; N &#47484; &#45796;&#47480; &#54532;&#47196;&#49464;&#49828;&#44032; &#50416;&#44256; &#51080;&#45796; (pid ...)" &#183; &#51473;&#45800;</text><line style="stroke:#181818;stroke-width:1.0;" x1="1085.5" x2="1127.5" y1="753.5469" y2="753.5469"/><line style="stroke:#181818;stroke-width:1.0;" x1="1127.5" x2="1127.5" y1="753.5469" y2="766.5469"/><line style="stroke:#181818;stroke-width:1.0;" x1="1086.5" x2="1127.5" y1="766.5469" y2="766.5469"/><polygon fill="#181818" points="1096.5,762.5469,1086.5,766.5469,1096.5,770.5469,1092.5,766.5469" style="stroke:#181818;stroke-width:1.0;"/><text fill="#000000" font-family="sans-serif" font-size="13" lengthAdjust="spacing" textLength="195" x="1092.5" y="748.481">&#44592;&#46041; &#49884; key_works() &#183; &#54028;&#47532;&#54000; &#49892;&#52769;</text><polygon fill="#181818" points="1073.5,791.6797,1083.5,795.6797,1073.5,799.6797,1077.5,795.6797" style="stroke:#181818;stroke-width:1.0;"/><line style="stroke:#181818;stroke-width:1.0;" x1="580.5" x2="1079.5" y1="795.6797" y2="795.6797"/><text fill="#000000" font-family="sans-serif" font-size="13" lengthAdjust="spacing" textLength="194" x="587.5" y="790.6138">GET /api/health (&#52572;&#45824; 25&#52488; &#45824;&#44592;)</text><path d="M10,810.6797 L74,810.6797 L74,817.8125 L64,827.8125 L10,827.8125 L10,810.6797 " fill="#EEEEEE" style="stroke:#000000;stroke-width:1.5;"/><rect fill="none" height="46.2656" style="stroke:#000000;stroke-width:1.5;" width="651.5" x="10" y="810.6797"/><text fill="#000000" font-family="sans-serif" font-size="13" font-weight="bold" lengthAdjust="spacing" textLength="19" x="25" y="823.7466">alt</text><text fill="#000000" font-family="sans-serif" font-size="11" font-weight="bold" lengthAdjust="spacing" textLength="180" x="89" y="822.8901">[E5 &#44592;&#46041; &#49892;&#54056; (25&#52488; &#45236; 200 &#50500;&#45784;)]</text><polygon fill="#181818" points="68.5,844.9453,58.5,848.9453,68.5,852.9453,64.5,848.9453" style="stroke:#181818;stroke-width:1.0;"/><line style="stroke:#181818;stroke-width:1.0;stroke-dasharray:2.0,2.0;" x1="62.5" x2="579.5" y1="848.9453" y2="848.9453"/><text fill="#000000" font-family="sans-serif" font-size="13" lengthAdjust="spacing" textLength="243" x="74.5" y="843.8794">logs/backend.log &#47560;&#51648;&#47561; 15&#51460; &#54364;&#49884; &#183; &#51473;&#45800;</text><polygon fill="#181818" points="591.5,881.0781,581.5,885.0781,591.5,889.0781,587.5,885.0781" style="stroke:#181818;stroke-width:1.0;"/><line style="stroke:#181818;stroke-width:1.0;stroke-dasharray:2.0,2.0;" x1="585.5" x2="1084.5" y1="885.0781" y2="885.0781"/><text fill="#000000" font-family="sans-serif" font-size="13" lengthAdjust="spacing" textLength="214" x="597.5" y="880.0122">200 (&#47784;&#45944; &#47700;&#53440; &#183; riot_ready &#183; parity)</text><polygon fill="#181818" points="1282.5,910.2109,1292.5,914.2109,1282.5,918.2109,1286.5,914.2109" style="stroke:#181818;stroke-width:1.0;"/><line style="stroke:#181818;stroke-width:1.0;" x1="580.5" x2="1288.5" y1="914.2109" y2="914.2109"/><text fill="#000000" font-family="sans-serif" font-size="13" lengthAdjust="spacing" textLength="314" x="587.5" y="909.145">start (nohup python web/frontend.py --port 9504)</text><polygon fill="#181818" points="1282.5,939.3438,1292.5,943.3438,1282.5,947.3438,1286.5,943.3438" style="stroke:#181818;stroke-width:1.0;"/><line style="stroke:#181818;stroke-width:1.0;" x1="580.5" x2="1288.5" y1="943.3438" y2="943.3438"/><text fill="#000000" font-family="sans-serif" font-size="13" lengthAdjust="spacing" textLength="178" x="587.5" y="938.2778">GET /healthz (&#52572;&#45824; 25&#52488; &#45824;&#44592;)</text><polygon fill="#181818" points="1096.5,968.4766,1086.5,972.4766,1096.5,976.4766,1092.5,972.4766" style="stroke:#181818;stroke-width:1.0;"/><line style="stroke:#181818;stroke-width:1.0;" x1="1090.5" x2="1293.5" y1="972.4766" y2="972.4766"/><text fill="#000000" font-family="sans-serif" font-size="13" lengthAdjust="spacing" textLength="185" x="1102.5" y="967.4106">/api/health &#54869;&#51064; (backend_ok)</text><polygon fill="#181818" points="591.5,997.6094,581.5,1001.6094,591.5,1005.6094,587.5,1001.6094" style="stroke:#181818;stroke-width:1.0;"/><line style="stroke:#181818;stroke-width:1.0;stroke-dasharray:2.0,2.0;" x1="585.5" x2="1293.5" y1="1001.6094" y2="1001.6094"/><text fill="#000000" font-family="sans-serif" font-size="13" lengthAdjust="spacing" textLength="24" x="597.5" y="996.5435">200</text><polygon fill="#181818" points="68.5,1026.7422,58.5,1030.7422,68.5,1034.7422,64.5,1030.7422" style="stroke:#181818;stroke-width:1.0;"/><line style="stroke:#181818;stroke-width:1.0;stroke-dasharray:2.0,2.0;" x1="62.5" x2="579.5" y1="1030.7422" y2="1030.7422"/><text fill="#000000" font-family="sans-serif" font-size="13" lengthAdjust="spacing" textLength="286" x="74.5" y="1025.6763">"backend/frontend: &#49884;&#51089;&#46120;" &#183; &#54868;&#47732;&#183;&#44277;&#44060; &#51452;&#49548; &#50504;&#45236;</text><rect fill="none" height="39.1016" style="stroke:#000000;stroke-width:1.5;" width="859.5" x="506.5" y="1038.7422"/><path d="M506.5,1038.7422 L572.5,1038.7422 L572.5,1045.7422 L562.5,1055.7422 L506.5,1055.7422 L506.5,1038.7422 " fill="#EEEEEE" style="stroke:#000000;stroke-width:2.0;"/><text fill="#000000" font-family="sans-serif" font-size="13" font-weight="bold" lengthAdjust="spacing" textLength="21" x="519.5" y="1052.8091">ref</text><text fill="#000000" font-family="sans-serif" font-size="12" lengthAdjust="spacing" textLength="605" x="633.75" y="1070.8809">5. &#171;include&#187; UC12 &#49436;&#48729; &#44228;&#50557;&#183;&#54028;&#47532;&#54000; &#44160;&#51613; &#8212; verify(&#54924;&#44480;&#183;&#44228;&#50557;&#183;&#53076;&#52845;&#183;JS&#183;&#51116;&#54788;&#49457;&#183;factcheck) &#8594; &#54028;&#47532;&#54000; &#8594; API &#49828;&#47784;&#53356;</text><path d="M10,1089.8438 L74,1089.8438 L74,1096.9766 L64,1106.9766 L10,1106.9766 L10,1089.8438 " fill="#EEEEEE" style="stroke:#000000;stroke-width:1.5;"/><rect fill="none" height="46.2656" style="stroke:#000000;stroke-width:1.5;" width="651.5" x="10" y="1089.8438"/><text fill="#000000" font-family="sans-serif" font-size="13" font-weight="bold" lengthAdjust="spacing" textLength="19" x="25" y="1102.9106">alt</text><text fill="#000000" font-family="sans-serif" font-size="11" font-weight="bold" lengthAdjust="spacing" textLength="166" x="89" y="1102.0542">[E6 &#44160;&#51613; &#49892;&#54056; (&#54028;&#47532;&#54000;&#44032; &#44648;&#51664; &#46321;)]</text><polygon fill="#181818" points="68.5,1124.1094,58.5,1128.1094,68.5,1132.1094,64.5,1128.1094" style="stroke:#181818;stroke-width:1.0;"/><line style="stroke:#181818;stroke-width:1.0;stroke-dasharray:2.0,2.0;" x1="62.5" x2="579.5" y1="1128.1094" y2="1128.1094"/><text fill="#000000" font-family="sans-serif" font-size="13" lengthAdjust="spacing" textLength="409" x="74.5" y="1123.0435">&#49892;&#54056; &#54637;&#47785; &#54364;&#49884; &#8212; &#48176;&#54252;&#47196; &#52824;&#51648; &#50506;&#45716;&#45796; &#183; git log -- predict.py &#47196; &#50896;&#51064; &#52628;&#51201;</text><polygon fill="#181818" points="68.5,1160.2422,58.5,1164.2422,68.5,1168.2422,64.5,1164.2422" style="stroke:#181818;stroke-width:1.0;"/><line style="stroke:#181818;stroke-width:1.0;stroke-dasharray:2.0,2.0;" x1="62.5" x2="579.5" y1="1164.2422" y2="1164.2422"/><text fill="#000000" font-family="sans-serif" font-size="13" lengthAdjust="spacing" textLength="188" x="74.5" y="1159.1763">deploy &#50756;&#47308; (&#54028;&#47532;&#54000;&#183;&#49828;&#47784;&#53356; &#53685;&#44284;)</text><polygon fill="#181818" points="568.5,1189.375,578.5,1193.375,568.5,1197.375,572.5,1193.375" style="stroke:#181818;stroke-width:1.0;"/><line style="stroke:#181818;stroke-width:1.0;" x1="57.5" x2="574.5" y1="1193.375" y2="1193.375"/><text fill="#000000" font-family="sans-serif" font-size="13" lengthAdjust="spacing" textLength="175" x="64.5" y="1188.3091">6. ./check_project.sh status</text><polygon fill="#181818" points="1073.5,1218.5078,1083.5,1222.5078,1073.5,1226.5078,1077.5,1222.5078" style="stroke:#181818;stroke-width:1.0;"/><line style="stroke:#181818;stroke-width:1.0;" x1="580.5" x2="1079.5" y1="1222.5078" y2="1222.5078"/><text fill="#000000" font-family="sans-serif" font-size="13" lengthAdjust="spacing" textLength="96" x="587.5" y="1217.4419">GET /api/health</text><polygon fill="#181818" points="1282.5,1247.6406,1292.5,1251.6406,1282.5,1255.6406,1286.5,1251.6406" style="stroke:#181818;stroke-width:1.0;"/><line style="stroke:#181818;stroke-width:1.0;" x1="580.5" x2="1288.5" y1="1251.6406" y2="1251.6406"/><text fill="#000000" font-family="sans-serif" font-size="13" lengthAdjust="spacing" textLength="80" x="587.5" y="1246.5747">GET /healthz</text><polygon fill="#181818" points="1422.5,1276.7734,1432.5,1280.7734,1422.5,1284.7734,1426.5,1280.7734" style="stroke:#181818;stroke-width:1.0;"/><line style="stroke:#181818;stroke-width:1.0;" x1="580.5" x2="1428.5" y1="1280.7734" y2="1280.7734"/><text fill="#000000" font-family="sans-serif" font-size="13" lengthAdjust="spacing" textLength="176" x="587.5" y="1275.7075">GET https://p4.sumzip.com/</text><path d="M10,1295.7734 L74,1295.7734 L74,1302.9063 L64,1312.9063 L10,1312.9063 L10,1295.7734 " fill="#EEEEEE" style="stroke:#000000;stroke-width:1.5;"/><rect fill="none" height="75.3984" style="stroke:#000000;stroke-width:1.5;" width="1496" x="10" y="1295.7734"/><text fill="#000000" font-family="sans-serif" font-size="13" font-weight="bold" lengthAdjust="spacing" textLength="19" x="25" y="1308.8403">alt</text><text fill="#000000" font-family="sans-serif" font-size="11" font-weight="bold" lengthAdjust="spacing" textLength="122" x="89" y="1307.9839">[E7 &#44277;&#44060; &#46020;&#47700;&#51064;&#47564; 502]</text><polygon fill="#181818" points="591.5,1330.0391,581.5,1334.0391,591.5,1338.0391,587.5,1334.0391" style="stroke:#181818;stroke-width:1.0;"/><line style="stroke:#181818;stroke-width:1.0;stroke-dasharray:2.0,2.0;" x1="585.5" x2="1433.5" y1="1334.0391" y2="1334.0391"/><text fill="#000000" font-family="sans-serif" font-size="13" lengthAdjust="spacing" textLength="24" x="597.5" y="1328.9731">502</text><polygon fill="#181818" points="68.5,1359.1719,58.5,1363.1719,68.5,1367.1719,64.5,1363.1719" style="stroke:#181818;stroke-width:1.0;"/><line style="stroke:#181818;stroke-width:1.0;stroke-dasharray:2.0,2.0;" x1="62.5" x2="579.5" y1="1363.1719" y2="1363.1719"/><text fill="#000000" font-family="sans-serif" font-size="13" lengthAdjust="spacing" textLength="485" x="74.5" y="1358.106">"200 &#51060; &#50500;&#45768;&#47732; &#49688;&#50629; &#49436;&#48260; &#54532;&#47197;&#49884; &#49444;&#51221;&#51012; &#54869;&#51064;" &#8212; &#44732;&#51276;&#51004;&#47732; start, &#53020;&#51256; &#51080;&#51004;&#47732; &#44053;&#49324; &#47928;&#51032;</text><polygon fill="#181818" points="591.5,1395.3047,581.5,1399.3047,591.5,1403.3047,587.5,1399.3047" style="stroke:#181818;stroke-width:1.0;"/><line style="stroke:#181818;stroke-width:1.0;stroke-dasharray:2.0,2.0;" x1="585.5" x2="1433.5" y1="1399.3047" y2="1399.3047"/><text fill="#000000" font-family="sans-serif" font-size="13" lengthAdjust="spacing" textLength="24" x="597.5" y="1394.2388">200</text><polygon fill="#181818" points="68.5,1424.4375,58.5,1428.4375,68.5,1432.4375,64.5,1428.4375" style="stroke:#181818;stroke-width:1.0;"/><line style="stroke:#181818;stroke-width:1.0;stroke-dasharray:2.0,2.0;" x1="62.5" x2="579.5" y1="1428.4375" y2="1428.4375"/><text fill="#000000" font-family="sans-serif" font-size="13" lengthAdjust="spacing" textLength="204" x="74.5" y="1423.3716">&#48177;&#50644;&#46300;&#183;&#54532;&#47088;&#53944;&#183;&#44277;&#44060; &#46020;&#47700;&#51064; &#49464; &#51460; &#52488;&#47197;</text><polygon fill="#181818" points="568.5,1453.5703,578.5,1457.5703,568.5,1461.5703,572.5,1457.5703" style="stroke:#181818;stroke-width:1.0;"/><line style="stroke:#181818;stroke-width:1.0;" x1="57.5" x2="574.5" y1="1457.5703" y2="1457.5703"/><text fill="#000000" font-family="sans-serif" font-size="13" lengthAdjust="spacing" textLength="499" x="64.5" y="1452.5044">7. wc -c web/templates/index.html &#44284; curl -s https://p4.sumzip.com/ | wc -c &#48708;&#44368;</text><polygon fill="#181818" points="1422.5,1482.7031,1432.5,1486.7031,1422.5,1490.7031,1426.5,1486.7031" style="stroke:#181818;stroke-width:1.0;"/><line style="stroke:#181818;stroke-width:1.0;" x1="580.5" x2="1428.5" y1="1486.7031" y2="1486.7031"/><text fill="#000000" font-family="sans-serif" font-size="13" lengthAdjust="spacing" textLength="243" x="587.5" y="1481.6372">GET / (HTML, Cache-Control: no-store)</text><polygon fill="#181818" points="591.5,1511.8359,581.5,1515.8359,591.5,1519.8359,587.5,1515.8359" style="stroke:#181818;stroke-width:1.0;"/><line style="stroke:#181818;stroke-width:1.0;stroke-dasharray:2.0,2.0;" x1="585.5" x2="1433.5" y1="1515.8359" y2="1515.8359"/><text fill="#000000" font-family="sans-serif" font-size="13" lengthAdjust="spacing" textLength="91" x="597.5" y="1510.77">HTML &#48148;&#51060;&#53944; &#49688;</text><path d="M10,1530.8359 L74,1530.8359 L74,1537.9688 L64,1547.9688 L10,1547.9688 L10,1530.8359 " fill="#EEEEEE" style="stroke:#000000;stroke-width:1.5;"/><rect fill="none" height="46.2656" style="stroke:#000000;stroke-width:1.5;" width="651.5" x="10" y="1530.8359"/><text fill="#000000" font-family="sans-serif" font-size="13" font-weight="bold" lengthAdjust="spacing" textLength="19" x="25" y="1543.9028">alt</text><text fill="#000000" font-family="sans-serif" font-size="11" font-weight="bold" lengthAdjust="spacing" textLength="108" x="89" y="1543.0464">[E8 &#48148;&#51060;&#53944; &#49688;&#44032; &#45796;&#47492;]</text><polygon fill="#181818" points="68.5,1565.1016,58.5,1569.1016,68.5,1573.1016,64.5,1569.1016" style="stroke:#181818;stroke-width:1.0;"/><line style="stroke:#181818;stroke-width:1.0;stroke-dasharray:2.0,2.0;" x1="62.5" x2="579.5" y1="1569.1016" y2="1569.1016"/><text fill="#000000" font-family="sans-serif" font-size="13" lengthAdjust="spacing" textLength="445" x="74.5" y="1564.0356">&#49436;&#48260;&#44032; &#50715; &#54028;&#51068;&#51012; &#48372;&#44256; &#51080;&#45796; &#8212; &#48652;&#47004;&#52824;&#183;pull &#44208;&#44284; &#51116;&#54869;&#51064; (&#48652;&#46972;&#50864;&#51200; &#52880;&#49884; &#53459;&#51060; &#50500;&#45784;)</text><polygon fill="#181818" points="68.5,1601.2344,58.5,1605.2344,68.5,1609.2344,64.5,1605.2344" style="stroke:#181818;stroke-width:1.0;"/><line style="stroke:#181818;stroke-width:1.0;stroke-dasharray:2.0,2.0;" x1="62.5" x2="579.5" y1="1605.2344" y2="1605.2344"/><text fill="#000000" font-family="sans-serif" font-size="13" lengthAdjust="spacing" textLength="151" x="74.5" y="1600.1685">&#48148;&#51060;&#53944; &#49688; &#51068;&#52824; &#8594; &#48176;&#54252; &#50756;&#47308;</text><!--SRC=[VLPTJnjN47tthnZH5rl2Qp2G3nugDHH8gtv4IYhbeH9Qx3NUiEnkTzUXH5LbWa4kTXG8TZ69xPe60g54Si349Y5zy4_9uzwx_w5pxwwD5q8VaBoNEtFdd9apC-QihEgY8Sx1j1YRdJ6qb1eVqnJDW2ycXYO6nsy5pEuDCod6jNbPdO64g9XIm98jHOAVnWQ7mCcdWMRAv2W3f5vtdXwsctHfqLagWxDLf9KMt9L-IKbgJ8AlPN46dGK2Oip2L_gOrMc6hku0oJL8xlHdDTZryBn1IukXFX1D-54t0nY59STaNLGjwEjvaIwtq2gMb6ApKxgXFP1Ybc0cNRkxj_rcax9rEpKDj9QcrLswaaT3Iq9if9KdrJ8zBRbcanVCIFqjtIoGZJBS78aEez6yD1qHTLtG5ro3M-CNmYjao5zrPxM51WCTWuIXgPQanhjM4nUixECJkru6yZH3NXUGDhIZsHBTNEv0PMwtApHNTktlt0y4a1a8Vub0OHG61KIsJbUUmAULPn2Bm-yHZv3ejO4R_716jc3Q4DLO4i9XCwdDXsCfmv1KAu0UmkY8-Hi5fvIXrSDpMi1PB-EpuB95AmtwPuCMpy0fbabk9-IB8Yg04BcO3eXBkg8jy5UyUuAaFaHN7-rMFMZNdm5zLoQrNQ2RAxII3q6x2JItGsjbikrIibe0VS5AQYgoKNEMAi67w61eS13eypgUX0AYOi7uJQ0RBK3QW5QplJRSRG30XxFlYiiLBEI33q3h_z9YYQwUa5mMSVRneFvU9Y_p0SoZ1sQIWHaIEBLwIb7GVI8HrbHbmOreq3r5C4v-7u88Xtv0Qe_Jzj77TZCXcbOueHdpeX47yYvhrzFjPfTt_88EvK2B6P8hXH33f8k1q-ZwlGIi6uttxgTq0NnFSu_LB2sVaTSD8FjdA0gW7tP8FHT1FQ9uCU4kufrrajldY7iVTkCwmMirpmx5NqB9UhnCZEEbOG5CIzCXgCjnZphc4WNEn46h1Rfvw9PrcMPQh0_GMf6yEWnvJcun9yn3R-KmpIImWPYHEIqkAS83RLgHfvdVX2AQin5pLf54GmLvJjSCo-j1RZAYu3Dngm8YC3u4NZbXIfYJThFZvVELGr-ieLFx-0pfFB5FaDM3PL8xxGZ5JviF2qOFGLLBflHEkPrt4to0XypQZ5VGmrsoQckqNBkKQE-_Fm3PnLXoEsItvIEKbH3TgDl7DLxakHqt5u8WX2vc5mFiX8cY94-tW46PbHQcvZLZrWnoKJhvFER7oTMvF5lRlU0cn-y18f4ZIGbZJq8GouDWfuwEq4OMy1UwzM2Dd3_XwiAxyxW1qO61dbhteLMq6JF2HXLhe_W1P2zBzz9axmyO7A4xcS_Jpt1rknCw3vA3VVAa1TXbdQKqksp8cZLbI69yWNrXKvQjXL1l7L-LjfwUVfwxWM6VBMV5PUJH5PHCd3FVovytFOCUuYbjrhtQ0yRVj_kyczsuM7yeq-ewMTldsNQs2YZtTjCRDVJb6Kv1P3kBn0SCAG7QGyb0v_qOJByR_eW0xNzaDQQaubBx0nluKJwFJhV0FixG8ZQnyvgmZzBqLOLt6tGa9nQ2plEytKop5zsxz6E1dhvfDx-zYx-hXspIPDwoFXYp-D08yJbrxf5zVNNd6y1InhGvYuTk_LphFDMfdwu5AtZxT9_khG7PU7kfXBpxJl4DENZTgHVU7VdUmQODDbuiAcHb5MS2KmmIn_efAxXm67H3YiiurJ3b_3Rl13Y-2hIss9Lxzprty07Toh3UTnucekyW0cVb13k9VunU- -mOnJgqKkR_QEwgmlFExzptpfEMfPkZaOW-B9YfkKUoBiIqkOZBxNMuk8cGlJoC34IHItJGBJ_tn5-0NBoTOPLbe-MA5GOFSBeNsQXroxoFPy5-VqQtyzvKughh1tfMfhLMpxIowqNw65lkOOjMIfpoth0kgQAxlc6bTXQphWIw634W_CCUWiB447t9k2x0V0p2CQvvIvhJ5T6Ip8YingLVXQGrfm2R1BXAuVGth-0MVlDyuC9hdwnTJ4W4WhVlVVzTFuo9cFNm6EhNq9HHKBKmpZz32lamigk82-DkyDcGBRcfk-4_P5fWC-5Lvf8CU3huS2YzO7AZbJE-zXmtUaO5rqLd6Mat-K9X7zKPMAPThpsn6sYDQnXR8TwliUmwInkzEyibMVZ21FOuRfbCwwuCFRty1m00]--></g></svg>